<svg width="73" height="73" viewBox="0 0 73 73" fill="none" xmlns="http://www.w3.org/2000/svg">
<path fill-rule="evenodd" clip-rule="evenodd" d="M19.3333 12.3077H1.20833C0.541626 12.3077 0 11.756 0 11.0769V1.23077C0 0.551683 0.541626 0 1.20833 0H27.7917C28.4584 0 29 0.551683 29 1.23077V11.0769C29 11.756 28.4584 12.3077 27.7917 12.3077H24.667L21.396 15.6394C21.1653 15.8744 20.8555 16 20.5417 16C20.3859 16 20.229 15.9694 20.0791 15.9062C19.6283 15.7157 19.3333 15.2662 19.3333 14.7692V12.3077ZM26.5833 2.46154H2.41667V9.84615H20.5417C21.2084 9.84615 21.75 10.3978 21.75 11.0769V11.7981L23.3123 10.2067C23.5383 9.97536 23.8463 9.84615 24.1667 9.84615H26.5833V2.46154Z" fill="#06D0FB"/>
<path fill-rule="evenodd" clip-rule="evenodd" d="M52.6333 9.45455H47.1875C46.5323 9.45455 46 8.9248 46 8.27273V1.18182C46 0.529741 46.5323 0 47.1875 0H63.8125C64.4677 0 65 0.529741 65 1.18182V8.27273C65 8.9248 64.4677 9.45455 63.8125 9.45455H57.875V11.8182C57.875 12.2954 57.5851 12.7271 57.1421 12.91C56.9948 12.9706 56.8406 13 56.6875 13C56.379 13 56.0746 12.8794 55.8479 12.6538L52.6333 9.45455ZM62.625 2.36364H48.375V7.09091H53.125C53.4398 7.09091 53.7425 7.21498 53.9646 7.43715L55.5 8.9652V8.27273C55.5 7.62065 56.0323 7.09091 56.6875 7.09091H62.625V2.36364Z" fill="#06D0FB"/>
<path fill-rule="evenodd" clip-rule="evenodd" d="M6.08333 73V57.1636C2.72918 57.1636 0 54.4311 0 51.0727V32.8H2.43333V42.9684L4.15972 34.1252C4.54765 32.0166 6.00789 30.3357 7.91309 29.5815C6.05304 28.0147 4.86667 25.6723 4.86667 23.0545C4.86667 18.3525 8.68717 14.5273 13.3833 14.5273C18.0795 14.5273 21.9 18.3525 21.9 23.0545C21.9 25.4398 20.9144 27.596 19.333 29.1455H22.6129L30.4167 21.332V13.3091C30.4167 12.637 30.962 12.0909 31.6333 12.0909H34.2235C34.1201 11.696 34.0667 11.2867 34.0667 10.8727C34.0667 8.18535 36.2493 6 38.9333 6C41.6174 6 43.8 8.18535 43.8 10.8727C43.8 11.2867 43.7465 11.696 43.6432 12.0909H46.2333C46.9046 12.0909 47.45 12.637 47.45 13.3091V19.1317C47.45 19.6129 47.1666 20.0507 46.727 20.2452C46.2868 20.4391 45.7735 20.3588 45.4171 20.0347C44.9656 19.6254 44.3911 19.4 43.8 19.4C42.458 19.4 41.3667 20.4927 41.3667 21.8364C41.3667 23.1801 42.458 24.2727 43.8 24.2727C44.3911 24.2727 44.9656 24.0473 45.4159 23.6381C45.7735 23.3151 46.288 23.2336 46.7258 23.4275C47.1666 23.622 47.45 24.0586 47.45 24.541V30.3636C47.45 31.0358 46.9046 31.5818 46.2333 31.5818H43.6432C43.7465 31.9768 43.8 32.386 43.8 32.8C43.8 35.4874 41.6174 37.6727 38.9333 37.6727C36.2493 37.6727 34.0667 35.4874 34.0667 32.8C34.0667 32.386 34.1201 31.9768 34.2235 31.5818H33.3538L26.4102 38.534C26.1827 38.763 25.8726 38.8909 25.55 38.8909H19.2273L17.3339 47.4182H28.3225L31.6963 37.2867L34.0049 38.0576L30.889 47.4182H42.5833V41.3273C42.5833 40.6551 43.1287 40.1091 43.8 40.1091H53.5333V35.2364C53.5333 32.5549 55.2841 30.2976 57.6931 29.4875C55.8936 27.9225 54.75 25.6224 54.75 23.0545C54.75 18.3525 58.5705 14.5273 63.2667 14.5273C67.9628 14.5273 71.7833 18.3525 71.7833 23.0545C71.7833 25.6224 70.6397 27.9225 68.8403 29.4875C71.2493 30.2976 73 32.5549 73 35.2364V51.0727C73 54.4311 70.2708 57.1636 66.9167 57.1636V73H64.4833V57.1636H54.75V71.7818C54.75 72.454 54.2046 73 53.5333 73H46.2333C45.562 73 45.0167 72.454 45.0167 71.7818V53.5091C45.0167 52.1386 45.4717 50.8729 46.2357 49.8545H37.7167V70.5636H42.5833V73H30.4167V70.5636H35.2833V49.8545H26.7352C27.5075 50.8752 27.9833 52.1327 27.9833 53.5091V71.7818C27.9833 72.454 27.438 73 26.7667 73H19.4667C18.7954 73 18.25 72.454 18.25 71.7818V57.1636H8.51667V73H6.08333ZM63.2667 16.9636C59.9125 16.9636 57.1833 19.6962 57.1833 23.0545C57.1833 26.4129 59.9125 29.1455 63.2667 29.1455C66.6208 29.1455 69.35 26.4129 69.35 23.0545C69.35 19.6962 66.6208 16.9636 63.2667 16.9636ZM45.0167 42.5455H54.75C55.4213 42.5455 55.9667 41.9994 55.9667 41.3273V35.2364C55.9667 33.2217 57.6045 31.5818 59.6167 31.5818H66.9167C68.9288 31.5818 70.5667 33.2217 70.5667 35.2364V51.0727C70.5667 53.0874 68.9288 54.7273 66.9167 54.7273H53.5333C52.862 54.7273 52.3167 55.2733 52.3167 55.9455V70.5636H47.45V53.5091C47.45 51.4944 49.0879 49.8545 51.1 49.8545H62.05C62.7213 49.8545 63.2667 49.3085 63.2667 48.6364V37.6727H60.8333V47.4182H45.0167V42.5455ZM36.2321 14.5273H32.85V21.332L37.3602 25.8478C37.8361 26.3242 37.8361 27.0939 37.3602 27.5704L35.7871 29.1455H36.2321C36.7139 29.1455 37.1499 29.4292 37.3442 29.8705C37.5402 30.3113 37.4576 30.8252 37.1339 31.1821C36.7252 31.633 36.5 32.2082 36.5 32.8C36.5 34.1437 37.5913 35.2364 38.9333 35.2364C40.2753 35.2364 41.3667 34.1437 41.3667 32.8C41.3667 32.2082 41.1415 31.633 40.7328 31.1821C40.4102 30.8252 40.3264 30.3113 40.5225 29.8705C40.7167 29.4292 41.1528 29.1455 41.6346 29.1455H45.0167V26.5521C44.6222 26.6556 44.2135 26.7091 43.8 26.7091C41.116 26.7091 38.9333 24.5237 38.9333 21.8364C38.9333 19.149 41.116 16.9636 43.8 16.9636C44.2135 16.9636 44.6222 17.0172 45.0167 17.1207V14.5273H41.6346C41.1528 14.5273 40.7167 14.2435 40.5225 13.8034C40.3276 13.3626 40.409 12.8487 40.7328 12.4918C41.1415 12.0398 41.3667 11.4646 41.3667 10.8727C41.3667 9.52904 40.2753 8.43636 38.9333 8.43636C37.5913 8.43636 36.5 9.52904 36.5 10.8727C36.5 11.4646 36.7252 12.0398 37.1339 12.4906C37.4576 12.8475 37.5402 13.3626 37.3442 13.8022C37.1499 14.2435 36.7139 14.5273 36.2321 14.5273ZM7.3 23.0545C7.3 19.6962 10.0292 16.9636 13.3833 16.9636C16.7375 16.9636 19.4667 19.6962 19.4667 23.0545C19.4667 26.4129 16.7375 29.1455 13.3833 29.1455C10.0292 29.1455 7.3 26.4129 7.3 23.0545ZM6.54909 34.5797L3.45633 50.4297C3.26445 51.4855 3.5502 52.5782 4.24764 53.4139C4.94093 54.2484 5.96155 54.7273 7.04455 54.7273H19.4667C20.138 54.7273 20.6833 55.2733 20.6833 55.9455V70.5636H25.55V53.5091C25.55 51.4944 23.9121 49.8545 21.9 49.8545H15.8167C15.4477 49.8545 15.099 49.6862 14.8679 49.3977C14.6362 49.1104 14.5489 48.7327 14.6291 48.3723L17.0624 37.4086C17.1854 36.8519 17.6791 36.4545 18.25 36.4545H25.0462L34.7796 26.7091L31.6333 23.5589L23.9769 31.2249C23.7494 31.4539 23.4393 31.5818 23.1167 31.5818H10.1468C8.383 31.5818 6.8693 32.8428 6.54909 34.5797Z" fill="#06D0FB"/>
<path d="M5 5H10V7H5V5Z" fill="#06D0FB"/>
<path d="M12 5H14V7H12V5Z" fill="#06D0FB"/>
<path d="M17 5H19V7H17V5Z" fill="#06D0FB"/>
<path d="M22 5H24V7H22V5Z" fill="#06D0FB"/>
</svg>
