<svg width="71" height="71" viewBox="0 0 71 71" fill="none" xmlns="http://www.w3.org/2000/svg">
<path fill-rule="evenodd" clip-rule="evenodd" d="M65.2188 0C68.4064 0 71 2.59363 71 5.78118V30.0622C71 30.3687 70.8786 30.6634 70.6613 30.8797L64.8801 36.6608C64.6548 36.8861 64.3584 36.9996 64.0626 36.9996C63.7667 36.9996 63.4703 36.8861 63.2451 36.6608L58.2814 31.6971L53.3177 36.6608C52.8655 37.1131 52.1349 37.1131 51.6827 36.6608L46.719 31.6971L41.7553 36.6608C41.3031 37.1131 40.5726 37.1131 40.1203 36.6608L34.3392 30.8797C33.8869 30.4274 33.8869 29.6969 34.3392 29.2447L39.3029 24.281L34.3392 19.3173C33.8869 18.8651 33.8869 18.1345 34.3392 17.6823L39.3029 12.7186L34.3392 7.75492C33.8869 7.3027 33.8869 6.57214 34.3392 6.11993L40.1203 0.338741C40.3366 0.121382 40.6302 0 40.9378 0H65.2188ZM64.0626 34.2084L68.6875 29.5834V5.78118C68.6875 3.86899 67.131 2.31247 65.2188 2.31247H41.4166L36.7917 6.93742L41.7553 11.9011C42.2076 12.3533 42.2076 13.0839 41.7553 13.5361L36.7917 18.4998L41.7553 23.4635C42.2076 23.9157 42.2076 24.6462 41.7553 25.0985L36.7917 30.0622L40.9378 34.2084L45.9015 29.2447C46.3538 28.7924 47.0843 28.7924 47.5365 29.2447L52.5002 34.2084L57.4639 29.2447C57.6892 29.0194 57.9856 28.9059 58.2814 28.9059C58.5772 28.9059 58.8736 29.0194 59.0989 29.2447L64.0626 34.2084Z" fill="#06D0FB"/>
<path fill-rule="evenodd" clip-rule="evenodd" d="M61 65.1346C61 68.3686 58.3686 71 55.1346 71H5.86538C2.6314 71 0 68.3686 0 65.1346V15.8654C0 12.6314 2.6314 10 5.86538 10H30.5C30.9737 10 31.4033 10.2864 31.5837 10.724C31.7659 11.1628 31.6651 11.6668 31.3294 12.0025L26.2934 17.0385L31.3294 22.0744C31.7882 22.5332 31.7882 23.2744 31.3294 23.7332L26.2934 28.7692L31.3294 33.8052C31.7882 34.264 31.7882 35.0052 31.3294 35.464L26.2934 40.5L30.5 44.7066L35.536 39.6706C35.9948 39.2118 36.736 39.2118 37.1948 39.6706L42.2308 44.7066L47.2668 39.6706C47.7256 39.2118 48.4668 39.2118 48.9256 39.6706L53.9615 44.7066L58.9975 39.6706C59.3332 39.3349 59.8372 39.2353 60.276 39.4163C60.7148 39.5979 61 40.0263 61 40.5V65.1346ZM41.4014 47.1948L36.3654 42.1588L26.2934 52.2308L31.3294 57.2668C31.7882 57.7256 31.7882 58.4668 31.3294 58.9256L26.2934 63.9615L30.9857 68.6538H55.1346C57.0747 68.6538 58.6538 67.0747 58.6538 65.1346V43.3319L54.7909 47.1948C54.3321 47.6536 53.5909 47.6536 53.1321 47.1948L48.0962 42.1588L43.0602 47.1948C42.6014 47.6536 41.8602 47.6536 41.4014 47.1948ZM28.8412 46.3654L23.8052 51.4014C23.3464 51.8602 23.3464 52.6014 23.8052 53.0602L28.8412 58.0962L23.8052 63.1321C23.3464 63.5909 23.3464 64.3321 23.8052 64.7909L27.6681 68.6538H5.86538C3.92534 68.6538 2.34615 67.0747 2.34615 65.1346V43.3319L6.20906 47.1948C6.66787 47.6536 7.40906 47.6536 7.86786 47.1948L12.9038 42.1588L17.9398 47.1948C18.1684 47.4233 18.4691 47.5385 18.7692 47.5385C19.0694 47.5385 19.3701 47.4233 19.5986 47.1948L24.6346 42.1588L28.8412 46.3654ZM27.6681 12.3462H5.86538C3.92534 12.3462 2.34615 13.9253 2.34615 15.8654V40.0143L7.03846 44.7066L12.0744 39.6706C12.5332 39.2118 13.2744 39.2118 13.7332 39.6706L18.7692 44.7066L28.8412 34.6346L23.8052 29.5986C23.3464 29.1398 23.3464 28.3986 23.8052 27.9398L28.8412 22.9038L23.8052 17.8679C23.3464 17.4091 23.3464 16.6679 23.8052 16.2091L27.6681 12.3462Z" fill="#06D0FB"/>
<path d="M53.5 6C50.4675 6 48 8.72384 48 12.0714V14.5H50.2V12.0714C50.2 10.0632 51.6808 8.42857 53.5 8.42857C55.3192 8.42857 56.8 10.0632 56.8 12.0714V13.9972L52.7223 18.4986C52.5155 18.7257 52.4 19.0352 52.4 19.3571V23H54.6V19.8599L58.6777 15.3585C58.8845 15.1315 59 14.822 59 14.5V12.0714C59 8.72384 56.5325 6 53.5 6Z" fill="#06D0FB"/>
<path d="M53 25H55V27H53V25Z" fill="#06D0FB"/>
<path d="M53 64H55V66H53V64Z" fill="#06D0FB"/>
<path d="M48 64H50V66H48V64Z" fill="#06D0FB"/>
<path d="M44 64H46V66H44V64Z" fill="#06D0FB"/>
</svg>
