<svg width="146" height="138" viewBox="0 0 146 138" fill="none" xmlns="http://www.w3.org/2000/svg">
<path fill-rule="evenodd" clip-rule="evenodd" d="M0.14135 50.4914C17.2481 47.2928 27.3967 64.3283 26.4797 113.542C26.4797 113.542 37.0597 139.196 84.6314 137.674C143.169 140.166 144.255 106.31 144.255 106.31C144.255 106.31 136.192 88.2325 136.431 78.1962C136.671 68.1599 145.733 44.3291 145.733 44.3291C145.733 44.3291 148.096 11.7859 129.534 3.92864C110.971 -3.92864 95.8239 3.92864 95.8239 3.92864C95.8239 3.92864 82.045 9.88848 72.8666 11.1103C63.6882 12.332 26.4797 13.1594 26.4797 13.1594C26.4797 13.1594 8.97433 19.0148 4.10624 25.9148C-0.76185 32.8148 0.14135 50.4914 0.14135 50.4914Z" fill="#1ADAFF" fill-opacity="0.33673" style="mix-blend-mode:lighten"/>
</svg>
