<svg width="70" height="71" viewBox="0 0 70 71" fill="none" xmlns="http://www.w3.org/2000/svg">
<path fill-rule="evenodd" clip-rule="evenodd" d="M1.16667 71C0.522379 71 0 70.4743 0 69.8271V36.9867C0 35.0464 1.56999 33.4681 3.5 33.4681H4.70369C4.72705 32.8518 4.76237 32.2373 4.82275 31.6228L1.1547 29.6316C0.711507 29.3911 0.472249 28.8899 0.561117 28.3917C0.906331 26.4623 1.40934 24.5644 2.05534 22.7501C2.22567 22.2731 2.68424 21.9501 3.18612 21.9735L7.35205 22.0898C8.17578 20.2543 9.18522 18.4996 10.361 16.8577L8.18034 13.2921C7.91716 12.8603 7.9576 12.3071 8.28459 11.9199C8.97046 11.1073 9.61418 10.4 10.2516 9.75917C10.8885 9.1189 11.592 8.47176 12.4004 7.78338C12.7866 7.45466 13.3363 7.41457 13.7653 7.67858L17.3132 9.87085C18.9464 8.68996 20.6907 7.67515 22.5176 6.84589L22.4025 2.65779C22.3883 2.15096 22.6999 1.69223 23.1744 1.521C24.9831 0.870418 26.8704 0.364731 28.7861 0.0188247C29.2834 -0.0716605 29.7791 0.170015 30.0194 0.61557L32.0013 4.30428C33.9968 4.10613 36.0066 4.10613 38.0015 4.30428L39.9828 0.616715C40.2221 0.170015 40.7166 -0.0682245 41.2161 0.0199702C43.1313 0.365876 45.0203 0.871563 46.8262 1.52214C47.3024 1.69223 47.614 2.15096 47.5998 2.65894L47.4841 6.84703C49.3105 7.67515 51.0553 8.68996 52.6891 9.87199L56.2358 7.67973C56.6659 7.41629 57.2168 7.4558 57.6007 7.78453C58.4091 8.47405 59.1126 9.12119 59.7495 9.76204C60.3864 10.4023 61.0307 11.1096 61.7154 11.9222C62.0407 12.3082 62.0828 12.8614 61.8191 13.2944L59.639 16.86C60.8136 18.5007 61.8225 20.2566 62.6474 22.0921L66.8139 21.9758C67.3095 21.9478 67.7738 22.2754 67.9441 22.7524C68.5918 24.5707 69.0948 26.468 69.4389 28.394C69.5272 28.8934 69.2885 29.3933 68.8447 29.6339L65.1767 31.6251C65.2365 32.2373 65.2724 32.8536 65.2957 33.4681H66.5C68.4294 33.4681 70 35.0464 70 36.9867V69.8271C70 70.4743 69.4771 71 68.8333 71H1.16667ZM44.3333 33.4681H46.6667V26.4308C46.6667 24.4905 45.0961 22.9122 43.1667 22.9122H26.8333C24.9033 22.9122 23.3333 24.4905 23.3333 26.4308V33.4681H25.6667V26.4308C25.6667 25.7831 26.189 25.2579 26.8333 25.2579H43.1667C43.8104 25.2579 44.3333 25.7831 44.3333 26.4308V33.4681ZM28 33.4681V27.6037H42V33.4681H28ZM21 35.8138V45.1968C21.6437 45.1968 22.1667 45.7219 22.1667 46.3697V49.8883H47.8333V46.3697C47.8333 45.7219 48.3557 45.1968 49 45.1968V35.8138H21ZM54.8333 47.5425V54.5798H50.1667V47.5425H54.8333ZM32.6667 52.234V54.5798H37.3333V52.234H32.6667ZM19.8333 47.5425V54.5798H15.1667V47.5425H19.8333ZM22.1667 55.7526C22.1667 56.3998 21.6437 56.9255 21 56.9255V68.6543H49V56.9255C48.3557 56.9255 47.8333 56.3998 47.8333 55.7526V52.234H39.6667V55.7526C39.6667 56.3998 39.1437 56.9255 38.5 56.9255H31.5C30.8557 56.9255 30.3333 56.3998 30.3333 55.7526V52.234H22.1667V55.7526ZM18.6667 68.6543H16.3333V56.9255H18.6667V68.6543ZM53.6667 56.9255H51.3333V68.6543H53.6667V56.9255ZM56 56.9255C56.6437 56.9255 57.1667 56.3998 57.1667 55.7526V52.234H64.1667C64.476 52.234 64.7734 52.1109 64.9915 51.8904L67.6667 49.201V59.3406C62.8086 59.8835 58.9423 63.7703 58.4023 68.6543H56V56.9255ZM51.3333 35.8138V45.1968H53.6667V35.8138H51.3333ZM49 33.4681V26.4308C49 23.1968 46.383 20.5664 43.1667 20.5664H26.8333C23.617 20.5664 21 23.1968 21 26.4308V33.4681H12.8926C13.505 21.7261 23.171 12.3563 35 12.3563C46.829 12.3563 56.4945 21.7261 57.1069 33.4681H49ZM18.6667 45.1968V35.8138H16.3333V45.1968H18.6667ZM14 56.9255V68.6543H11.5977C11.0577 63.7703 7.19141 59.8835 2.33333 59.3406V49.201L5.00846 51.8904C5.22664 52.1109 5.52401 52.234 5.83333 52.234H12.8333V55.7526C12.8333 56.3998 13.3557 56.9255 14 56.9255ZM9.23991 68.6543C8.72664 65.0663 5.90226 62.2269 2.33333 61.7109V68.6543H9.23991ZM60.7601 68.6543C61.2745 65.0663 64.0977 62.2269 67.6667 61.7109V68.6543H60.7601ZM67.6667 45.884V36.9867C67.6667 36.3401 67.1426 35.8138 66.5 35.8138H56V45.1968C56.6437 45.1968 57.1667 45.7219 57.1667 46.3697V49.8883H63.6836L67.6667 45.884ZM6.62402 29.9363L3.01693 27.9777C3.26986 26.7424 3.59229 25.5265 3.97852 24.3439L8.07438 24.459C8.54321 24.4722 8.99609 24.187 9.18294 23.7403C10.0881 21.5704 11.2702 19.5144 12.6955 17.6308C12.9871 17.2448 13.0128 16.7191 12.761 16.3062L10.6168 12.7973C11.0577 12.2962 11.4821 11.8415 11.9025 11.4188C12.3212 10.9968 12.7735 10.5701 13.272 10.1263L16.7629 12.2836C17.173 12.5379 17.696 12.511 18.0799 12.2177C19.9524 10.7843 21.9975 9.59653 24.1571 8.6848C24.6014 8.49753 24.8862 8.05541 24.872 7.57092L24.7586 3.45383C25.9373 3.0644 27.1472 2.74083 28.3731 2.48656L30.3214 6.11284C30.5515 6.53892 31.0249 6.78003 31.4932 6.71932C33.8214 6.42496 36.1803 6.4261 38.5068 6.71932C38.9797 6.77545 39.4496 6.53892 39.6781 6.11284L41.6263 2.48656C42.8528 2.74083 44.0627 3.0644 45.2408 3.45269L45.128 7.57092C45.1138 8.05541 45.3986 8.49753 45.8429 8.6848C48.0014 9.59538 50.0465 10.7831 51.9201 12.2166C52.304 12.511 52.8264 12.5356 53.2371 12.2825L56.7269 10.1251C57.2248 10.569 57.6777 10.9956 58.0975 11.4177C58.5173 11.8392 58.9423 12.2939 59.3832 12.795L57.2379 16.3028C56.9855 16.7157 57.0112 17.2425 57.3028 17.6268C58.7287 19.5104 59.9107 21.5669 60.8171 23.7363C61.0039 24.1836 61.438 24.4722 61.9256 24.4556L66.0215 24.3416C66.4089 25.5265 66.7307 26.7424 66.9842 27.9754L63.3765 29.9328C62.9533 30.1625 62.714 30.6309 62.7738 31.1103C62.8707 31.8891 62.9356 32.6772 62.9687 33.4629H59.4413C58.8255 20.4324 48.1153 10.0106 35 10.0106C21.8841 10.0106 11.1745 20.4324 10.5592 33.4681H7.03247C7.06551 32.6806 7.12931 31.8937 7.22729 31.1149C7.28711 30.6344 7.04785 30.1676 6.62402 29.9363ZM14 35.8138H3.5C2.85685 35.8138 2.33333 36.3401 2.33333 36.9867V45.884L6.31641 49.8883H12.8333V46.3697C12.8333 45.7219 13.3557 45.1968 14 45.1968V35.8138Z" fill="#06D0FB"/>
<path d="M34 45H36V47H34V45Z" fill="#06D0FB"/>
<path d="M39 45H41V47H39V45Z" fill="#06D0FB"/>
<path d="M29 45H31V47H29V45Z" fill="#06D0FB"/>
</svg>
