<svg width="90" height="90" viewBox="0 0 90 90" fill="none" xmlns="http://www.w3.org/2000/svg">
<path fill-rule="evenodd" clip-rule="evenodd" d="M3.00006 0H32.9999C34.6562 0.00158203 35.9984 1.34384 36 3.00005V32.9999C35.9982 34.6561 34.6562 35.9983 32.9999 35.9999H25.4999V40.4999C25.4999 41.3283 24.8284 41.9998 23.9999 41.9998H22.5C21.6715 41.9998 21.0001 41.3283 21.0001 40.4999C21.0001 39.6714 21.6715 39 22.5 39V35.9999H13.5V39.0001C14.3285 39.0001 14.9999 39.6716 14.9999 40.5001C14.9999 41.3285 14.3285 42 13.5 42H12.0001C11.1716 42 10.5001 41.3285 10.5001 40.5001V36.0001H3.00006C1.34385 35.9983 0.00158203 34.6562 0 33V3.00005C0.00158203 1.34384 1.34385 0.00158203 3.00006 0ZM25.5001 28.4999V32.9999V33H33.0022L33.0001 3.00005H3.00006V32.9999H10.5001V28.4999C10.5001 27.6714 11.1716 26.9999 12.0001 26.9999H13.5C14.3285 26.9999 14.9999 27.6714 14.9999 28.4999C14.9999 29.3283 14.3285 29.9998 13.5 29.9998V32.9999H22.5V29.9998C21.6715 29.9998 21.0001 29.3283 21.0001 28.4999C21.0001 27.6714 21.6715 26.9999 22.5 26.9999H24.0001C24.8286 26.9999 25.5001 27.6714 25.5001 28.4999Z" fill="#06D0FB"/>
<path fill-rule="evenodd" clip-rule="evenodd" d="M12.0483 17.2374C12.429 14.2439 14.9789 12 18 12C21.0211 12 23.571 14.2439 23.9517 17.2374C24.3324 20.2309 22.4252 23.0403 19.4998 23.7947V28.5019C19.4998 29.3293 18.8284 30 18 30C17.1716 30 16.5002 29.3293 16.5002 28.5019V23.7947C13.5748 23.0403 11.6676 20.2309 12.0483 17.2374ZM19.4998 19.5131V20.5945C20.6756 19.9195 21.2493 18.5385 20.8974 17.2304C20.5455 15.9223 19.3562 15.0144 18 15.0188C16.6438 15.0144 15.4545 15.9223 15.1026 17.2304C14.7507 18.5385 15.3244 19.9195 16.5002 20.5945V19.5131C16.5002 18.6856 17.1716 18.015 18 18.015C18.8284 18.015 19.4998 18.6856 19.4998 19.5131Z" fill="#06D0FB"/>
<path fill-rule="evenodd" clip-rule="evenodd" d="M25.4998 53.9999H32.9998C34.656 54.0015 35.9982 55.3438 36 57V87C35.9982 88.6562 34.6562 89.9984 33 90H3.00004C1.34384 89.9982 0.00158202 88.6562 0 87V57C0.00158202 55.3438 1.34384 54.0015 3.00004 53.9999H10.5001V49.4999C10.5001 48.6717 11.1715 48 12 48H13.4999C14.3284 48 14.9999 48.6715 14.9999 49.4999C14.9999 50.3284 14.3284 50.9999 13.4999 50.9999V53.9999H22.4999V50.9999C21.6714 50.9999 21 50.3282 21 49.4999C21 48.6717 21.6714 48 22.4999 48H23.9998C24.8283 48 25.4998 48.6715 25.4998 49.4999V53.9999ZM3.00004 57V86.9998V87H33.0019L32.9998 57H25.4998V61.5C25.4998 62.3284 24.8283 62.9999 23.9998 62.9999H22.4999C21.6714 62.9999 21 62.3284 21 61.5C21 60.6715 21.6714 60 22.4999 60V57H13.4999V60C14.3284 60 14.9999 60.6715 14.9999 61.5C14.9999 62.3284 14.3284 62.9999 13.4999 62.9999H12C11.1715 62.9999 10.5001 62.3284 10.5001 61.5V57H3.00004Z" fill="#06D0FB"/>
<path fill-rule="evenodd" clip-rule="evenodd" d="M19.4998 62.4981V67.2053C22.4252 67.9599 24.3324 70.7691 23.9517 73.7626C23.571 76.7561 21.0211 79 18 79C14.9789 79 12.429 76.7561 12.0483 73.7626C11.6676 70.7691 13.5748 67.9597 16.5002 67.2053V62.4981C16.5002 61.6707 17.1716 61 18 61C18.8284 61 19.4998 61.6707 19.4998 62.4981ZM18 75.9814C19.3562 75.9858 20.5455 75.0779 20.8974 73.7698C21.2493 72.4617 20.6756 71.0807 19.4998 70.4055V71.4869C19.4998 72.3144 18.8284 72.985 18 72.985C17.1716 72.985 16.5002 72.3144 16.5002 71.4869V70.4055C15.3243 71.0807 14.7507 72.4617 15.1026 73.7698C15.4545 75.0779 16.6438 75.9858 18 75.9814Z" fill="#06D0FB"/>
<path fill-rule="evenodd" clip-rule="evenodd" d="M57.0001 0H86.9999C88.6562 0.00158203 89.9984 1.34384 90 3.00005V32.9999C89.9982 34.6561 88.6562 35.9983 86.9999 35.9999H79.4999V40.4999C79.4999 41.3283 78.8284 41.9998 77.9999 41.9998H76.5C75.6715 41.9998 75.0001 41.3283 75.0001 40.4999C75.0001 39.6714 75.6715 39 76.5 39V35.9999H67.5V39.0001C68.3285 39.0001 68.9999 39.6716 68.9999 40.5001C68.9999 41.3285 68.3285 42 67.5 42H66.0001C65.1716 42 64.5001 41.3285 64.5001 40.5001V36.0001H57.0001C55.3438 35.9983 54.0016 34.6562 54 33V3.00005C54.0018 1.34384 55.3438 0.00158203 57.0001 0ZM79.5001 28.4999V32.9999V33H87.0022L87.0001 3.00005H57.0001V32.9999H64.5001V28.4999C64.5001 27.6714 65.1716 26.9999 66.0001 26.9999H67.5C68.3285 26.9999 68.9999 27.6714 68.9999 28.4999C68.9999 29.3283 68.3285 29.9998 67.5 29.9998V32.9999H76.5V29.9998C75.6715 29.9998 75.0001 29.3283 75.0001 28.4999C75.0001 27.6714 75.6715 26.9999 76.5 26.9999H78.0001C78.8286 26.9999 79.5001 27.6714 79.5001 28.4999Z" fill="#06D0FB"/>
<path fill-rule="evenodd" clip-rule="evenodd" d="M67.0483 17.2314C67.4296 14.2363 69.981 11.9935 73.0002 12C76.0193 11.9935 78.5707 14.2363 78.9516 17.2314C79.3329 20.2267 77.4242 23.0371 74.4998 23.787V28.5001C74.4998 29.3285 73.8284 30 73 30C72.1716 30 71.5002 29.3285 71.5002 28.5001V23.787C68.5757 23.037 66.6673 20.2266 67.0483 17.2314ZM74.5 19.4999V20.5827C75.6759 19.9038 76.249 18.5197 75.8977 17.2082C75.5463 15.8967 74.3578 14.9848 73.0002 14.9848C71.6425 14.9848 70.454 15.8967 70.1026 17.2082C69.7513 18.5197 70.3245 19.9038 71.5003 20.5827V19.4999C71.5003 18.6714 72.1718 18 73.0002 18C73.8285 18 74.5 18.6714 74.5 19.4999Z" fill="#06D0FB"/>
<path fill-rule="evenodd" clip-rule="evenodd" d="M79.4998 53.9999H86.9998C88.656 54.0015 89.9982 55.3438 90 57V87C89.9982 88.6562 88.6562 89.9984 87 90H57C55.3438 89.9982 54.0016 88.6562 54 87V57C54.0018 55.3438 55.3438 54.0015 57 53.9999H64.5001V49.4999C64.5001 48.6717 65.1715 48 66 48H67.4999C68.3284 48 68.9999 48.6715 68.9999 49.4999C68.9999 50.3284 68.3284 50.9999 67.4999 50.9999V53.9999H76.4999V50.9999C75.6714 50.9999 75 50.3282 75 49.4999C75 48.6717 75.6714 48 76.4999 48H77.9998C78.8283 48 79.4998 48.6715 79.4998 49.4999V53.9999ZM57 57V86.9998V87H87.0019L86.9998 57H79.4998V61.5C79.4998 62.3284 78.8283 62.9999 77.9998 62.9999H76.4999C75.6714 62.9999 75 62.3284 75 61.5C75 60.6715 75.6714 60 76.4999 60V57H67.4999V60C68.3284 60 68.9999 60.6715 68.9999 61.5C68.9999 62.3284 68.3284 62.9999 67.4999 62.9999H66C65.1715 62.9999 64.5001 62.3284 64.5001 61.5V57H57Z" fill="#06D0FB"/>
<path fill-rule="evenodd" clip-rule="evenodd" d="M74.4998 62.4981V67.2053C77.4252 67.9599 79.3324 70.7691 78.9517 73.7626C78.571 76.7561 76.0211 79 73 79C69.9789 79 67.429 76.7561 67.0483 73.7626C66.6676 70.7691 68.5748 67.9597 71.5002 67.2053V62.4981C71.5002 61.6707 72.1716 61 73 61C73.8284 61 74.4998 61.6707 74.4998 62.4981ZM73 75.9814C74.3562 75.9858 75.5455 75.0779 75.8974 73.7698C76.2493 72.4617 75.6757 71.0807 74.4998 70.4055V71.4869C74.4998 72.3144 73.8284 72.985 73 72.985C72.1716 72.985 71.5002 72.3144 71.5002 71.4869V70.4055C70.3243 71.0807 69.7507 72.4617 70.1026 73.7698C70.4545 75.0779 71.6438 75.9858 73 75.9814Z" fill="#06D0FB"/>
<path d="M20 49.5V40.5C20 39.6715 19.3285 39 18.5 39C17.6715 39 17 39.6715 17 40.5V49.5C17 50.3285 17.6715 51 18.5 51C19.3285 51 20 50.3285 20 49.5Z" fill="#06D0FB"/>
<path d="M74 49.5V40.5C74 39.6715 73.3285 39 72.5 39C71.6715 39 71 39.6715 71 40.5V49.5C71 50.3285 71.6715 51 72.5 51C73.3285 51 74 50.3285 74 49.5Z" fill="#06D0FB"/>
</svg>
