<svg width="73" height="73" viewBox="0 0 73 73" fill="none" xmlns="http://www.w3.org/2000/svg">
<path fill-rule="evenodd" clip-rule="evenodd" d="M52.5 24H68.1765C70.8404 24 73 26.1596 73 28.8235V60.1765C73 62.8404 70.8404 65 68.1765 65H36.8235C34.1596 65 32 62.8404 32 60.1765V44.5C32 43.8341 32.5399 43.2941 33.2059 43.2941H51.2941V37.2647C51.2941 36.5988 51.8341 36.0588 52.5 36.0588H56.1176C57.4497 36.0588 58.5294 34.9791 58.5294 33.6471C58.5294 32.315 57.4497 31.2353 56.1176 31.2353H52.5C51.8341 31.2353 51.2941 30.6954 51.2941 30.0294V25.2059C51.2941 24.5399 51.8341 24 52.5 24ZM34.4118 60.1765C34.4118 61.5085 35.4915 62.5882 36.8235 62.5882H51.2941V57.7647H48.8824C46.2184 57.7647 44.0588 55.6051 44.0588 52.9412C44.0588 50.2772 46.2184 48.1176 48.8824 48.1176H51.2941V45.7059H34.4118V60.1765ZM70.5882 60.1765C70.5882 61.5085 69.5085 62.5882 68.1765 62.5882H53.7059V56.5588C53.7059 55.8929 53.1659 55.3529 52.5 55.3529H48.8824C47.5503 55.3529 46.4706 54.2732 46.4706 52.9412C46.4706 51.6091 47.5503 50.5294 48.8824 50.5294H52.5C53.1659 50.5294 53.7059 49.9895 53.7059 49.3235V45.7059H57.3235V48.1176C57.3235 50.7816 59.4831 52.9412 62.1471 52.9412C64.811 52.9412 66.9706 50.7816 66.9706 48.1176V45.7059H70.5882V60.1765ZM65.7647 43.2941H70.5882V28.8235C70.5882 27.4915 69.5085 26.4118 68.1765 26.4118H53.7059V28.8235H56.1176C58.7816 28.8235 60.9412 30.9831 60.9412 33.6471C60.9412 36.311 58.7816 38.4706 56.1176 38.4706H53.7059V43.2941H58.5294C59.1954 43.2941 59.7353 43.8341 59.7353 44.5V48.1176C59.7353 49.4497 60.815 50.5294 62.1471 50.5294C63.4791 50.5294 64.5588 49.4497 64.5588 48.1176V44.5C64.5588 43.8341 65.0988 43.2941 65.7647 43.2941Z" fill="#06D0FB"/>
<path fill-rule="evenodd" clip-rule="evenodd" d="M53.1667 4.87359H50.7501V1.22397C50.7501 0.552129 50.2091 0.00742232 49.5418 0.00742232H33.8337C31.1644 0.00742232 29.0004 2.1861 29.0004 4.87359V18.4989L24.0016 20.932C23.2499 19.9323 22.3168 19.0851 21.2515 18.4356C26.0245 16.0278 27.9551 10.1802 25.5635 5.37466C23.172 0.569161 17.3639 -1.37457 12.5909 1.03327C7.81788 3.44111 5.88729 9.28873 8.27885 14.0942C9.10353 15.7512 10.3809 17.1367 11.9607 18.0877C9.43159 19.3295 7.56368 21.6169 6.84232 24.3553L2.02838 39.6168C0.666461 43.9275 0.943468 48.5937 2.80533 52.7105C4.78002 57.0621 4.68759 62.0805 2.554 66.3552L0.127703 71.2397C-0.1706 71.8406 0.0715168 72.5713 0.668425 72.8717C0.836381 72.9561 1.0214 73 1.20915 73H14.5006C15.1679 73 15.7089 72.4553 15.7089 71.7835C15.7126 69.5256 14.4666 67.4536 12.4779 66.41L13.0555 65.2494C14.8045 61.7093 15.3736 57.6957 14.6782 53.8042L13.7817 48.8407C13.6669 48.2 14.0898 47.5869 14.7261 47.4713C14.7941 47.459 14.863 47.4528 14.932 47.4526C15.4975 47.452 15.9826 47.8585 16.0847 48.4185L17.7256 57.5085C17.9916 58.985 18.1256 60.4825 18.1256 61.983V71.7835C18.1256 72.4553 18.6666 73 19.3339 73H32.6254C33.2927 73 33.8337 72.4553 33.8337 71.7835C33.8337 71.5468 33.8199 71.3104 33.7926 71.0754C33.5848 69.2444 32.4616 67.6474 30.8153 66.8419C29.4674 66.1503 27.906 66.0108 26.4581 66.4526L27.2629 62.4039C27.6145 60.6314 27.7916 58.8282 27.7921 57.0207V46.1314L26.3808 29.8407L34.7653 25.8127C36.3147 25.119 37.3473 23.6099 37.4393 21.9052H49.5418C50.2091 21.9052 50.7501 21.3605 50.7501 20.6887V14.6059H53.1667C55.8361 14.6059 58 12.4273 58 9.73977C58 7.05227 55.8361 4.87359 53.1667 4.87359ZM9.66736 9.73977C9.66736 5.70845 12.9132 2.44051 16.9173 2.44051C20.9213 2.44051 24.1672 5.70845 24.1672 9.73977C24.1672 13.7711 20.9213 17.039 16.9173 17.039C12.915 17.0351 9.67144 13.7694 9.66736 9.73977ZM29.7194 69.0134C28.6891 68.4833 27.4631 68.5102 26.4569 69.0852L25.3889 69.7007C25.1352 69.8469 24.8375 69.8954 24.5508 69.8374C23.8965 69.7051 23.4728 69.0639 23.6042 68.4051L24.8923 61.9258C25.2123 60.3107 25.3743 58.6678 25.3756 57.0207V46.2361L24.0586 30.9587L18.5003 33.6266C17.8921 33.9207 17.2258 34.0724 16.5511 34.0708C14.078 34.0647 12.0781 32.0411 12.0841 29.5512C12.0909 27.8197 13.0751 26.2429 14.6216 25.4855L21.7628 22.0123C20.723 20.7741 19.2976 19.9268 17.7185 19.6084C13.8977 18.8787 10.1653 21.2414 9.16243 25.0244L4.32917 40.3529C3.14849 44.0896 3.3888 48.1348 5.00341 51.7032C7.28063 56.723 7.174 62.5116 4.71341 67.4428L3.16435 70.5669H13.0846C12.6715 69.4077 11.7038 68.5379 10.5133 68.2555C10.4223 68.2333 10.3339 68.2004 10.2504 68.1577C9.65543 67.8533 9.41829 67.1209 9.72068 66.5219L10.894 64.1606C12.4104 61.092 12.9044 57.6132 12.3028 54.2397L11.4051 49.2762C11.4011 49.2557 11.3974 49.2351 11.3939 49.2146C11.0563 47.2497 12.3649 45.3813 14.3167 45.0416C16.2682 44.7017 18.1241 46.0192 18.4615 47.9842L20.1024 57.073C20.3949 58.6931 20.5421 60.3364 20.5422 61.983V70.5669H31.1887C30.9014 69.8873 30.3796 69.3355 29.7194 69.0134ZM33.7769 23.5938L33.7406 23.6096L17.4586 31.4307C16.4271 31.9253 15.1927 31.4843 14.7015 30.4456C14.5693 30.1661 14.5008 29.8606 14.5006 29.5512C14.5036 28.7533 14.9568 28.0264 15.6691 27.6765L32.0816 19.696C32.7343 19.4026 33.4907 19.4659 34.0862 19.8638C34.6877 20.2527 35.0486 20.9253 35.042 21.6449C35.0417 22.4897 34.5454 23.2543 33.7769 23.5938ZM49.5418 12.1729H53.1667C54.5015 12.1729 55.5834 11.0836 55.5834 9.73977C55.5834 8.39594 54.5015 7.30668 53.1667 7.30668H49.5418C48.8745 7.30668 48.3335 6.76197 48.3335 6.09014V2.44051H33.8337C32.4989 2.44051 31.417 3.52977 31.417 4.87359V17.3578C33.5165 16.5989 35.8517 17.4972 36.9137 19.4721H48.3335V13.3894C48.3335 12.7176 48.8745 12.1729 49.5418 12.1729Z" fill="#06D0FB"/>
<path d="M48.3488 31.71L44.5033 35.6018V29H42.1678V37.9655L41 39.1473L39.8322 37.9655V33.7274H37.4967V35.6018L33.6512 31.71L32 33.3811L40.1744 41.654C40.6304 42.1153 41.3696 42.1153 41.8256 41.654L50 33.3811L48.3488 31.71Z" fill="#06D0FB"/>
<rect x="38" y="29" width="3" height="3" fill="#06D0FB"/>
<rect x="38" y="24" width="3" height="3" fill="#06D0FB"/>
<rect x="43" y="24" width="3" height="3" fill="#06D0FB"/>
</svg>
