<svg width="148" height="142" viewBox="0 0 148 142" fill="none" xmlns="http://www.w3.org/2000/svg">
<path fill-rule="evenodd" clip-rule="evenodd" d="M29.9679 125.861C29.3034 139.455 69.3595 149.417 103.168 133.416C113.483 128.534 118.389 120.797 127.5 110.565C154.895 100.554 149.952 83.4643 140.573 65.4036C138.291 57.7937 135.439 56.6058 134.401 35.0076C137.22 27.9758 129.213 24.5347 127.077 18.5513C122.562 5.90698 116.235 -5.89354 85.6234 3.81821C76.1963 14.0444 57.7959 11.2316 38.979 7.81356C24.3628 9.12181 0.154915 -6.73937 10.788 39.7652C13.0579 53.665 12.6077 66.3532 6.2819 76.4241C-1.68712 104.06 -8.8391 129.546 29.9679 125.861Z" fill="#1ADAFF" fill-opacity="0.33673" style="mix-blend-mode:lighten"/>
</svg>
