<svg width="77" height="77" viewBox="0 0 77 77" fill="none" xmlns="http://www.w3.org/2000/svg">
<path fill-rule="evenodd" clip-rule="evenodd" d="M0 75.75C0 70.9262 4.03843 67 9 67C13.9616 67 18 70.9262 18 75.75C18 76.4412 17.4253 77 16.7143 77H1.28571C0.574714 77 0 76.4412 0 75.75ZM7.71429 69.6375C5.20071 70.1363 3.213 72.0563 2.70129 74.5H15.2987C14.787 72.0563 12.7993 70.1375 10.2857 69.6375V72H7.71429V69.6375Z" fill="#00CFFD"/>
<path fill-rule="evenodd" clip-rule="evenodd" d="M75.7167 55.1833H73.4657C73.3951 55.005 73.322 54.8279 73.2424 54.6495L74.835 53.0569C75.3368 52.5551 75.3368 51.744 74.835 51.2422L69.3911 45.7983C69.1255 45.5327 68.7751 45.4172 68.4273 45.4338C70.4614 44.3546 71.8667 42.2409 71.8667 39.7833V6.41667C71.8667 2.87852 68.9881 0 65.45 0H6.41667C2.87852 0 0 2.87852 0 6.41667V39.7833C0 43.3215 2.87852 46.2 6.41667 46.2H23.1642L18.3157 55.1833H17.9667H16.0417C13.5648 55.1833 11.55 57.1982 11.55 59.675C11.55 62.1518 13.5648 64.1667 16.0417 64.1667H43.6333C43.6333 64.8764 44.207 65.45 44.9167 65.45H47.1676C47.2382 65.6284 47.3114 65.8055 47.3909 65.9839L45.7983 67.5765C45.2965 68.0783 45.2965 68.8893 45.7983 69.3911L51.2422 74.835C51.744 75.3368 52.5551 75.3368 53.0569 74.835L54.6495 73.2424C54.8279 73.322 55.005 73.3951 55.1833 73.4657V75.7167C55.1833 76.4264 55.757 77 56.4667 77H64.1667C64.8764 77 65.45 76.4264 65.45 75.7167V73.4657C65.6284 73.3951 65.8055 73.322 65.9839 73.2424L67.5765 74.835C68.0783 75.3368 68.8893 75.3368 69.3911 74.835L74.835 69.3911C75.3368 68.8893 75.3368 68.0783 74.835 67.5765L73.2424 65.9839C73.322 65.8055 73.3951 65.6284 73.4657 65.45H75.7167C76.4264 65.45 77 64.8764 77 64.1667V56.4667C77 55.757 76.4264 55.1833 75.7167 55.1833ZM2.56667 6.41667C2.56667 4.29403 4.29403 2.56667 6.41667 2.56667H65.45C67.5726 2.56667 69.3 4.29403 69.3 6.41667V33.3667H2.56667V6.41667ZM2.56667 39.7833C2.56667 41.906 4.29403 43.6333 6.41667 43.6333H25.315H46.5516H56.4667H64.1667H65.45C67.5726 43.6333 69.3 41.906 69.3 39.7833V35.9333H2.56667V39.7833ZM67.5598 45.815L65.9839 47.3909C65.8055 47.3114 65.6284 47.2382 65.45 47.1676V46.2C66.193 46.2 66.895 46.0486 67.5598 45.815ZM55.1833 47.1676V46.2H53.4585L54.6495 47.3909C54.8279 47.3114 55.005 47.2382 55.1833 47.1676ZM50.8392 46.2L49.733 47.3062L48.9797 46.2H50.8392ZM16.0417 61.6H43.6333V57.75H19.0806H17.9667H16.0417C14.9804 57.75 14.1167 58.6137 14.1167 59.675C14.1167 60.7363 14.9804 61.6 16.0417 61.6ZM21.2321 55.1821L26.0799 46.2H45.874L47.8863 49.153L45.7983 51.2409C45.2965 51.7427 45.2965 52.5538 45.7983 53.0556L47.3909 54.6482C47.3114 54.8266 47.2382 55.0037 47.1676 55.1821H44.9167H21.2321ZM72.561 62.8833H74.4333V57.75H72.561C72.0001 57.75 71.5061 57.3868 71.3354 56.8517C71.1403 56.2318 70.8772 55.6004 70.5525 54.9793C70.2933 54.4813 70.387 53.8743 70.7835 53.4778L72.1131 52.1483L68.4838 48.519L67.1543 49.8485C66.7564 50.2463 66.1507 50.3387 65.6528 50.0795C65.0316 49.7548 64.4002 49.4917 63.7804 49.2967C63.2465 49.1273 62.8833 48.6332 62.8833 48.0724V46.2H57.75V48.0724C57.75 48.6332 57.3868 49.1273 56.8517 49.298C56.2318 49.493 55.6004 49.7561 54.9793 50.0808C54.4813 50.34 53.8743 50.2476 53.4778 49.8498L52.1483 48.5203L48.519 52.1495L49.8485 53.4791C50.2451 53.8756 50.3387 54.4826 50.0795 54.9806C49.7548 55.6017 49.4917 56.2331 49.2967 56.853C49.1273 57.3868 48.6332 57.75 48.0724 57.75H46.2V62.8833H48.0724C48.6332 62.8833 49.1273 63.2465 49.298 63.7817C49.493 64.4015 49.7561 65.0329 50.0808 65.6541C50.34 66.152 50.2463 66.759 49.8498 67.1555L48.5203 68.4851L52.1495 72.1143L53.4791 70.7848C53.8756 70.3883 54.4826 70.2959 54.9806 70.5538C55.6017 70.8785 56.2331 71.1416 56.853 71.3367C57.3868 71.5061 57.75 72.0001 57.75 72.561V74.4333H62.8833V72.561C62.8833 72.0001 63.2465 71.5061 63.7817 71.3354C64.4015 71.1403 65.0329 70.8772 65.6541 70.5525C66.152 70.2946 66.7577 70.387 67.1555 70.7835L68.4851 72.1131L72.1143 68.4838L70.7848 67.1543C70.3883 66.7577 70.2946 66.1507 70.5538 65.6528C70.8785 65.0316 71.1416 64.4002 71.3367 63.7804C71.5061 63.2465 72.0001 62.8833 72.561 62.8833Z" fill="#00CFFD"/>
<path fill-rule="evenodd" clip-rule="evenodd" d="M53 60.5C53 56.3637 56.3637 53 60.5 53C64.6362 53 68 56.3637 68 60.5C68 64.6362 64.6362 68 60.5 68C56.3637 68 53 64.6362 53 60.5ZM55.5 60.5C55.5 63.2575 57.7425 65.5 60.5 65.5C63.2575 65.5 65.5 63.2575 65.5 60.5C65.5 57.7425 63.2575 55.5 60.5 55.5C57.7425 55.5 55.5 57.7425 55.5 60.5Z" fill="#00CFFD"/>
<path d="M25 9.8347L23.2137 8L14.3705 17.0827C13.8765 17.59 13.8765 18.41 14.3705 18.9173L23.2137 28L25 26.1653L17.05 18L25 9.8347Z" fill="#00CFFD"/>
<path d="M53.6295 17.0827L44.7863 8L43 9.8347L50.95 18L43 26.1653L44.7863 28L53.6295 18.9173C54.1235 18.41 54.1235 17.59 53.6295 17.0827Z" fill="#00CFFD"/>
<rect x="27.292" y="27.1804" width="26" height="2" transform="rotate(-63.4349 27.292 27.1804)" fill="#00CFFD"/>
<rect x="50" y="26" width="2" height="2" fill="#00CFFD"/>
<rect x="55" y="26" width="2" height="2" fill="#00CFFD"/>
<rect x="60" y="26" width="2" height="2" fill="#00CFFD"/>
</svg>
