<svg width="159" height="100" viewBox="0 0 159 100" fill="none" xmlns="http://www.w3.org/2000/svg">
<path fill-rule="evenodd" clip-rule="evenodd" d="M11.4276 33.6066C5.23669 38.027 -9.82624 63.0539 9.58368 89.9015C16.8416 102.161 22.5742 97.339 29.0822 96.7423C35.5901 96.1457 33.5409 93.3386 41.9599 93.1166C46.45 92.0512 55.4346 96.3942 62.4006 95.9733C69.3666 95.5524 69.7785 92.6241 75.2767 91.1035C85.2766 88.3377 89.6384 90.3488 105.189 98.8007C110.292 100.423 113.703 97.7931 116.361 91.1035C119.025 84.4 126.608 82.5804 130.495 82.1137C138.262 81.1813 122.381 57.9333 129.983 53.4379C143.676 45.3402 161.1 34.6746 158.793 25.0998C155.237 3.65716 135.118 2.59526 118.154 4.71316C109.736 5.76416 109.469 7.25742 105.51 8.36277C93.5746 11.6956 83.2528 0.0133119 55.489 3.54297C44.3701 1.99354 40.0187 -0.190664 33.3832 0.0133118C26.7477 0.217288 20.8793 2.62857 17.4215 4.71316C13.9638 6.79775 14.6098 8.99349 14.8531 11.1846C15.4515 16.5726 19.147 21.2419 18.946 23.3727C18.7451 25.5036 17.6184 29.1862 11.4276 33.6066Z" fill="#1ADAFF" fill-opacity="0.33673" style="mix-blend-mode:lighten"/>
</svg>
