<svg width="81" height="81" viewBox="0 0 81 81" fill="none" xmlns="http://www.w3.org/2000/svg">
<path fill-rule="evenodd" clip-rule="evenodd" d="M1.34285 51.4H6.71423V79.6545C6.71423 80.3969 7.31419 81 8.05708 81H16.1142C16.8571 81 17.457 80.3969 17.457 79.6545V66.3334L20.1696 79.918C20.2942 80.548 20.8449 81 21.4855 81H29.5426C29.9387 81 30.315 80.8252 30.5714 80.5211C30.8251 80.2169 30.9353 79.8162 30.8665 79.4246L25.5141 48.5935V32.5636H36.2569C36.6437 32.5636 37.0116 32.3955 37.2679 32.1051L46.6679 21.3414C47.134 20.8086 47.1059 20.0039 46.6062 19.5033L42.5777 15.4669C42.0525 14.9407 41.204 14.9407 40.6788 15.4669L33.0151 23.1455H22.6809C24.4263 21.4341 25.5141 19.0526 25.5141 16.4182C25.5141 11.2249 21.2961 7 16.1142 7C10.9323 7 6.71423 11.2249 6.71423 16.4182C6.71423 19.0526 7.80202 21.4341 9.54877 23.1455H9.39993C4.21803 23.1455 0 27.3704 0 32.5636V50.0545C0 50.7969 0.599953 51.4 1.34285 51.4ZM9.39993 16.4182C9.39993 12.709 12.4122 9.69091 16.1142 9.69091C19.8162 9.69091 22.8284 12.709 22.8284 16.4182C22.8284 20.1274 19.8162 23.1455 16.1142 23.1455C12.4122 23.1455 9.39993 20.1274 9.39993 16.4182ZM9.39993 25.8364C5.69792 25.8364 2.68569 28.8544 2.68569 32.5636V48.7091H6.71423V32.5636H9.39993V78.3091H14.7713V52.7455C14.7713 52.0537 15.2952 51.4756 15.9811 51.4066C16.6564 51.333 17.2944 51.8034 17.4301 52.482L22.5864 78.3091H27.9473L22.8487 48.939C22.8349 48.8641 22.8284 48.7873 22.8284 48.7091V31.2182C22.8284 30.4758 23.4283 29.8727 24.1712 29.8727H35.6471L43.8195 20.515L41.6282 18.3207L34.5206 25.4422C34.2695 25.6951 33.9285 25.8364 33.5712 25.8364H9.39993Z" fill="#06D0FB"/>
<path fill-rule="evenodd" clip-rule="evenodd" d="M77.3333 37.3636C77.3333 36.6112 76.7376 36 76 36H68C67.2624 36 66.6667 36.6112 66.6667 37.3636V45.5455H60C59.2624 45.5455 58.6667 46.1567 58.6667 46.9091V56.4545H52C51.2624 56.4545 50.6667 57.0658 50.6667 57.8182V66H44C43.2624 66 42.6667 66.6112 42.6667 67.3636V78.2727H40V81H80V78.2727H77.3333V37.3636ZM45.3333 68.7273H50.6667V78.2727H45.3333V68.7273ZM53.3333 59.1818V67.3636V78.2727H58.6667V59.1818H53.3333ZM61.3333 57.8182V48.2727H66.6667V78.2727H61.3333V57.8182ZM69.3333 38.7273V78.2727H74.6667V38.7273H69.3333Z" fill="#06D0FB"/>
<path d="M31 55.3334V58C45.116 58 56.7708 47.6454 58.331 34.3669L63.0541 38.943L65 37.0577L58.1194 30.3911C57.5811 29.8696 56.7117 29.8696 56.1734 30.3911L49.2928 37.0577L51.2387 38.943L55.476 34.8376C53.7155 46.4123 43.4261 55.3334 31 55.3334Z" fill="#06D0FB"/>
<path fill-rule="evenodd" clip-rule="evenodd" d="M81 15C81 23.2704 74.2704 30 66 30C57.7296 30 51 23.2704 51 15C51 6.72963 57.7296 0 66 0C74.2704 0 81 6.72963 81 15ZM78.2727 15C78.2727 8.23375 72.7676 2.72727 66 2.72727C59.2324 2.72727 53.7273 8.23375 53.7273 15C53.7273 21.7662 59.2324 27.2727 66 27.2727C72.7676 27.2727 78.2727 21.7662 78.2727 15Z" fill="#06D0FB"/>
<path d="M66 19.9286C65.2643 19.9286 64.6667 19.3189 64.6667 18.5714H62C62 20.3381 63.1185 21.8311 64.6667 22.393V24H67.3333V22.393C68.8815 21.8311 70 20.3381 70 18.5714V17.2143C70 14.9698 68.2051 13.1429 66 13.1429C65.2643 13.1429 64.6667 12.5332 64.6667 11.7857V10.4286C64.6667 9.68108 65.2643 9.07143 66 9.07143C66.7357 9.07143 67.3333 9.68108 67.3333 10.4286H70C70 8.6619 68.8815 7.16891 67.3333 6.60697V5H64.6667V6.60697C63.1185 7.16891 62 8.6619 62 10.4286V11.7857C62 14.0302 63.7949 15.8571 66 15.8571C66.7357 15.8571 67.3333 16.4668 67.3333 17.2143V18.5714C67.3333 19.3189 66.7357 19.9286 66 19.9286Z" fill="#06D0FB"/>
<path d="M14.25 43H16.75V30.7273H18V28H13V30.7273H14.25V43Z" fill="#06D0FB"/>
<path d="M34 5H36V7H34V5Z" fill="#06D0FB"/>
<path d="M39 5H41V7H39V5Z" fill="#06D0FB"/>
<path d="M45 5H47V7H45V5Z" fill="#06D0FB"/>
</svg>
