<svg width="18" height="33" viewBox="0 0 18 33" fill="none" xmlns="http://www.w3.org/2000/svg">
<path fill-rule="evenodd" clip-rule="evenodd" d="M11.1183 33H6.03968C5.19139 33 4.50133 32.282 4.50133 31.3992V19.4794H1.53835C0.690056 19.4794 0 18.7611 0 17.8787V12.771C0 11.8883 0.690056 11.1703 1.53835 11.1703H4.50133V8.61255C4.50133 6.07647 5.26663 3.9188 6.71425 2.37318C8.1684 0.820518 10.2006 0 12.5911 0L16.4643 0.00654599C17.3112 0.00805664 18 0.726105 18 1.6073V6.34964C18 7.23235 17.3102 7.95039 16.4621 7.95039L13.8543 7.9514C13.059 7.9514 12.8565 8.11732 12.8132 8.16817C12.7418 8.25252 12.6569 8.49094 12.6569 9.14932V11.17H16.2662C16.5379 11.17 16.8011 11.2398 17.0273 11.3712C17.5154 11.6549 17.8188 12.1915 17.8188 12.7713L17.8168 17.8789C17.8168 18.7611 17.1268 19.4792 16.2785 19.4792H12.6569V31.3992C12.6569 32.282 11.9666 33 11.1183 33ZM6.36051 31.0654H10.7975V18.6134C10.7975 18.024 11.2584 17.5446 11.8246 17.5446H15.9577L15.9594 13.1049H11.8243C11.2582 13.1049 10.7975 12.6255 10.7975 12.0361V9.14932C10.7975 8.39351 10.8713 7.53397 11.4195 6.88792C12.082 6.10693 13.1261 6.0168 13.8539 6.0168L16.1408 6.01579V1.94064L12.5896 1.9346C8.74788 1.9346 6.36051 4.49359 6.36051 8.61255V12.0361C6.36051 12.6253 5.89983 13.1049 5.33366 13.1049H1.85918V17.5446H5.33366C5.89983 17.5446 6.36051 18.024 6.36051 18.6134V31.0654Z" fill="#020F3E"/>
</svg>
