<svg width="29" height="33" viewBox="0 0 29 33" fill="none" xmlns="http://www.w3.org/2000/svg">
<path fill-rule="evenodd" clip-rule="evenodd" d="M1.15628 10H6.84398C7.48132 10 8 10.5024 8 11.1199V31.8804C8 32.4976 7.48132 33 6.84398 33H1.15628C0.518678 33 0 32.4976 0 31.8804V11.1199C0 10.5024 0.518678 10 1.15628 10ZM1.97973 31.0826H6.02027V11.9174H1.97973V31.0826Z" fill="#020F3E"/>
<path fill-rule="evenodd" clip-rule="evenodd" d="M0 3.99987C0 1.79429 1.79429 0 4.00013 0C6.20571 0 8 1.79429 8 3.99987C8 6.20571 6.20546 8 4.00013 8C1.79429 8 0 6.20571 0 3.99987ZM1.96356 3.99987C1.96356 5.12296 2.87704 6.03644 4.00013 6.03644C5.12296 6.03644 6.03644 5.12271 6.03644 3.99987C6.03644 2.87704 5.12296 1.96356 4.00013 1.96356C2.87704 1.96356 1.96356 2.87704 1.96356 3.99987Z" fill="#020F3E"/>
<path fill-rule="evenodd" clip-rule="evenodd" d="M20.7881 10.7786C22.5062 10.7467 24.1772 11.3346 25.4915 12.4338C27.7212 14.2983 29 17.0353 29 19.9422V32.0614C29 32.5797 28.5804 33 28.0631 33H22.5763C22.059 33 21.6394 32.5797 21.6394 32.0614V19.562C21.6394 18.4633 20.7312 17.5735 19.6273 17.6062C18.5652 17.6378 17.7336 18.5388 17.7336 19.6036V32.0414C17.7336 32.5707 17.3051 33 16.7765 33H11.0675C10.478 33 10 32.5213 10 31.9305V11.0695C10 10.4789 10.478 10 11.0675 10H16.666C17.2555 10 17.7336 10.4789 17.7336 11.0695V11.5228C18.6784 11.0561 19.7211 10.7983 20.7881 10.7786ZM23.5535 31.0826H27.0861V19.9422C27.0861 17.6052 26.0582 15.405 24.2652 13.9057C23.3042 13.1019 22.0824 12.6716 20.8235 12.6955C19.5658 12.719 18.3539 13.1922 17.4111 14.0283C17.0154 14.3794 16.4105 14.3425 16.0604 13.9461C15.8991 13.7633 15.8207 13.5364 15.821 13.3106H15.8197V11.9172H11.9139V31.0826H15.8197V19.562C15.8197 17.4259 17.5544 15.688 19.6865 15.688C21.8189 15.688 23.5535 17.4259 23.5535 19.562V31.0826Z" fill="#020F3E"/>
</svg>
