<svg width="35" height="29" viewBox="0 0 35 29" fill="none" xmlns="http://www.w3.org/2000/svg">
<path fill-rule="evenodd" clip-rule="evenodd" d="M0.650199 26.1904C2.85906 27.9758 7.47598 29 13.3175 29C23.6195 29 32.025 19.9584 32.2346 8.75625C33.4896 7.93943 34.4387 6.63808 34.9327 5.04034L34.9484 4.98433C35.095 4.3953 34.923 3.7473 34.5105 3.33326C34.374 3.19632 34.2125 3.08618 34.036 3.00498C34.1543 2.75361 34.2605 2.49661 34.3543 2.23479C34.601 1.59537 34.472 0.937459 34.0071 0.470894C33.5329 -0.00505146 32.7892 -0.135025 32.186 0.149041C30.8968 0.703506 29.6543 1.22796 28.623 1.56669C27.4209 0.919236 25.4331 0.00111225 23.8307 0.00111225H23.8163C21.6199 0.0321988 19.5614 0.942551 18.0199 2.56495C16.7245 3.92846 15.9216 5.661 15.7055 7.52485C10.8672 6.45773 8.06879 4.89804 4.94455 1.61091L4.54908 1.21349C4.27484 0.938263 3.88231 0.811237 3.49939 0.87341C3.11647 0.935851 2.78429 1.18079 2.61046 1.52944L2.39336 1.96519C1.45502 3.76982 1.16022 5.62134 1.51751 7.46831C1.64622 8.13479 1.86331 8.79725 2.16185 9.44257C1.88494 9.449 1.6091 9.52484 1.35515 9.67116C0.749801 9.99944 0.419487 10.7619 0.567154 11.5034L0.5765 11.55L0.590118 11.5956C1.02511 13.0617 1.80189 14.448 2.85345 15.6663C2.67454 15.7234 2.50551 15.8086 2.35598 15.9214C1.74982 16.3778 1.52285 17.1432 1.78587 17.8335C2.568 20.0471 3.88258 21.5765 5.77501 22.4598C4.5886 22.8068 3.28123 22.9856 1.78694 23.0116C1.06089 23.0158 0.390915 23.4779 0.117477 24.1642L0.0969163 24.2204C-0.128456 24.8985 0.0435106 25.5896 0.568222 26.1165L0.607208 26.1556L0.650199 26.1904ZM13.3175 26.94C8.66666 26.94 4.69995 26.225 2.61847 25.0432C5.026 24.9153 7.0223 24.3938 8.84878 23.4221C9.3062 23.1785 9.55907 22.6704 9.47763 22.1578C9.39645 21.6451 8.99911 21.2407 8.48882 21.1515C6.34592 20.7774 4.95497 19.7984 4.08445 18.0192C4.56938 18.2103 5.09622 18.3237 5.6909 18.3679C6.2367 18.4086 6.74165 18.0755 6.92243 17.558C7.10294 17.0413 6.91496 16.4644 6.46501 16.1548C4.91251 15.0872 3.6775 13.6395 2.95946 12.0742C3.31194 12.2578 3.68364 12.4006 4.08792 12.5094C4.60516 12.6485 5.14322 12.4352 5.42627 11.9788C5.71039 11.5208 5.66339 10.9403 5.30931 10.5346C4.37765 9.46561 3.76322 8.26959 3.53224 7.07597C3.30446 5.89763 3.43905 4.70429 3.93171 3.51952C7.36944 6.98646 10.6753 8.64048 16.254 9.74352C16.6108 9.81427 16.9761 9.72154 17.257 9.49C17.5376 9.25819 17.6989 8.91624 17.6989 8.55151C17.6989 5.02319 20.4517 2.11312 23.8374 2.06113C24.7549 2.06381 26.2767 2.60997 27.9106 3.52354C28.2153 3.69424 28.587 3.73391 28.9205 3.63261C29.8383 3.3531 30.8955 2.93236 32.0087 2.46311C31.8725 2.71395 31.7198 2.95647 31.5513 3.18962C31.2391 3.62135 31.2426 4.1994 31.5601 4.62737C31.8333 4.99559 32.2789 5.17219 32.7174 5.10278C32.2923 6.03725 31.6386 6.76806 30.8314 7.1971C30.4335 7.40881 30.1862 7.82017 30.1862 8.27093V8.32694C30.1862 13.3045 28.415 17.9881 25.1987 21.5151C22.0085 25.0134 17.7889 26.94 13.3175 26.94Z" fill="#020F3E"/>
</svg>
