<svg width="29" height="29" viewBox="0 0 29 29" fill="none" xmlns="http://www.w3.org/2000/svg">
<path fill-rule="evenodd" clip-rule="evenodd" d="M14.9368 0C18.6936 0 22.2246 1.4627 24.8809 4.11906C27.5373 6.77519 29 10.3068 29 14.0635C29 17.8199 27.5371 21.3515 24.8809 24.0077C22.2246 26.6638 18.6932 28.1267 14.9368 28.1267C12.6966 28.1267 10.4703 27.5862 8.4868 26.562L1.73374 28.9257C1.59081 28.9757 1.44434 29 1.29942 29C0.961345 29 0.632564 28.8672 0.38277 28.6172C0.0256686 28.2604 -0.0922589 27.7426 0.0743441 27.2663L2.43821 20.5132C1.41403 18.5297 0.873508 16.3034 0.873508 14.0632C0.873508 10.3068 2.33621 6.77519 4.99234 4.11906C6.30636 2.80504 7.84097 1.77909 9.5539 1.06953C11.2666 0.359978 13.0773 0.000221252 14.9354 0H14.9368ZM14.9368 26.4257C18.2387 26.4257 21.3433 25.14 23.6782 22.8049C26.0133 20.4701 27.2992 17.3654 27.2992 14.0632C27.2992 10.7611 26.0133 7.65666 23.6782 5.32178C21.3433 2.98669 18.2389 1.70077 14.9368 1.70077H14.9356C11.6339 1.70121 8.52973 2.98713 6.19507 5.32178C3.86019 7.65666 2.57428 10.7613 2.57428 14.0632C2.57428 16.0835 3.07408 18.0903 4.0195 19.8665C4.19075 20.1884 4.22039 20.5692 4.1007 20.9115L1.95322 27.0468L8.08855 24.8995C8.43038 24.7798 8.81116 24.8093 9.1333 24.9805C10.91 25.9261 12.9167 26.4257 14.9368 26.4257Z" fill="#020F3E"/>
<path fill-rule="evenodd" clip-rule="evenodd" d="M17.3665 14.6768C17.999 14.0443 19.0282 14.0443 19.6606 14.6768L21.5248 16.5412C21.8313 16.8475 22 17.2549 22 17.6884C22 18.1217 21.8313 18.529 21.5248 18.8355V18.8353L20.0336 20.3268C19.5852 20.7752 18.9674 21 18.2196 21C17.5428 21 16.7595 20.8159 15.8984 20.4469C14.3248 19.7724 12.5952 18.5381 11.0285 16.9713C9.46179 15.4045 8.22755 13.6748 7.5531 12.1011C6.77635 10.2885 6.81896 8.81994 7.67315 7.96569L9.16437 6.47439C9.79685 5.84187 10.826 5.84187 11.4585 6.47439L13.3226 8.33863C13.9553 8.97114 13.9553 10.0004 13.3226 10.6329L12.6309 11.3247C13.5671 13.0425 14.9571 14.4326 16.6747 15.3686L17.3665 14.6768ZM16.5536 18.9186C17.8642 19.4801 18.6139 19.3947 18.8577 19.1509L20.3204 17.6884L18.5136 15.8815L17.6477 16.7474C17.2562 17.1391 16.6624 17.2335 16.1699 16.9823C13.9376 15.8438 12.1559 14.062 11.0175 11.8296C10.7663 11.3372 10.8609 10.7434 11.2524 10.3519L12.1183 9.48577L10.3117 7.67885L8.84899 9.1416C8.60522 9.38539 8.51978 10.1354 9.08152 11.446C9.67464 12.8301 10.7836 14.3746 12.2043 15.7954C13.625 17.2161 15.1697 18.3254 16.5536 18.9186Z" fill="#020F3E"/>
</svg>
