<svg width="122" height="97" viewBox="0 0 122 97" fill="none" xmlns="http://www.w3.org/2000/svg">
<path opacity="0.147362" fill-rule="evenodd" clip-rule="evenodd" d="M114.487 96.5982C119.496 82.2873 122 68.0959 122 54.0235C122 37.8044 117.707 24.7459 109.12 14.8475C100.534 4.94912 88.0118 0 71.5543 0V22.5396C84.1956 22.5396 90.5161 30.649 90.5161 46.868V52.2346H67.6188V96.5982H114.487ZM46.868 96.5982C51.6383 82.0488 54.0235 67.8574 54.0235 54.0235C54.0235 37.8044 49.7899 24.7459 41.3226 14.8475C32.8553 4.94912 20.393 0 3.93549 0V22.5396C16.3383 22.5396 22.5396 30.649 22.5396 46.868V52.2346H0V96.5982H46.868Z" fill="#3E61FF"/>
</svg>
