<svg width="750" height="1080" viewBox="0 0 750 1080" fill="none" xmlns="http://www.w3.org/2000/svg">
<path fill-rule="evenodd" clip-rule="evenodd" d="M-3 -80H750V1160H-3V-80ZM426.677 289.995L362.422 252.876L293.723 292.523L357.707 328.866L426.677 289.995ZM426.226 376.456L293 300.774V370.444L364.861 411.698L426.226 376.456ZM572.295 292.523L433 212.146L369.955 248.543L509.034 328.866L572.295 292.523ZM293 379.128V454.504L361.465 494.006L427.057 456.093L293 379.128ZM433 535.278L573 454.504V380.446L368.997 498.357L433 535.278ZM434.59 451.742L573 371.744V300.81L372.43 416.049L434.59 451.742Z" fill="white"/>
</svg>
