<svg width="280" height="227" viewBox="0 0 280 227" fill="none" xmlns="http://www.w3.org/2000/svg">
<path fill-rule="evenodd" clip-rule="evenodd" d="M12.0349 132.774V182.508H0V132.774H12.0349ZM64.5382 182.508H52.5033L32.3747 151.978V182.508H20.3397V132.774H32.3747L52.5033 163.585V132.774H64.5382V182.508ZM129.921 132.774L112.678 165.977V182.508H100.573V165.977L83.3296 132.774H97.1241L106.696 153.033L116.267 132.774H129.921ZM158.214 132C162.906 132 167.164 133.09 170.988 135.271C174.812 137.452 177.826 140.477 180.031 144.346C182.237 148.215 183.339 152.588 183.339 157.465C183.339 162.342 182.225 166.727 179.996 170.619C177.768 174.512 174.741 177.548 170.917 179.729C167.093 181.91 162.859 183 158.214 183C153.569 183 149.334 181.91 145.51 179.729C141.686 177.548 138.66 174.512 136.431 170.619C134.202 166.727 133.088 162.342 133.088 157.465C133.088 152.588 134.202 148.215 136.431 144.346C138.66 140.477 141.686 137.452 145.51 135.271C149.334 133.09 153.569 132 158.214 132ZM158.214 143.185C154.272 143.185 151.141 144.463 148.818 147.019C146.495 149.574 145.334 153.057 145.334 157.465C145.334 161.826 146.495 165.297 148.818 167.876C151.141 170.455 154.272 171.745 158.214 171.745C162.108 171.745 165.228 170.455 167.574 167.876C169.92 165.297 171.093 161.826 171.093 157.465C171.093 153.103 169.932 149.633 167.609 147.054C165.287 144.474 162.155 143.185 158.214 143.185ZM201.779 132.774V161.474C201.779 164.757 202.518 167.266 203.996 169.001C205.474 170.737 207.62 171.604 210.435 171.604C213.251 171.604 215.397 170.737 216.875 169.001C218.353 167.266 219.092 164.757 219.092 161.474V132.774H231.127V161.474C231.127 166.164 230.212 170.115 228.382 173.328C226.552 176.54 224.054 178.955 220.887 180.573C217.72 182.191 214.142 183 210.154 183C206.166 183 202.647 182.203 199.597 180.608C196.547 179.014 194.154 176.599 192.418 173.363C190.682 170.127 189.814 166.164 189.814 161.474V132.774H201.779ZM264.698 182.508L253.93 163.726H251.185V182.508H239.15V132.774H259.701C263.643 132.774 266.974 133.454 269.695 134.814C272.417 136.174 274.458 138.038 275.818 140.406C277.179 142.774 277.859 145.483 277.859 148.531C277.859 152.142 276.862 155.214 274.868 157.746C272.874 160.279 269.977 162.014 266.176 162.952L278 182.508H264.698ZM251.185 155.495H258.646C261.038 155.495 262.798 154.968 263.924 153.912C265.05 152.857 265.613 151.298 265.613 149.234C265.613 147.265 265.038 145.717 263.889 144.592C262.739 143.466 260.992 142.903 258.646 142.903H251.185V155.495Z" fill="#020F3E"/>
<path fill-rule="evenodd" clip-rule="evenodd" d="M8.00787 195.311L15.5782 218.922L23.1484 195.311H31.1563L20.3916 226.689H10.7209L0 195.311H8.00787ZM53.2108 220.964H41.6147L39.6893 226.689H31.8127L43.1462 195.533H51.7667L63.1003 226.689H55.1362L53.2108 220.964ZM51.2854 215.194L47.4346 203.655L43.5401 215.194H51.2854ZM73.4711 220.875H83.4481V226.689H65.9883V195.311H73.4711V220.875ZM94.1691 195.311V213.419C94.1691 215.49 94.6285 217.073 95.5475 218.168C96.4664 219.263 97.801 219.81 99.5514 219.81C101.302 219.81 102.636 219.263 103.555 218.168C104.474 217.073 104.934 215.49 104.934 213.419V195.311H112.416V213.419C112.416 216.378 111.848 218.871 110.71 220.897C109.572 222.924 108.019 224.448 106.05 225.469C104.08 226.49 101.856 227 99.3764 227C96.8967 227 94.7088 226.497 92.8125 225.491C90.9163 224.485 89.4285 222.961 88.3491 220.92C87.2697 218.878 86.73 216.378 86.73 213.419V195.311H94.1691ZM124.888 201.347V207.915H135.346V213.641H124.888V220.609H136.659V226.689H117.405V195.311H136.659V201.347H124.888ZM155.038 195C158.976 195 162.236 196.05 164.818 198.151C167.4 200.252 169.07 203.092 169.828 206.673H161.908C161.324 205.223 160.427 204.084 159.217 203.255C158.006 202.427 156.569 202.012 154.906 202.012C152.718 202.012 150.953 202.826 149.612 204.454C148.27 206.081 147.599 208.256 147.599 210.978C147.599 213.7 148.27 215.867 149.612 217.48C150.953 219.092 152.718 219.899 154.906 219.899C156.569 219.899 158.006 219.485 159.217 218.656C160.427 217.828 161.324 216.703 161.908 215.283H169.828C169.07 218.834 167.4 221.667 164.818 223.782C162.236 225.898 158.976 226.956 155.038 226.956C152.033 226.956 149.393 226.282 147.117 224.936C144.842 223.59 143.084 221.704 141.844 219.277C140.604 216.851 139.985 214.085 139.985 210.978C139.985 207.871 140.604 205.104 141.844 202.678C143.084 200.252 144.842 198.366 147.117 197.019C149.393 195.673 152.033 195 155.038 195ZM200.766 195.311V226.689H193.239V213.596H181.512V226.689H174.029V195.311H181.512V207.472H193.239V195.311H200.766ZM225.096 220.964H213.499L211.574 226.689H203.697L215.031 195.533H223.652L234.985 226.689H227.021L225.096 220.964ZM223.17 215.194L219.319 203.655L215.425 215.194H223.17ZM245.356 195.311V226.689H237.873V195.311H245.356ZM278 226.689H270.517L258.002 207.427V226.689H250.519V195.311H258.002L270.517 214.75V195.311H278V226.689Z" fill="#020F3E"/>
<path fill-rule="evenodd" clip-rule="evenodd" d="M50.3472 56.9862V69.1793H32.8984V120.372H17.2671V69.1793H0V56.9862H50.3472ZM89.8798 120.372L75.9752 96.4345H72.4309V120.372H56.8906V56.9862H83.4274C88.5166 56.9862 92.8182 57.8529 96.3322 59.5862C99.8463 61.3195 102.482 63.6954 104.239 66.7138C105.996 69.7322 106.874 73.1839 106.874 77.069C106.874 81.6713 105.587 85.5862 103.012 88.8138C100.437 92.0414 96.6958 94.2529 91.7883 95.4483L107.056 120.372H89.8798ZM72.4309 85.9448H82.0642C85.1541 85.9448 87.4261 85.2724 88.8801 83.9276C90.3342 82.5828 91.0612 80.5954 91.0612 77.9655C91.0612 75.4552 90.3191 73.4828 88.8347 72.0483C87.3503 70.6138 85.0935 69.8966 82.0642 69.8966H72.4309V85.9448ZM129.776 56.9862V93.5655C129.776 97.7494 130.73 100.947 132.639 103.159C134.547 105.37 137.319 106.476 140.954 106.476C144.589 106.476 147.361 105.37 149.27 103.159C151.178 100.947 152.132 97.7494 152.132 93.5655V56.9862H167.673V93.5655C167.673 99.5426 166.491 104.578 164.128 108.672C161.765 112.767 158.539 115.845 154.45 117.907C150.36 119.969 145.74 121 140.591 121C135.441 121 130.897 119.984 126.959 117.952C123.021 115.92 119.931 112.841 117.689 108.717C115.447 104.593 114.326 99.5426 114.326 93.5655V56.9862H129.776ZM224.2 102.531C224.2 105.878 223.336 108.956 221.61 111.766C219.883 114.575 217.338 116.816 213.976 118.49C210.613 120.163 206.539 121 201.752 121C194.543 121 188.605 119.267 183.94 115.8C179.275 112.333 176.73 107.492 176.306 101.276H192.846C193.089 103.667 193.952 105.549 195.436 106.924C196.921 108.299 198.814 108.986 201.116 108.986C203.116 108.986 204.691 108.448 205.842 107.372C206.993 106.297 207.569 104.862 207.569 103.069C207.569 101.455 207.039 100.11 205.978 99.0345C204.918 97.9586 203.6 97.077 202.025 96.3897C200.45 95.7023 198.269 94.8805 195.482 93.9241C191.422 92.5494 188.105 91.2195 185.53 89.9345C182.956 88.6494 180.744 86.7368 178.896 84.1966C177.048 81.6563 176.124 78.354 176.124 74.2897C176.124 70.5241 177.094 67.2667 179.033 64.5172C180.971 61.7678 183.652 59.6609 187.075 58.1966C190.499 56.7322 194.421 56 198.844 56C205.994 56 211.673 57.6735 215.884 61.0207C220.095 64.3678 222.473 68.9701 223.018 74.8276H206.206C205.903 72.7356 205.13 71.077 203.888 69.8517C202.646 68.6264 200.965 68.0138 198.844 68.0138C197.027 68.0138 195.558 68.4919 194.437 69.4483C193.316 70.4046 192.755 71.8092 192.755 73.6621C192.755 75.1563 193.255 76.4264 194.255 77.4724C195.255 78.5184 196.512 79.3701 198.026 80.0276C199.541 80.6851 201.722 81.5218 204.57 82.5379C208.69 83.9127 212.052 85.2724 214.657 86.6172C217.263 87.9621 219.504 89.9195 221.382 92.4897C223.261 95.0598 224.2 98.4069 224.2 102.531ZM279 56.9862V69.1793H261.551V120.372H245.92V69.1793H228.653V56.9862H279Z" fill="#3E61FF"/>
<path fill-rule="evenodd" clip-rule="evenodd" d="M26.0866 21.3592C28.7117 21.9695 30.7932 23.2307 32.3314 25.1429C33.8695 27.055 34.6385 29.2723 34.6385 31.7947C34.6385 35.497 33.3978 38.3856 30.9163 40.4605C28.4348 42.5354 24.8766 43.5728 20.2417 43.5728H0V0.427184H19.7495C24.1793 0.427184 27.6042 1.38325 30.0242 3.29542C32.4442 5.20759 33.6541 7.93341 33.6541 11.473C33.6541 14.0768 32.9569 16.2432 31.5623 17.9723C30.1677 19.7013 28.3425 20.8303 26.0866 21.3592ZM10.5208 18.0638H17.4116C21.0621 18.0638 22.8873 16.5178 22.8873 13.4258C22.8873 10.3338 21.021 8.7878 17.2885 8.7878H10.5208V18.0638ZM18.0268 35.0902C21.9234 35.0902 23.8717 33.5035 23.8717 30.3301C23.8717 28.7841 23.359 27.5737 22.3336 26.699C21.3081 25.8243 19.8521 25.387 17.9653 25.387H10.5208V35.0902H18.0268ZM50.3889 0.427184V25.3259C50.3889 28.1738 51.0349 30.3504 52.327 31.8558C53.619 33.3611 55.4955 34.1137 57.9565 34.1137C60.4175 34.1137 62.294 33.3611 63.586 31.8558C64.8781 30.3504 65.5241 28.1738 65.5241 25.3259V0.427184H76.0448V25.3259C76.0448 29.3944 75.245 32.822 73.6454 35.6089C72.0457 38.3958 69.8616 40.491 67.0929 41.8946C64.3243 43.2982 61.1968 44 57.7104 44C54.224 44 51.1477 43.3084 48.4817 41.9251C45.8156 40.5418 43.7237 38.4466 42.2061 35.6394C40.6885 32.8322 39.9297 29.3944 39.9297 25.3259V0.427184H50.3889ZM93.5794 0.427184V43.5728H83.0587V0.427184H93.5794ZM111.36 35.5784H125.388V43.5728H100.839V0.427184H111.36V35.5784ZM169.378 21.9085C169.378 26.1396 168.466 29.8927 166.64 33.1678C164.815 36.4429 162.19 38.9958 158.765 40.8266C155.34 42.6574 151.31 43.5728 146.675 43.5728H130.248V0.427184H146.675C151.351 0.427184 155.391 1.32223 158.796 3.11234C162.2 4.90246 164.815 7.42486 166.64 10.6796C168.466 13.9344 169.378 17.6773 169.378 21.9085ZM145.753 34.2358C149.854 34.2358 153.043 33.1577 155.32 31.0014C157.596 28.8451 158.734 25.8142 158.734 21.9085C158.734 18.0028 157.596 14.9718 155.32 12.8155C153.043 10.6593 149.854 9.58114 145.753 9.58114H140.769V34.2358H145.753ZM185.867 0.427184V43.5728H175.346V0.427184H185.867ZM231.764 43.5728H221.244L203.648 17.0874V43.5728H193.127V0.427184H203.648L221.244 27.1567V0.427184H231.764V43.5728ZM259.389 0C264.844 0 269.336 1.32222 272.863 3.96671C276.391 6.6112 278.585 10.1914 279.446 14.7074H268.31C267.572 13.1613 266.444 11.9307 264.926 11.0153C263.409 10.0999 261.584 9.64216 259.451 9.64216C256.128 9.64216 253.462 10.7508 251.452 12.9681C249.443 15.1854 248.438 18.1858 248.438 21.9695C248.438 26.0786 249.494 29.2316 251.606 31.4286C253.719 33.6255 256.723 34.724 260.62 34.724C263.122 34.724 265.316 34.0425 267.203 32.6796C269.09 31.3167 270.423 29.374 271.202 26.8516H257.913V19.3454H280V29.6588C279.18 32.1812 277.867 34.5206 276.062 36.6768C274.258 38.8331 271.951 40.5825 269.141 41.9251C266.331 43.2677 263.122 43.939 259.512 43.939C255.123 43.939 251.288 43.0134 248.007 41.1623C244.726 39.3111 242.193 36.7175 240.409 33.3814C238.624 30.0453 237.732 26.2414 237.732 21.9695C237.732 17.6976 238.624 13.8937 240.409 10.5576C242.193 7.22144 244.715 4.62784 247.976 2.7767C251.237 0.925557 255.041 0 259.389 0Z" fill="#020F3E"/>
</svg>
