<svg width="29" height="29" viewBox="0 0 29 29" fill="none" xmlns="http://www.w3.org/2000/svg">
<path fill-rule="evenodd" clip-rule="evenodd" d="M7.85004 0H21.15C25.4785 0 29 3.52145 29 7.85004V21.1502C29 25.4785 25.4785 29 21.1502 29H7.85004C3.52145 29 0 25.4785 0 21.1502V7.85004C0 3.52145 3.52145 0 7.85004 0ZM21.15 27.2999C24.5411 27.2999 27.2999 24.5411 27.2999 21.1502V7.85004C27.2999 4.4589 24.5411 1.7001 21.1502 1.7001H7.85004C4.4589 1.7001 1.7001 4.4589 1.7001 7.85004V21.1502C1.7001 24.5411 4.4589 27.2999 7.85004 27.2999H21.15Z" fill="white"/>
<path fill-rule="evenodd" clip-rule="evenodd" d="M7 15C7 10.5887 10.5887 7 15 7C19.4113 7 23 10.5887 23 15C23 19.4113 19.4113 23 15 23C10.5887 23 7 19.4113 7 15ZM8.71523 15C8.71523 18.4655 11.5347 21.2848 15 21.2848C18.4655 21.2848 21.2848 18.4655 21.2848 15C21.2848 11.5347 18.4655 8.71523 15 8.71523C11.5347 8.71523 8.71523 11.5347 8.71523 15Z" fill="white"/>
<path fill-rule="evenodd" clip-rule="evenodd" d="M20 6.49988C20 5.12152 21.1213 4 22.4999 4C23.8785 4 25 5.12129 25 6.49988C25 7.87848 23.8785 9 22.4999 9C21.1213 9 20 7.87848 20 6.49988ZM21.8139 6.49988C21.8139 6.87805 22.1217 7.18587 22.4999 7.18587C22.8783 7.18587 23.1861 6.87805 23.1861 6.49988C23.1861 6.12148 22.8783 5.81389 22.4999 5.81389C22.1217 5.81389 21.8139 6.12148 21.8139 6.49988Z" fill="white"/>
</svg>
