<svg width="38" height="29" viewBox="0 0 38 29" fill="none" xmlns="http://www.w3.org/2000/svg">
<path fill-rule="evenodd" clip-rule="evenodd" d="M16.1869 8.18828L24.2313 12.7079C24.7075 12.9755 25.0019 13.4875 25 14.0446C24.9978 14.6018 24.6997 15.1115 24.2221 15.3754L16.1774 19.8171C15.9566 19.9392 15.7166 20 15.4771 20C15.2157 20 14.9548 19.9275 14.7195 19.7832C14.2689 19.5068 14 19.0198 14 18.481V9.51929C14 8.97787 14.2706 8.49008 14.7242 8.21395C15.1776 7.9381 15.7243 7.9284 16.1869 8.18828ZM16.1338 10.6558V17.3537L22.1461 14.0338L16.1338 10.6558Z" fill="white"/>
<path fill-rule="evenodd" clip-rule="evenodd" d="M37.7185 6.82702L37.7202 6.84454C37.7315 6.97307 37.9997 10.0257 38 13.0905V15.9556C38 19.0205 37.7315 22.0731 37.7202 22.2016L37.7159 22.2408C37.6788 22.5419 37.3144 25.2244 36.0547 26.6041C34.5432 28.2798 32.8384 28.4621 32.0189 28.5498L32.0182 28.5499C31.9399 28.558 31.8686 28.5656 31.8051 28.5741L31.7387 28.5811C26.7151 28.9492 19.1286 28.9994 19.0526 28.9997L19.041 29L19.0294 28.9997C18.6438 28.9942 9.5495 28.8572 6.64891 28.5791L6.56106 28.5668C6.47267 28.5511 6.34412 28.5363 6.1947 28.5191L6.18272 28.5177C5.20513 28.405 3.38765 28.1952 1.95026 26.6102C0.633754 25.2154 0.313688 22.5244 0.281507 22.2212L0.279478 22.2019C0.268171 22.0734 0 19.0205 0 15.9556V13.0905C0 10.0257 0.268171 6.97278 0.279478 6.84454L0.283827 6.8054C0.321226 6.50394 0.685359 3.82145 1.94504 2.44208C3.47811 0.742848 5.19266 0.543334 6.0166 0.44752C6.02816 0.446162 6.03955 0.444832 6.05078 0.443522C6.10233 0.437504 6.15033 0.431901 6.19461 0.425903L6.26158 0.418893C11.3305 0.050828 18.9172 0.00058423 18.9932 0.000292115L18.9999 0L19.0065 0.000292115C19.0825 0.00058423 26.6693 0.050828 31.6929 0.418893L31.7593 0.425903C31.8158 0.433499 31.879 0.440801 31.948 0.448689C32.7815 0.54421 34.5146 0.743433 36.0434 2.38337C37.366 3.77763 37.6863 6.51884 37.7185 6.82702ZM35.5038 21.9819C35.527 21.7138 35.7729 18.7923 35.7729 15.9556V13.0905C35.7729 10.208 35.5198 7.24562 35.503 7.05428C35.4082 6.17998 35.035 4.56517 34.432 3.93216L34.423 3.92252C33.4527 2.87967 32.3954 2.75815 31.6958 2.67782L31.692 2.67738C31.623 2.66936 31.5588 2.66191 31.4998 2.65445C26.6139 2.29865 19.2637 2.24549 18.9999 2.24373L18.9898 2.24381C18.5892 2.24687 11.3339 2.30221 6.4535 2.65445C6.40224 2.66114 6.34707 2.66759 6.28824 2.67446L6.27202 2.67636C5.59188 2.75552 4.56355 2.87529 3.58828 3.95611C3.00004 4.60052 2.60865 6.19488 2.49588 7.06509C2.4721 7.3388 2.22684 10.257 2.22684 13.0905V15.9556C2.22684 18.8321 2.47906 21.788 2.49675 21.9907C2.59155 22.8478 2.96467 24.4348 3.56769 25.0678L3.58828 25.09C4.46429 26.0609 5.60349 26.1925 6.43581 26.2886L6.43611 26.2886C6.6002 26.3073 6.75588 26.3254 6.89997 26.3491C9.71214 26.6123 18.6734 26.7504 19.0506 26.756C19.3869 26.7539 26.6872 26.6996 31.5462 26.3456C31.6181 26.3365 31.6975 26.3277 31.7834 26.3187C32.4931 26.243 33.4652 26.139 34.4114 25.09C35.0252 24.4179 35.4093 22.7207 35.5038 21.9819Z" fill="white"/>
</svg>
