<svg width="80" height="80" viewBox="0 0 80 80" fill="none" xmlns="http://www.w3.org/2000/svg">
<path fill-rule="evenodd" clip-rule="evenodd" d="M39.5 0C40.7394 0 41.9363 0.590029 42.7838 1.61915C43.6314 2.64828 44.0713 4.04544 43.9906 5.45253L43.7643 9.39872C43.6748 10.9591 42.9506 12.3862 41.8274 13.2165C41.1208 13.7388 40.3103 14 39.5001 14C38.6899 14 37.8796 13.7389 37.1727 13.2163C36.0494 12.386 35.3254 10.9589 35.2357 9.39872V9.39856L35.0094 5.45253C34.9287 4.04529 35.3686 2.64812 36.2162 1.61915C37.0636 0.590187 38.2606 0 39.5 0ZM40.9455 9.18933L41.1718 5.24346C41.2021 4.71204 41.0427 4.2052 40.7222 3.81652C40.402 3.428 39.9681 3.21389 39.5 3.21389C39.0319 3.21389 38.5978 3.428 38.2778 3.81652C37.9576 4.2052 37.7982 4.71204 37.8285 5.24346L38.0548 9.18933C38.0868 9.74281 38.3322 10.241 38.7118 10.5216C39.1907 10.8753 39.8094 10.8756 40.2886 10.5216C40.6682 10.241 40.9138 9.74312 40.9455 9.18933Z" fill="#3E61FF"/>
<path fill-rule="evenodd" clip-rule="evenodd" d="M52.5367 22.6146L52.9748 25.0947C53.058 25.5664 52.9329 26.0516 52.6334 26.4194C52.3338 26.7874 51.8905 27 51.423 27H29.5773C29.1098 27 28.6664 26.7872 28.3666 26.4194C28.067 26.0516 27.9419 25.5663 28.0253 25.0947L28.4634 22.6146C29.0396 19.3541 31.559 16.7518 34.7327 16.1394C35.2119 16.0469 35.7018 16 36.1889 16H37.5087C37.927 16 38.3281 16.1704 38.6239 16.4736C39.125 16.9873 39.7912 17.2703 40.5 17.2703C41.2089 17.2703 41.8751 16.9873 42.3761 16.4736C42.672 16.1704 43.0731 16 43.4914 16H44.8111C45.2984 16 45.7882 16.0469 46.2674 16.1394C49.4411 16.7521 51.9605 19.3542 52.5367 22.6146ZM31.5675 23.1909L31.466 23.7658H49.5345L49.4329 23.1909C49.088 21.2405 47.5815 19.6838 45.6836 19.3174C45.3966 19.2619 45.1029 19.2339 44.8111 19.2339H44.0871C43.0682 20.0575 41.8176 20.5043 40.5002 20.5043C39.1826 20.5043 37.9322 20.0574 36.9133 19.2339H36.1893C35.8973 19.2339 35.6038 19.2619 35.3168 19.3174C33.419 19.6838 31.9122 21.2405 31.5675 23.1909Z" fill="#3E61FF"/>
<path fill-rule="evenodd" clip-rule="evenodd" d="M39.5 55C40.7394 55 41.9363 55.59 42.7838 56.6192C43.6314 57.6483 44.0713 59.0454 43.9906 60.4524L43.7643 64.3986C43.6748 65.9589 42.9505 67.3862 41.8274 68.2163C41.1208 68.7388 40.3102 69 39.5001 69C38.6898 69 37.8797 68.7389 37.1726 68.2163C36.0495 67.3862 35.3254 65.9591 35.2357 64.3987L35.0094 60.4525C34.9287 59.0454 35.3686 57.6483 36.2162 56.6192C37.0636 55.5902 38.2606 55 39.5 55ZM40.9455 64.1892L41.1718 60.2431C41.2021 59.7117 41.0427 59.2049 40.7222 58.8164C40.4022 58.4278 39.9681 58.2137 39.5 58.2137C39.0319 58.2137 38.5977 58.4278 38.2778 58.8164C37.9576 59.2049 37.7982 59.7117 37.8285 60.2433L38.0548 64.1892C38.0868 64.7427 38.3322 65.2407 38.7118 65.5213C39.1907 65.8753 39.8094 65.8753 40.2885 65.5213C40.6682 65.2407 40.9138 64.7428 40.9455 64.1892Z" fill="#3E61FF"/>
<path fill-rule="evenodd" clip-rule="evenodd" d="M52.5367 75.6146L52.9748 78.0947C53.058 78.5664 52.9329 79.0516 52.6334 79.4192C52.334 79.7874 51.8906 80 51.4231 80H29.5773C29.1098 80 28.6664 79.7874 28.3666 79.4196C28.067 79.0517 27.9419 78.5664 28.0253 78.0949L28.4634 75.6147C29.0396 72.3542 31.559 69.7521 34.7327 69.1394C35.2123 69.0469 35.7022 69 36.189 69H37.5087C37.927 69 38.3282 69.1704 38.624 69.4736C39.6586 70.5343 41.3415 70.5344 42.3761 69.4736C42.6719 69.1704 43.0731 69 43.4914 69H44.8111C45.2987 69 45.7886 69.0469 46.2673 69.1394C49.4411 69.7521 51.9605 72.3542 52.5367 75.6146ZM31.5674 76.1912L31.4661 76.766H49.5348L49.4332 76.1911C49.0883 74.2406 47.5818 72.684 45.6839 72.3176C45.397 72.2623 45.1034 72.2342 44.8114 72.2342H44.0864C41.9898 73.9243 39.0109 73.9243 36.914 72.2342H36.189C35.8972 72.2342 35.6035 72.2623 35.3162 72.3178C33.4189 72.6842 31.9122 74.2408 31.5674 76.1912Z" fill="#3E61FF"/>
<path fill-rule="evenodd" clip-rule="evenodd" d="M12.5001 28C13.7396 28 14.9365 28.5902 15.7841 29.6193C16.6315 30.6482 17.0712 32.0456 16.9906 33.4526L16.7643 37.3988C16.6749 38.9589 15.9509 40.3862 14.8275 41.2165C14.1209 41.7388 13.3104 42 12.5002 42C11.69 42 10.8797 41.7388 10.1726 41.2163C9.04929 40.386 8.32522 38.9588 8.23575 37.3985L8.00945 33.4524C7.9287 32.0455 8.36843 30.6483 9.2159 29.6193C10.0634 28.5902 11.2605 28 12.5001 28ZM13.9454 37.1894L14.1717 33.2432C14.2022 32.7118 14.0424 32.2049 13.7223 31.8164C13.4023 31.4279 12.9682 31.2136 12.5001 31.2136C12.032 31.2136 11.5978 31.4277 11.2777 31.8164C10.9576 32.2049 10.7981 32.7118 10.8286 33.2432L11.0549 37.1894C11.0867 37.7428 11.3321 38.2406 11.7119 38.5214C12.1908 38.8754 12.8095 38.8754 13.2885 38.5214C13.6683 38.2408 13.9139 37.7431 13.9454 37.1894Z" fill="#3E61FF"/>
<path fill-rule="evenodd" clip-rule="evenodd" d="M24.5366 48.6147L24.9747 51.0949C25.0581 51.5667 24.933 52.0517 24.6333 52.4196C24.3339 52.7874 23.8905 53 23.423 53H1.57726C1.10978 53 0.66642 52.7874 0.36657 52.4196C0.0670283 52.0517 -0.0580769 51.5664 0.0252751 51.0949L0.463375 48.6147C1.03957 45.3543 3.559 42.7522 6.73271 42.1394C7.21195 42.0469 7.70201 42 8.18882 42H9.50869C9.92699 42 10.3281 42.1704 10.624 42.4736C11.6585 43.5344 13.3415 43.5343 14.376 42.4736C14.672 42.1704 15.073 42 15.4912 42H16.8109C17.2985 42 17.7884 42.0469 18.2673 42.1394C21.441 42.7522 23.9604 45.3543 24.5366 48.6147ZM3.56766 49.1912L3.46621 49.7661H21.5347L21.4331 49.1912C21.0883 47.2409 19.5817 45.6841 17.6838 45.3176C17.3968 45.2622 17.1033 45.2341 16.8115 45.2341H16.0875C15.0685 46.0576 13.8179 46.5044 12.5005 46.5044C11.1831 46.5044 9.93256 46.0576 8.91362 45.2341H8.18928C7.89747 45.2341 7.60396 45.2622 7.31695 45.3176C5.41918 45.6841 3.91251 47.2409 3.56766 49.1912Z" fill="#3E61FF"/>
<path fill-rule="evenodd" clip-rule="evenodd" d="M65.4999 28C66.7393 28 67.9362 28.59 68.7838 29.6192C69.6314 30.6481 70.0713 32.0453 69.9906 33.4524L69.7643 37.3986C69.6749 38.9588 68.9507 40.386 67.8274 41.2163C67.1208 41.7388 66.3101 42 65.5001 42C64.6897 42 63.8797 41.7389 63.1725 41.2163C62.0491 40.386 61.3252 38.9588 61.2358 37.3986L61.0094 33.4525C60.9287 32.0456 61.3684 30.6483 62.2159 29.6193C63.0634 28.5902 64.2604 28 65.4999 28ZM66.9454 37.1893L67.1717 33.2431C67.2021 32.7117 67.0426 32.2049 66.7222 31.8164C66.4022 31.4278 65.9682 31.2137 65.4999 31.2137C65.0318 31.2137 64.5976 31.4278 64.2777 31.8164C63.9578 32.2049 63.7981 32.7117 63.8286 33.2431L64.0549 37.1893C64.0867 37.7428 64.3321 38.2407 64.7117 38.5213C65.1909 38.8753 65.8097 38.8751 66.2884 38.5213C66.6682 38.2407 66.9138 37.7428 66.9454 37.1893Z" fill="#3E61FF"/>
<path fill-rule="evenodd" clip-rule="evenodd" d="M79.5367 48.6147L79.9748 51.0949C80.058 51.5667 79.933 52.0517 79.6333 52.4196C79.3339 52.7874 78.8906 53 78.4231 53H56.5773C56.1098 53 55.6664 52.7874 55.3666 52.4196C55.067 52.0517 54.9419 51.5664 55.0253 51.0949L55.4634 48.6147C56.0396 45.3543 58.559 42.7522 61.7329 42.1394C62.2118 42.0469 62.7017 42 63.189 42H64.5087C64.927 42 65.3282 42.1704 65.624 42.4736C66.6585 43.5344 68.3415 43.5343 69.3761 42.4736C69.6721 42.1704 70.073 42 70.4912 42H71.8111C72.2983 42 72.7881 42.0469 73.2673 42.1394C76.4411 42.7522 78.9605 45.3543 79.5367 48.6147ZM58.5677 49.1912L58.4661 49.7661H76.5346L76.433 49.1912C76.0882 47.2409 74.5816 45.6841 72.6837 45.3176C72.3967 45.2622 72.103 45.2341 71.8114 45.2341H71.0872C70.0683 46.0576 68.8177 46.5044 67.5003 46.5044C66.1829 46.5044 64.9323 46.0576 63.9133 45.2341H63.1893C62.8973 45.2341 62.604 45.2622 62.3171 45.3176C60.419 45.6841 58.9124 47.2409 58.5677 49.1912Z" fill="#3E61FF"/>
<path d="M32.9119 10.2072C32.618 9.27828 31.6757 8.77993 30.8066 9.09405C24.2294 11.4738 18.3709 16.1249 14.3104 22.19C13.7767 22.9875 13.9483 24.097 14.694 24.6679C14.9869 24.8922 15.3247 25 15.6593 25C16.1767 25 16.6868 24.7419 17.0108 24.2577C20.6699 18.7923 25.9473 14.602 31.871 12.4585C32.74 12.1442 33.2059 11.1362 32.9119 10.2072Z" fill="#3E61FF"/>
<path d="M66.6824 19.7063C63.7594 16.221 59.9023 13.2743 55.5273 11.1847C54.7094 10.794 53.6743 11.0433 53.2165 11.742C52.7585 12.4407 53.051 13.3239 53.8693 13.7149C57.811 15.5978 61.2869 18.2533 63.9213 21.3941C64.2527 21.7895 64.7742 22 65.3034 22C65.6454 22 65.9908 21.912 66.2902 21.7288C67.053 21.2628 67.2283 20.3571 66.6824 19.7063Z" fill="#3E61FF"/>
<path d="M51.6872 9.32495C51.3459 9.2385 50.9975 9.15367 50.6515 9.0733C49.601 8.82869 48.462 9.21631 48.1063 9.93811C47.7512 10.6599 48.3146 11.4431 49.3646 11.6875C49.676 11.7599 49.9897 11.8362 50.297 11.9142C50.5265 11.9724 50.7611 12 50.992 12C51.8086 12 52.5762 11.6549 52.8752 11.0974C53.2592 10.3824 52.7274 9.58891 51.6872 9.32495Z" fill="#3E61FF"/>
<path d="M31.8711 67.5412C25.9474 65.3981 20.67 61.2077 17.0109 55.7421C16.4769 54.9448 15.4396 54.7611 14.6941 55.332C13.9483 55.9032 13.7767 57.0125 14.3105 57.81C18.3711 63.8752 24.2297 68.5261 30.8067 70.9058C30.9831 70.9695 31.1626 71 31.3391 71C32.0315 71 32.6777 70.533 32.912 69.7926C33.2059 68.8637 32.7399 67.8557 31.8711 67.5412Z" fill="#3E61FF"/>
<path d="M66.306 55.332C65.5603 54.761 64.5228 54.9449 63.9891 55.7421C60.3301 61.2078 55.0527 65.3981 49.1289 67.5413C48.2601 67.8556 47.7941 68.8636 48.088 69.7928C48.3221 70.5332 48.9685 71 49.661 71C49.8373 71 50.0169 70.9697 50.1932 70.906C56.8656 68.4917 62.5699 63.9632 66.6896 57.8098C67.2233 57.0123 67.0518 55.903 66.306 55.332Z" fill="#3E61FF"/>
</svg>
