<svg width="63" height="75" viewBox="0 0 63 75" fill="none" xmlns="http://www.w3.org/2000/svg">
<path fill-rule="evenodd" clip-rule="evenodd" d="M31.4495 16.8719C31.622 16.9573 31.8113 17 32 17C32.1881 17 32.378 16.9573 32.5499 16.8719L47.3191 9.58667C47.7362 9.38035 48 8.96059 48 8.50052C48 8.03985 47.7362 7.6201 47.3203 7.41378L32.5511 0.128506C32.2043 -0.0428353 31.7957 -0.0428353 31.4495 0.128506L16.6803 7.41378C16.2632 7.6201 16 8.03985 16 8.50052C16 8.96059 16.2632 9.38035 16.6803 9.58667L31.4495 16.8719ZM32 14.4281L19.9826 8.50052L32 2.57234L44.0168 8.50052L32 14.4281Z" fill="#3E61FF"/>
<path d="M32 31C31.8113 31 31.622 30.957 31.4495 30.8711L16.6803 23.5378C16.2632 23.3301 16 22.9076 16 22.4444V9H18.4615V21.6889L32 28.4111L45.5385 21.6889V9H48V22.4444C48 22.9076 47.7362 23.3301 47.3191 23.5378L32.5499 30.8711C32.378 30.957 32.1881 31 32 31Z" fill="#3E61FF"/>
<path d="M31 16H34V30H31V16Z" fill="#3E61FF"/>
<path fill-rule="evenodd" clip-rule="evenodd" d="M17.4495 37.8719C17.622 37.9573 17.8113 38 18 38C18.1881 38 18.378 37.9573 18.5499 37.8719L33.3191 30.5867C33.7362 30.3803 34 29.9606 34 29.5005C34 29.0399 33.7362 28.6201 33.3203 28.4138L18.5511 21.1285C18.2043 20.9572 17.7957 20.9572 17.4495 21.1285L2.68029 28.4138C2.26322 28.6201 2 29.0399 2 29.5005C2 29.9606 2.26322 30.3803 2.68029 30.5867L17.4495 37.8719ZM18 35.4281L5.98257 29.5005L18 23.5723L30.0168 29.5005L18 35.4281Z" fill="#3E61FF"/>
<path d="M18 51C17.8113 51 17.622 50.957 17.4495 50.8711L2.68029 43.5378C2.26322 43.3301 2 42.9076 2 42.4444V29H4.46154V41.6889L18 48.4111L31.5385 41.6889V29H34V42.4444C34 42.9076 33.7362 43.3301 33.3191 43.5378L18.5499 50.8711C18.378 50.957 18.1881 51 18 51Z" fill="#3E61FF"/>
<path d="M16 36H19V50H16V36Z" fill="#3E61FF"/>
<path fill-rule="evenodd" clip-rule="evenodd" d="M45.9667 37.8719C46.1338 37.9573 46.3172 38 46.5 38C46.6822 38 46.8662 37.9573 47.0327 37.8719L61.3404 30.5867C61.7444 30.3803 62 29.9606 62 29.5005C62 29.0399 61.7444 28.6201 61.3416 28.4138L47.0339 21.1285C46.6979 20.9572 46.3021 20.9572 45.9667 21.1285L31.659 28.4138C31.255 28.6201 31 29.0399 31 29.5005C31 29.9606 31.255 30.3803 31.659 30.5867L45.9667 37.8719ZM46.5 35.4281L34.8581 29.5005L46.5 23.5723L58.1413 29.5005L46.5 35.4281Z" fill="#3E61FF"/>
<path d="M46.5 51C46.3172 51 46.1338 50.957 45.9667 50.8711L31.659 43.5378C31.255 43.3301 31 42.9076 31 42.4444V29H33.3846V41.6889L46.5 48.4111L59.6154 41.6889V29H62V42.4444C62 42.9076 61.7444 43.3301 61.3404 43.5378L47.0327 50.8711C46.8662 50.957 46.6822 51 46.5 51Z" fill="#3E61FF"/>
<path d="M45 36H48V50H45V36Z" fill="#3E61FF"/>
<path fill-rule="evenodd" clip-rule="evenodd" d="M26.2 61H32.2C34.8473 61 37 58.757 37 56C37 53.2424 34.8473 51 32.2 51H26.2C25.5361 51 25 51.5585 25 52.25V59.75C25 60.4409 25.5361 61 26.2 61ZM32.2 58.5H27.4V53.5H32.2C33.5236 53.5 34.6 54.6212 34.6 56C34.6 57.3782 33.5236 58.5 32.2 58.5Z" fill="#3E61FF"/>
<path fill-rule="evenodd" clip-rule="evenodd" d="M26.2 68H32.2C34.8473 68 37 65.757 37 63C37 60.2424 34.8473 58 32.2 58H26.2C25.5361 58 25 58.5585 25 59.25V66.75C25 67.4409 25.5361 68 26.2 68ZM32.2 65.5H27.4V60.5H32.2C33.5236 60.5 34.6 61.6212 34.6 63C34.6 64.3782 33.5236 65.5 32.2 65.5Z" fill="#3E61FF"/>
<path d="M28 49H31V53H28V49Z" fill="#3E61FF"/>
<path d="M32 49H35V53H32V49Z" fill="#3E61FF"/>
<path d="M28 67H31V71H28V67Z" fill="#3E61FF"/>
<path d="M32 67H35V71H32V67Z" fill="#3E61FF"/>
<path d="M21 58H24V61H21V58Z" fill="#3E61FF"/>
<path d="M40 58H43V61H40V58Z" fill="#3E61FF"/>
<path fill-rule="evenodd" clip-rule="evenodd" d="M45 70C45 72.757 47.2424 75 50 75C52.7576 75 55 72.757 55 70C55 67.2424 52.7576 65 50 65C47.2424 65 45 67.2424 45 70ZM47.5 70C47.5 68.6212 48.6212 67.5 50 67.5C51.3788 67.5 52.5 68.6212 52.5 70C52.5 71.3782 51.3788 72.5 50 72.5C48.6212 72.5 47.5 71.3782 47.5 70Z" fill="#3E61FF"/>
<path d="M49 49H52V67H49V49Z" fill="#3E61FF"/>
<path fill-rule="evenodd" clip-rule="evenodd" d="M53 62C53 64.757 55.2424 67 58 67C60.7576 67 63 64.757 63 62C63 59.2424 60.7576 57 58 57C55.2424 57 53 59.2424 53 62ZM55.5 62C55.5 60.6212 56.6212 59.5 58 59.5C59.3788 59.5 60.5 60.6212 60.5 62C60.5 63.3782 59.3788 64.5 58 64.5C56.6212 64.5 55.5 63.3782 55.5 62Z" fill="#3E61FF"/>
<path d="M58 43H61V57H58V43Z" fill="#3E61FF"/>
<path fill-rule="evenodd" clip-rule="evenodd" d="M9 70C9 72.757 11.2424 75 14 75C16.7576 75 19 72.757 19 70C19 67.2424 16.7576 65 14 65C11.2424 65 9 67.2424 9 70ZM11.5 70C11.5 68.6212 12.6212 67.5 14 67.5C15.3788 67.5 16.5 68.6212 16.5 70C16.5 71.3782 15.3788 72.5 14 72.5C12.6212 72.5 11.5 71.3782 11.5 70Z" fill="#3E61FF"/>
<path d="M12 49H15V67H12V49Z" fill="#3E61FF"/>
<path fill-rule="evenodd" clip-rule="evenodd" d="M0 62C0 64.757 2.24243 67 5 67C7.75757 67 10 64.757 10 62C10 59.2424 7.75757 57 5 57C2.24243 57 0 59.2424 0 62ZM2.5 62C2.5 60.6212 3.62122 59.5 5 59.5C6.37878 59.5 7.5 60.6212 7.5 62C7.5 63.3782 6.37878 64.5 5 64.5C3.62122 64.5 2.5 63.3782 2.5 62Z" fill="#3E61FF"/>
<path d="M4 43H7V57H4V43Z" fill="#3E61FF"/>
</svg>
