<svg width="75" height="75" viewBox="0 0 75 75" fill="none" xmlns="http://www.w3.org/2000/svg">
<path fill-rule="evenodd" clip-rule="evenodd" d="M66.9939 60.148C67.7978 59.0646 68.2734 57.735 68.2734 56.2986V47.7143C68.2734 46.9253 67.6175 46.2857 66.8086 46.2857H60.2619C57.2355 46.2857 54.7734 48.6869 54.7734 51.6383V56.2986C54.7734 57.7341 55.2485 59.0627 56.0514 60.1459C55.05 60.3043 54.0866 60.6171 53.188 61.0751C51.1528 58.1134 47.8184 56.0709 43.9866 55.7263C43.9717 55.7221 43.9564 55.7191 43.9414 55.7156C45.3123 54.2226 46.148 52.2529 46.148 50.0957V38.4286C46.148 37.6396 45.492 37 44.6832 37H35.7854C31.9623 37 28.852 40.0333 28.852 43.7617V50.0956C28.852 52.2527 29.6877 54.2224 31.0586 55.7154L31.0435 55.7189C31.0334 55.7212 31.0233 55.7235 31.0134 55.7261C27.1812 56.0707 23.8466 58.1136 21.8115 61.0757C20.9127 60.6179 19.9491 60.3047 18.9482 60.1463C19.7512 59.0631 20.2266 57.7343 20.2266 56.2986V47.7143C20.2266 46.9253 19.5706 46.2857 18.7617 46.2857H12.215C9.18867 46.2857 6.72656 48.6869 6.72656 51.6383V56.2986C6.72656 57.7351 7.2022 59.0646 8.0061 60.148C3.47197 60.8707 0 64.7163 0 69.3393V73.5714C0 74.3604 0.655957 75 1.46484 75H73.5352C74.344 75 75 74.3604 75 73.5714V69.3393C75 64.7163 71.528 60.8707 66.9939 60.148ZM9.65625 51.6383C9.65625 50.2623 10.8041 49.1429 12.215 49.1429H17.2969V50.8827C17.2969 51.7359 16.5853 52.4299 15.7106 52.4299H9.65625V51.6383ZM15.7106 55.2869H9.65625V56.2986C9.65625 58.3529 11.37 60.0243 13.4766 60.0243C15.5832 60.0243 17.2969 58.3529 17.2969 56.2986V55.0056C16.8031 55.187 16.2687 55.2869 15.7106 55.2869ZM14.4209 62.8814L13.4766 63.8024L12.5322 62.8814H14.4209ZM19.7098 72.1429V67.8194C19.7098 66.3439 19.9816 64.9291 20.4779 63.6197C19.8504 63.2977 19.177 63.0776 18.4768 62.9664L14.5124 66.8329C14.2375 67.1007 13.865 67.2513 13.4766 67.2513C13.0881 67.2513 12.7156 67.1007 12.4408 66.8329L8.47749 62.9677C5.3354 63.4697 2.92969 66.1351 2.92969 69.3393V72.1429H19.7098ZM37.5001 55.6724C34.3471 55.6724 31.7818 53.1707 31.7818 50.0957V48.2076H40.5363C41.5071 48.2076 42.4211 47.9657 43.2185 47.5409V50.0957C43.2185 53.1707 40.6532 55.6724 37.5001 55.6724ZM37.5 61.0197L40.0535 58.5294H34.9465L37.5 61.0197ZM31.7815 43.7617H31.7817C31.7817 41.6087 33.5777 39.8571 35.7854 39.8571H43.2183V42.7349C43.2183 44.1771 42.0151 45.3506 40.5362 45.3506H31.7815V43.7617ZM49.5117 72.1429H52.3604V67.8194C52.3604 63.1186 48.7607 59.2247 44.1089 58.615L38.5358 64.0501C38.2497 64.3291 37.8749 64.4686 37.5 64.4686C37.1251 64.4686 36.7503 64.3291 36.4642 64.0501L30.8911 58.615C26.707 59.1634 23.3745 62.3684 22.7467 66.4286H32.1778C32.9867 66.4286 33.6426 67.0681 33.6426 67.8571C33.6426 68.6461 32.9867 69.2857 32.1778 69.2857H22.6396V72.1429H25.4883H49.5117ZM57.7031 51.6383C57.7031 50.2623 58.851 49.1429 60.2619 49.1429H65.3438V50.8827C65.3438 51.7359 64.6321 52.4299 63.7575 52.4299H57.7031V51.6383ZM63.7575 55.2869H57.7031V56.2986C57.7031 58.3529 59.4168 60.0243 61.5234 60.0243C63.63 60.0243 65.3438 58.3529 65.3438 56.2986V55.0056C64.85 55.187 64.3156 55.2869 63.7575 55.2869ZM62.4678 62.8814L61.5234 63.8024L60.5791 62.8814H62.4678ZM55.2901 67.8194V72.1429H72.0702V69.3393C72.0702 66.1351 69.6645 63.4699 66.5224 62.9677L62.5591 66.8329C62.2843 67.1007 61.9118 67.2513 61.5233 67.2513C61.1348 67.2513 60.7623 67.1007 60.4875 66.8329L56.5226 62.9661C55.8223 63.0771 55.149 63.2971 54.5218 63.6194C55.0182 64.929 55.2901 66.3437 55.2901 67.8194Z" fill="#3E61FF"/>
<path d="M43.5793 9.42311C43.0182 8.85896 42.109 8.85896 41.5478 9.42311L34.4992 16.5123L31.4521 13.4477C30.891 12.8834 29.9818 12.8834 29.4207 13.4475C28.8598 14.0117 28.8598 14.9264 29.4207 15.4907L33.4835 19.5769C33.753 19.8477 34.1183 20 34.4992 20C34.8801 20 35.2454 19.8477 35.5149 19.5769L43.5793 11.4662C44.1402 10.902 44.1402 9.98725 43.5793 9.42311Z" fill="#3E61FF"/>
<path d="M43.4005 2.12602C42.6727 1.8 41.8194 2.12834 41.4947 2.85952C41.17 3.5907 41.497 4.44785 42.2249 4.77386C46.4097 6.64864 49.1138 10.8332 49.1138 15.4345C49.1138 21.8673 43.9038 27.1008 37.4999 27.1008C31.0961 27.1008 25.886 21.8673 25.886 15.4345C25.886 10.857 28.5706 6.68111 32.7253 4.79619C33.4516 4.46669 33.7746 3.60795 33.4464 2.87836C33.1184 2.14863 32.2631 1.82436 31.5373 2.15385C26.3512 4.50685 23 9.71977 23 15.4344C22.9999 23.4659 29.5046 30 37.4999 30C45.4953 30 52 23.4659 52 15.4345C52 9.69019 48.6245 4.46626 43.4005 2.12602Z" fill="#3E61FF"/>
<path d="M38.0199 0H37.9847C37.4409 0 37 0.4477 37 1C37 1.5523 37.4409 2 37.9847 2H38.0107C38.0123 2 38.0137 2 38.0154 2C38.5571 2 38.9974 1.5554 39 1.0047C39.0025 0.4524 38.5638 0.0026 38.0199 0Z" fill="#3E61FF"/>
<path d="M38.7069 66.293C38.521 66.107 38.263 66 38 66C37.737 66 37.479 66.107 37.293 66.293C37.107 66.479 37 66.737 37 67C37 67.263 37.1069 67.521 37.293 67.707C37.4791 67.893 37.737 68 38 68C38.263 68 38.521 67.893 38.7069 67.707C38.8929 67.521 39 67.263 39 67C39 66.737 38.893 66.479 38.7069 66.293Z" fill="#3E61FF"/>
</svg>
