<svg width="72" height="70" viewBox="0 0 72 70" fill="none" xmlns="http://www.w3.org/2000/svg">
<path fill-rule="evenodd" clip-rule="evenodd" d="M23.2968 24.5714H31.2C33.851 24.5714 36 26.8313 36 29.619C36 32.4068 33.851 34.6667 31.2 34.6667H19.2C18.8817 34.6667 18.5766 34.5335 18.3516 34.2969L14.4 30.1415V40.9762H15.6C20.2369 40.9817 23.9947 44.9334 24 49.8095V66.2143C24 68.3051 22.3883 70 20.4 70H18C16.0117 70 14.4 68.3051 14.4 66.2143V52.3333C14.4 51.6364 13.8627 51.0714 13.2 51.0714H6C2.688 51.0673 0.0039 48.2448 0 44.7619V18.2619C0 17.565 0.5373 17 1.2 17H15.6C15.9183 17 16.2234 17.1331 16.4484 17.3697L23.2968 24.5714ZM19.6968 32.1429H31.2C32.5256 32.1429 33.6 31.013 33.6 29.619C33.6 28.2251 32.5256 27.0952 31.2 27.0952H22.8C22.4817 27.0952 22.1766 26.9621 21.9516 26.7255L15.1032 19.5238H2.4V44.7619C2.4 46.8527 4.01175 48.5476 6 48.5476H13.2C15.1883 48.5476 16.8 50.2425 16.8 52.3333V66.2143C16.8 66.9112 17.3373 67.4762 18 67.4762H20.4C21.0627 67.4762 21.6 66.9112 21.6 66.2143V49.8095C21.5961 46.3267 18.912 43.5041 15.6 43.5H13.2C12.5373 43.5 12 42.935 12 42.2381V27.0952C12 26.7607 12.1264 26.44 12.3513 26.2034C12.8199 25.7105 13.5797 25.7103 14.0484 26.2031L19.6968 32.1429Z" fill="#3E61FF"/>
<path fill-rule="evenodd" clip-rule="evenodd" d="M56.4 17H70.8C71.4627 17 72 17.565 72 18.2619V44.7619C71.9961 48.2448 69.312 51.0673 66 51.0714H58.8C58.1373 51.0714 57.6 51.6364 57.6 52.3333V66.2143C57.6 68.3051 55.9883 70 54 70H51.6C49.6118 70 48 68.3051 48 66.2143V49.8095C48.0052 44.9334 51.7631 40.9817 56.4 40.9762H57.6V30.1415L53.6484 34.2969C53.4234 34.5335 53.1183 34.6667 52.8 34.6667H40.8C38.1491 34.6667 36 32.4068 36 29.619C36 26.8313 38.1491 24.5714 40.8 24.5714H48.7032L55.5516 17.3697C55.7766 17.1331 56.0817 17 56.4 17ZM66 48.5476C67.9883 48.5476 69.6 46.8527 69.6 44.7619V19.5238H56.8968L50.0484 26.7255C49.8234 26.9621 49.5183 27.0952 49.2 27.0952H40.8C39.4745 27.0952 38.4 28.2251 38.4 29.619C38.4 31.013 39.4745 32.1429 40.8 32.1429H52.3032L57.9516 26.2031C58.1766 25.9666 58.4816 25.8336 58.7997 25.8336C59.4626 25.8335 59.9999 26.3984 60 27.0952V42.2381C60 42.935 59.4627 43.5 58.8 43.5H56.4C53.088 43.5041 50.4039 46.3267 50.4 49.8095V66.2143C50.4 66.9112 50.9373 67.4762 51.6 67.4762H54C54.6627 67.4762 55.2 66.9112 55.2 66.2143V52.3333C55.2 50.2425 56.8118 48.5476 58.8 48.5476H66Z" fill="#3E61FF"/>
<path d="M51.7692 38H22.2308C21.5511 38 21 38.5511 21 39.2308C21 39.9105 21.5511 40.4615 22.2308 40.4615H35.7692V67.5385H32.0769C31.3972 67.5385 30.8462 68.0895 30.8462 68.7692C30.8462 69.4489 31.3972 70 32.0769 70H41.9231C42.6028 70 43.1538 69.4489 43.1538 68.7692C43.1538 68.0895 42.6028 67.5385 41.9231 67.5385H38.2308V40.4615H51.7692C52.4489 40.4615 53 39.9105 53 39.2308C53 38.5511 52.4489 38 51.7692 38Z" fill="#3E61FF"/>
<path fill-rule="evenodd" clip-rule="evenodd" d="M64.5 0H58.25C57.5597 0 57 0.559687 57 1.25V7.5C57 11.6422 60.3578 15 64.5 15C68.6422 15 72 11.6422 72 7.5C71.9959 3.35953 68.6405 0.0040625 64.5 0ZM62.0517 11.8655C60.4713 10.9819 59.4944 9.31063 59.5 7.5V6.29C62.9278 6.45437 66.2069 7.73922 68.8338 9.9475C67.4905 12.35 64.4541 13.2086 62.0517 11.8655ZM59.5 2.5V3.79C63.1006 3.94 66.5748 5.15984 69.4788 7.29375C69.3684 4.62141 67.1747 2.50906 64.5 2.5H59.5Z" fill="#3E61FF"/>
<path fill-rule="evenodd" clip-rule="evenodd" d="M13.75 0H7.5C3.35781 0 0 3.35781 0 7.5C0 11.6422 3.35781 15 7.5 15C11.6405 14.9959 14.9959 11.6405 15 7.5V1.25C15 0.559687 14.4403 0 13.75 0ZM12.5 7.5C12.5 10.2614 10.2614 12.5 7.5 12.5C5.70062 12.4934 4.04453 11.518 3.16625 9.9475C5.79313 7.73922 9.07219 6.45437 12.5 6.29V7.5ZM2.52125 7.29C5.42562 5.15734 8.89984 3.93891 12.5 3.79V2.5H7.5C4.82672 2.50906 2.63344 4.61906 2.52125 7.29Z" fill="#3E61FF"/>
</svg>
