<svg width="81" height="80" viewBox="0 0 81 80" fill="none" xmlns="http://www.w3.org/2000/svg">
<path d="M16.8074 43.6388C17.466 43.6388 18 43.0745 18 42.3782V41.5043C18 39.4941 16.5468 37.8358 14.6927 37.6412V36.2606C14.6927 35.5643 14.1587 35 13.5001 35C12.8415 35 12.3075 35.5643 12.3075 36.2606V37.7016C10.4257 38.0873 9.00016 39.8413 9.00016 41.9413C9.00016 44.323 10.8334 46.2606 13.0865 46.2606H13.9133C14.8515 46.2606 15.6147 47.0672 15.6147 48.0589C15.6147 49.0506 14.8515 49.8573 13.9133 49.8573H12.6731C11.963 49.8573 11.3852 49.2465 11.3852 48.4957C11.3852 47.7994 10.8512 47.2351 10.1926 47.2351C9.534 47.2351 9 47.7994 9 48.4957C9 50.5059 10.453 52.1642 12.3073 52.3588V53.7394C12.3073 54.4357 12.8413 55 13.4999 55C14.1585 55 14.6925 54.4357 14.6925 53.7394V52.2984C16.5743 51.9127 17.9998 50.1587 17.9998 48.0587C17.9998 45.677 16.1666 43.7394 13.9135 43.7394H13.0867C12.1485 43.7394 11.3853 42.9328 11.3853 41.9411C11.3853 40.9494 12.1485 40.1427 13.0867 40.1427H14.3269C15.037 40.1427 15.6148 40.7535 15.6148 41.5043V42.3782C15.6148 43.0745 16.1488 43.6388 16.8074 43.6388Z" fill="#3E61FF"/>
<path d="M43.8074 13.6388C44.4662 13.6388 45 13.0745 45 12.3782V11.5043C45 9.4941 43.5468 7.83582 41.6927 7.64124V6.26057C41.6927 5.56428 41.1588 5 40.5001 5C39.8415 5 39.3075 5.56428 39.3075 6.26057V7.70162C37.4257 8.08726 36.0002 9.84132 36.0002 11.9413C36.0002 14.323 37.8334 16.2606 40.0865 16.2606H40.9133C41.8515 16.2606 42.6147 17.0672 42.6147 18.0589C42.6147 19.0506 41.8515 19.8573 40.9133 19.8573H39.6731C38.963 19.8573 38.3852 19.2465 38.3852 18.4957C38.3852 17.7994 37.8512 17.2351 37.1926 17.2351C36.534 17.2351 36 17.7994 36 18.4957C36 20.5059 37.453 22.1642 39.3073 22.3588V23.7394C39.3073 24.4357 39.8413 25 40.4999 25C41.1587 25 41.6925 24.4357 41.6925 23.7394V22.2984C43.5741 21.9127 44.9998 20.1587 44.9998 18.0587C44.9998 15.677 43.1666 13.7394 40.9135 13.7394H40.0867C39.1485 13.7394 38.3853 12.9328 38.3853 11.9411C38.3853 10.9494 39.1485 10.1427 40.0867 10.1427H41.3269C42.037 10.1427 42.6148 10.7535 42.6148 11.5043V12.3782C42.6148 13.0747 43.1487 13.6388 43.8074 13.6388Z" fill="#3E61FF"/>
<path fill-rule="evenodd" clip-rule="evenodd" d="M58.1199 26.5315C60.5454 24.4247 63.6937 23.1499 67.1302 23.1499C74.778 23.1499 81 29.46 81 37.2165C81 44.9729 74.778 51.2832 67.1302 51.2832C59.4823 51.2832 53.2603 44.9729 53.2603 37.2165C53.2603 33.8146 54.4573 30.6912 56.4464 28.256L50.7965 23.4811C48.2562 26.3359 44.5813 28.1335 40.5 28.1335C37.7324 28.1335 35.1518 27.3067 32.9849 25.8844L23.293 34.6217C26.0262 37.1927 27.7397 40.8635 27.7397 44.9333C27.7397 52.6897 21.5177 59 13.8698 59C6.22197 59 0 52.6899 0 44.9333C0 37.1767 6.22197 30.8665 13.8698 30.8664C16.6374 30.8664 19.218 31.6932 21.3849 33.1154L31.0768 24.3781C28.3437 21.8073 26.6302 18.1365 26.6302 14.0667C26.6302 6.3103 32.8521 0 40.5 0C48.1479 0 54.3698 6.3103 54.3698 14.0667C54.3698 16.8181 53.5864 19.3871 52.2346 21.5575L58.1199 26.5315ZM13.8698 56.5886C20.2067 56.5886 25.362 51.3601 25.362 44.9333C25.362 38.5065 20.2067 33.2779 13.8698 33.2779C7.533 33.2779 2.37763 38.5065 2.37763 44.9333C2.37763 51.3601 7.533 56.5886 13.8698 56.5886ZM40.5 25.7221C34.1632 25.7221 29.0078 20.4935 29.0078 14.0667C29.0078 7.63994 34.1632 2.41139 40.5 2.41139C46.8368 2.41139 51.9922 7.63994 51.9922 14.0667C51.9922 20.4935 46.8368 25.7221 40.5 25.7221ZM55.638 37.2166C55.638 43.6434 60.7933 48.872 67.1302 48.872C73.467 48.872 78.6224 43.6434 78.6222 37.2168C78.6222 30.79 73.4668 25.5615 67.13 25.5615C64.1401 25.5615 61.4141 26.7263 59.3678 28.6307C59.3221 28.7563 59.2561 28.877 59.1667 28.9858C59.0283 29.1541 58.8538 29.2731 58.6647 29.3437C56.7865 31.4191 55.638 34.1842 55.638 37.2166Z" fill="#3E61FF"/>
<path d="M69.8074 35.6388C70.4662 35.6388 71 35.0745 71 34.3782V33.5043C71 31.4941 69.5469 29.8358 67.6927 29.6412V28.2606C67.6927 27.5643 67.1589 27 66.5002 27C65.8414 27 65.3076 27.5643 65.3076 28.2606V29.7016C63.426 30.0873 62.0003 31.8413 62.0003 33.9413C62.0003 36.323 63.8335 38.2606 66.0866 38.2606H66.9132C67.8514 38.2606 68.6146 39.0672 68.6146 40.0589C68.6146 41.0506 67.8514 41.8573 66.9132 41.8573H65.6731C64.9629 41.8573 64.3851 41.2465 64.3851 40.4957C64.3851 39.7994 63.8513 39.2351 63.1926 39.2351C62.5338 39.2351 62 39.7994 62 40.4957C62 42.5059 63.453 44.1642 65.3073 44.3588V45.7394C65.3073 46.4357 65.8411 47 66.4998 47C67.1586 47 67.6924 46.4357 67.6924 45.7394V44.2984C69.574 43.9127 70.9997 42.1587 70.9997 40.0587C70.9997 37.677 69.1665 35.7394 66.9134 35.7394H66.0868C65.1486 35.7394 64.3854 34.9328 64.3854 33.9411C64.3854 32.9494 65.1486 32.1427 66.0868 32.1427H67.3269C68.0371 32.1427 68.6149 32.7535 68.6149 33.5043V34.3782C68.615 35.0745 69.1487 35.6388 69.8074 35.6388Z" fill="#3E61FF"/>
<path fill-rule="evenodd" clip-rule="evenodd" d="M16.1393 61H25.8607C26.4899 61 27 61.5745 27 62.2838V78.7162C27 79.4253 26.4899 80 25.8607 80H16.1393C15.5101 80 15 79.4253 15 78.7162V62.2838C15 61.5747 15.5101 61 16.1393 61ZM17.2784 77.4323H24.7214V63.5675H17.2784V77.4323Z" fill="#3E61FF"/>
<path fill-rule="evenodd" clip-rule="evenodd" d="M63.1393 61H72.8607C73.49 61 73.9998 61.5745 74 62.2838V78.7162C74 79.4253 73.49 80 72.8607 80H63.1393C62.51 80 62 79.4253 62 78.7162V62.2838C62 61.5747 62.51 61 63.1393 61ZM64.2784 77.4323H71.7214V63.5675H64.2784V77.4323Z" fill="#3E61FF"/>
<path d="M40.8607 66.9425C41.49 66.9425 42 66.391 42 65.7106V47.2319C42 46.5515 41.49 46 40.8607 46H31.1393C30.5101 46 30 46.5515 30 47.2319V78.7681C30 79.4485 30.5101 80 31.1393 80H40.8606C41.4899 80 41.9998 79.4485 41.9998 78.7681V71.4593C41.9998 70.7788 41.4899 70.2273 40.8606 70.2273C40.2313 70.2273 39.7213 70.7788 39.7213 71.4593V77.5361H32.2784V48.4637H39.7213V65.7104C39.7215 66.391 40.2314 66.9425 40.8607 66.9425Z" fill="#3E61FF"/>
<path fill-rule="evenodd" clip-rule="evenodd" d="M47.1393 55H56.8607C57.49 55 58 55.5279 58 56.1793V78.8207C58 79.4721 57.49 80 56.8607 80H47.1393C46.51 80 46 79.4721 46 78.8207V56.1793C46 55.5279 46.51 55 47.1393 55ZM48.2786 77.6414H55.7216V57.3584H48.2786V77.6414Z" fill="#3E61FF"/>
</svg>
