<svg width="72" height="72" viewBox="0 0 72 72" fill="none" xmlns="http://www.w3.org/2000/svg">
<path d="M8.21613 10.3255C7.67615 10.3255 7.13672 10.1195 6.72473 9.70752L0.617981 3.60077C-0.205994 2.77734 -0.205994 1.44141 0.617981 0.617981C1.44141 -0.205994 2.77734 -0.205994 3.60077 0.617981L9.70752 6.72473C10.5315 7.54816 10.5315 8.88409 9.70752 9.70752C9.29608 10.1195 8.7561 10.3255 8.21613 10.3255Z" fill="#3E61FF"/>
<path d="M26.1559 28.2657C25.6159 28.2657 25.0759 28.0597 24.6645 27.6477L18.6566 21.6398C17.8332 20.8164 17.8332 19.481 18.6566 18.657C19.4806 17.8331 20.816 17.8331 21.64 18.657L27.6473 24.6644C28.4713 25.4883 28.4713 26.8237 27.6473 27.6477C27.2353 28.0597 26.6959 28.2657 26.1559 28.2657Z" fill="#3E61FF"/>
<path d="M63.7843 10.3255C63.2443 10.3255 62.7044 10.1195 62.2924 9.70752C61.4689 8.88409 61.4689 7.54816 62.2924 6.72473L68.3997 0.617981C69.2231 -0.205994 70.559 -0.205994 71.3825 0.617981C72.2064 1.44141 72.2064 2.77734 71.3825 3.60077L65.2757 9.70752C64.8637 10.1195 64.3237 10.3255 63.7843 10.3255Z" fill="#3E61FF"/>
<path d="M45.8438 28.2657C45.3038 28.2657 44.7638 28.0597 44.3524 27.6477C43.5284 26.8237 43.5284 25.4883 44.3524 24.6644L50.3597 18.657C51.1837 17.8331 52.519 17.8331 53.343 18.657C54.1664 19.481 54.1664 20.8164 53.343 21.6398L47.3351 27.6477C46.9232 28.0597 46.3837 28.2657 45.8438 28.2657Z" fill="#3E61FF"/>
<path d="M2.10938 72C1.5694 72 1.02942 71.794 0.617981 71.382C-0.205994 70.558 -0.205994 69.2226 0.617981 68.3986L6.72473 62.2919C7.54871 61.4685 8.88409 61.4685 9.70807 62.2919C10.5315 63.1159 10.5315 64.4512 9.70807 65.2752L3.60077 71.382C3.18878 71.794 2.6488 72 2.10938 72Z" fill="#3E61FF"/>
<path d="M20.1486 53.9603C19.6086 53.9603 19.0686 53.7549 18.6566 53.3429C17.8332 52.5189 17.8332 51.1835 18.6566 50.3596L24.6645 44.3517C25.4879 43.5283 26.8239 43.5283 27.6478 44.3517C28.4713 45.1757 28.4713 46.5111 27.6478 47.335L21.64 53.3429C21.228 53.7549 20.688 53.9603 20.1486 53.9603Z" fill="#3E61FF"/>
<path d="M69.8911 72C69.3511 72 68.8111 71.794 68.3997 71.382L62.2924 65.2752C61.4689 64.4518 61.4689 63.1159 62.2924 62.2919C63.1163 61.4685 64.4517 61.4685 65.2757 62.2919L71.3825 68.3986C72.2064 69.2226 72.2064 70.558 71.3825 71.382C70.9705 71.794 70.431 72 69.8911 72Z" fill="#3E61FF"/>
<path d="M51.8511 53.9603C51.3116 53.9603 50.7717 53.7549 50.3597 53.3429L44.3524 47.335C43.5284 46.5111 43.5284 45.1757 44.3524 44.3517C45.1758 43.5283 46.5117 43.5283 47.3351 44.3517L53.343 50.3596C54.1664 51.1835 54.1664 52.5189 53.343 53.3429C52.931 53.7549 52.3911 53.9603 51.8511 53.9603Z" fill="#3E61FF"/>
<path fill-rule="evenodd" clip-rule="evenodd" d="M50.9989 27.7118L50.9989 27.712C50.9989 27.7153 50.999 27.7186 50.9991 27.7219C50.9992 27.725 50.9993 27.7281 50.9995 27.7312L50.9995 27.7313C50.9997 27.7374 51 27.7435 51 27.7496V44.2499C51 45.0308 50.5413 45.7452 49.8153 46.0949L36.9581 52.2825C36.9517 52.2856 36.9451 52.2881 36.9385 52.2906C36.9324 52.2929 36.9263 52.2952 36.9202 52.298C36.8683 52.3217 36.8158 52.3437 36.7617 52.3636C36.74 52.3716 36.7188 52.3792 36.697 52.3861C36.6429 52.4044 36.5882 52.4194 36.5329 52.4334L36.5148 52.438C36.4993 52.4419 36.4839 52.4459 36.4682 52.449C36.4107 52.4613 36.3516 52.471 36.2924 52.4785C36.2848 52.4796 36.2772 52.4808 36.2696 52.4821C36.2583 52.484 36.2469 52.4858 36.2355 52.4871C36.1579 52.4952 36.0792 52.5 36 52.5C35.9202 52.5 35.8421 52.4952 35.7645 52.4871C35.7531 52.4858 35.7417 52.484 35.7304 52.4821C35.7228 52.4808 35.7152 52.4796 35.7076 52.4785C35.6484 52.471 35.5893 52.4613 35.5312 52.449C35.5163 52.446 35.5014 52.4421 35.4863 52.4383L35.4671 52.4334C35.4113 52.4194 35.3566 52.4044 35.303 52.3861C35.2812 52.3792 35.26 52.3716 35.2383 52.3636C35.1842 52.3437 35.1317 52.3217 35.0798 52.298C35.0737 52.2952 35.0676 52.2929 35.0615 52.2906L35.0614 52.2906L35.0614 52.2905C35.0548 52.288 35.0482 52.2855 35.0419 52.2825L22.1847 46.0949C21.4587 45.7452 21 45.0308 21 44.2499V27.7496C21 27.7435 21.0003 27.7374 21.0005 27.7312C21.0008 27.7249 21.0011 27.7185 21.0011 27.712C21.0011 27.6921 21.0017 27.6728 21.0028 27.6524C21.0056 27.5987 21.01 27.5444 21.0167 27.4912C21.0179 27.4848 21.019 27.4784 21.0195 27.4719C21.0273 27.4177 21.0379 27.3639 21.0497 27.3102L21.0512 27.3036L21.0512 27.3036L21.0513 27.3036C21.0541 27.2917 21.057 27.2796 21.0603 27.2678C21.0742 27.2109 21.0904 27.1539 21.1094 27.0986C21.1105 27.0965 21.111 27.0949 21.1116 27.0927C21.1306 27.039 21.1523 26.9864 21.1752 26.9348L21.1812 26.9214C21.1852 26.9124 21.1892 26.9035 21.1936 26.8945C21.2182 26.8429 21.2444 26.7914 21.2734 26.742C21.2785 26.7328 21.284 26.7242 21.2896 26.7156L21.2896 26.7156C21.3142 26.6743 21.341 26.634 21.3689 26.5943C21.3795 26.5792 21.3906 26.5636 21.4018 26.5486C21.4342 26.5046 21.4682 26.4621 21.5045 26.4208C21.5162 26.4073 21.5284 26.3945 21.5407 26.3816L21.5407 26.3816C21.5698 26.3504 21.5993 26.3198 21.6306 26.2897C21.6451 26.2757 21.6596 26.2618 21.6747 26.2478C21.716 26.2108 21.7589 26.1748 21.8036 26.1404C21.8121 26.1336 21.821 26.1272 21.8301 26.1207L21.8302 26.1207L21.846 26.1092C21.8856 26.0802 21.9269 26.0523 21.9688 26.0254C21.9746 26.022 21.9805 26.0182 21.9863 26.0144C21.9922 26.0107 21.998 26.0069 22.0039 26.0034C22.0078 26.0007 22.0117 25.9981 22.0162 25.9954C22.0658 25.9658 22.1172 25.939 22.1685 25.9137C22.172 25.9121 22.1752 25.9102 22.1783 25.9084L22.1842 25.9051L35.0413 19.7175C35.6445 19.4275 36.3549 19.4275 36.9581 19.7175L49.8153 25.9051C49.8194 25.9071 49.8233 25.9094 49.8272 25.9116L49.8315 25.9137C49.8828 25.939 49.9336 25.9658 49.9833 25.9954L49.9918 26.0007L49.9955 26.0029C50.0037 26.0079 50.0114 26.0129 50.0191 26.0179L50.0307 26.0254C50.0731 26.0523 50.1138 26.0802 50.1535 26.1092C50.168 26.1194 50.1825 26.1296 50.1964 26.1404C50.2405 26.1748 50.2835 26.2108 50.3248 26.2478C50.3361 26.2579 50.347 26.2685 50.3579 26.2791L50.358 26.2792L50.3689 26.2897C50.4001 26.3193 50.4302 26.3499 50.4587 26.3816C50.471 26.3944 50.4833 26.4073 50.495 26.4208C50.5312 26.4616 50.5653 26.5046 50.5977 26.5481C50.6071 26.5607 50.6159 26.5729 50.6248 26.5854L50.6311 26.5943C50.659 26.634 50.6853 26.6743 50.7098 26.7156C50.7154 26.7242 50.721 26.7328 50.7266 26.742C50.7556 26.7914 50.7812 26.8429 50.8058 26.8945C50.8103 26.9035 50.8142 26.9124 50.8182 26.9214L50.8242 26.9348C50.8477 26.9864 50.8689 27.039 50.8878 27.0922L50.889 27.0954L50.8901 27.0986C50.9096 27.1539 50.9252 27.2103 50.9397 27.2678L50.9498 27.3102C50.9621 27.3634 50.9721 27.4171 50.9799 27.4714L50.9804 27.4742L50.9804 27.4742C50.9813 27.4801 50.9822 27.4857 50.9827 27.4912C50.99 27.5444 50.9939 27.5981 50.9967 27.6524C50.9978 27.6722 50.9983 27.692 50.9989 27.7118ZM44.0653 27.7496L36 23.8678L27.9342 27.7496L36 31.6313L44.0653 27.7496ZM25.2857 31.0867L33.8571 35.2118V47.1004L25.2857 42.9753V31.0867ZM38.1429 47.1004L46.7143 42.9753V31.0867L38.1429 35.2118V47.1004Z" fill="#3E61FF"/>
<path fill-rule="evenodd" clip-rule="evenodd" d="M12.6864 22.0621C13.9785 23.3544 15.6756 24 17.3727 24C19.0698 24 20.7669 23.3544 22.059 22.0621C23.3108 20.81 24 19.1454 24 17.3749C24 15.6045 23.3108 13.9399 22.059 12.6878L15.8108 6.43849C13.2266 3.85384 9.02235 3.85384 6.43815 6.43849C3.85395 9.02315 3.85395 13.2281 6.43815 15.8128L12.6864 22.0621ZM9.56254 9.56286C9.99286 9.13247 10.5584 8.91728 11.1245 8.91728C11.69 8.91728 12.2555 9.13247 12.6864 9.56286L18.9346 15.8128C19.3522 16.2299 19.5818 16.7846 19.5818 17.3749C19.5818 17.9653 19.3522 18.52 18.9346 18.9371C18.0734 19.7985 16.672 19.7991 15.8108 18.9371L9.56254 12.6878C8.70076 11.8265 8.70076 10.4248 9.56254 9.56286Z" fill="#3E61FF"/>
<path fill-rule="evenodd" clip-rule="evenodd" d="M51.4407 22.0621C52.7326 23.3544 54.4294 24 56.1262 24C57.823 24 59.5198 23.3544 60.8116 22.0621L67.0587 15.8128C68.3104 14.5607 69 12.8961 69 11.1256C69 9.35515 68.3104 7.69054 67.0587 6.43849C64.4756 3.85384 60.2715 3.85384 57.6884 6.43849L51.4407 12.6878C50.1891 13.9399 49.5 15.6045 49.5 17.3749C49.5 19.1454 50.1891 20.81 51.4407 22.0621ZM60.8116 9.56286C61.2424 9.13247 61.8079 8.91728 62.3733 8.91728C62.9387 8.91728 63.5047 9.13247 63.9355 9.56286C64.3525 9.9806 64.5826 10.5353 64.5826 11.1256C64.5826 11.7154 64.3525 12.2707 63.9355 12.6878L57.6884 18.9371C56.8273 19.7991 55.4262 19.7991 54.5645 18.9371C54.1475 18.52 53.9174 17.9653 53.9174 17.3749C53.9174 16.7846 54.1475 16.2299 54.5645 15.8128L60.8116 9.56286Z" fill="#3E61FF"/>
<path fill-rule="evenodd" clip-rule="evenodd" d="M6.44074 67.0615C7.73265 68.3538 9.4295 69 11.1264 69C12.8232 69 14.5201 68.3538 15.812 67.0615L22.0593 60.8123C23.3109 59.5603 24 57.8957 24 56.1253C24 54.3548 23.3109 52.6903 22.0593 51.4382C19.4754 48.8536 15.2713 48.8542 12.688 51.4382L6.44074 57.6874C5.18909 58.9395 4.5 60.604 4.5 62.3745C4.5 64.1449 5.18909 65.8095 6.44074 67.0615ZM15.812 54.5631C16.2422 54.1322 16.8076 53.917 17.3736 53.917C17.9391 53.917 18.5045 54.1322 18.9353 54.5631C19.3529 54.9803 19.5824 55.5349 19.5824 56.1253C19.5824 56.7156 19.3529 57.2703 18.9353 57.6874L12.688 63.9367C11.827 64.7986 10.4258 64.7986 9.56467 63.9367C9.14708 63.5195 8.91757 62.9648 8.91757 62.3745C8.91757 61.7842 9.14708 61.2295 9.56467 60.8123L15.812 54.5631Z" fill="#3E61FF"/>
<path fill-rule="evenodd" clip-rule="evenodd" d="M57.6898 67.0615C58.9813 68.3538 60.6784 69 62.3755 69C64.0726 69 65.7698 68.3538 67.0619 67.0615C69.646 64.4769 69.646 60.2721 67.0619 57.6874L60.8136 51.4382C58.2294 48.8536 54.0252 48.8542 51.441 51.4382C50.1892 52.6903 49.5 54.3548 49.5 56.1253C49.5 57.8957 50.1892 59.5603 51.441 60.8123L57.6898 67.0615ZM54.5654 54.5631C54.9957 54.1322 55.5618 53.917 56.1273 53.917C56.6928 53.917 57.2589 54.1322 57.6898 54.5631L63.938 60.8123C64.7992 61.6737 64.7992 63.0753 63.938 63.9367C63.0768 64.7986 61.6754 64.7986 60.8136 63.9367L54.5654 57.6874C54.1483 57.2703 53.9182 56.7156 53.9182 56.1253C53.9182 55.5349 54.1483 54.9803 54.5654 54.5631Z" fill="#3E61FF"/>
</svg>
