<svg width="54" height="54" viewBox="0 0 54 54" fill="none" xmlns="http://www.w3.org/2000/svg">
<path fill-rule="evenodd" clip-rule="evenodd" d="M52.5288 6.51952L47.2578 1.25752C46.2318 0.23252 44.5538 0.23252 43.5278 1.25752C42.5038 2.28452 42.5038 3.95252 43.5278 4.97652L48.7998 10.2395C49.8568 11.2855 51.4528 11.3165 52.5288 10.2395C53.5658 9.21252 53.5658 7.54452 52.5288 6.51952Z" fill="#3E61FF"/>
<path fill-rule="evenodd" clip-rule="evenodd" d="M5.19186 10.2275L10.4649 4.9655C11.4899 3.9405 11.4899 2.2735 10.4649 1.2485C9.43886 0.222504 7.75986 0.222504 6.73486 1.2485L1.46286 6.5095C0.436859 7.5355 0.436859 9.2025 1.46286 10.2275C2.53986 11.3065 4.13486 11.2855 5.19186 10.2275Z" fill="#3E61FF"/>
<path fill-rule="evenodd" clip-rule="evenodd" d="M29.6359 30.6544C29.6359 31.4304 29.0039 32.0634 28.2219 32.0634H19.6409C18.8589 32.0634 18.2269 31.4304 18.2269 30.6544C18.2269 29.8774 18.8589 29.2464 19.6409 29.2464H26.8059V18.8144C26.8059 18.0404 27.4399 17.4054 28.2219 17.4054C29.0039 17.4054 29.6359 18.0404 29.6359 18.8144V30.6544ZM26.9949 5.75342C13.9029 5.75342 3.25391 16.3724 3.25391 29.4224C3.25391 36.3414 6.26891 42.5564 11.0229 46.8864L9.30291 48.6064C8.27791 49.6324 8.27791 51.2994 9.30291 52.3244C10.5259 53.5374 12.4109 53.0914 13.0339 52.3244L15.3429 50.0254C18.7909 51.9734 22.7589 53.1014 26.9949 53.1014C31.2319 53.1014 35.1979 51.9734 38.6479 50.0254L40.9579 52.3244C42.0339 53.3904 43.8889 53.1234 44.6869 52.3244C45.7119 51.2994 45.7119 49.6324 44.6869 48.6064L42.9679 46.8864C47.7329 42.5564 50.7369 36.3414 50.7369 29.4224C50.7369 16.3724 40.0869 5.75342 26.9949 5.75342Z" fill="#3E61FF"/>
</svg>
