<svg width="79" height="58" viewBox="0 0 79 58" fill="none" xmlns="http://www.w3.org/2000/svg">
<path fill-rule="evenodd" clip-rule="evenodd" d="M57.7269 21.3926L43.7159 11.3296C43.1509 7.75758 42.8689 6.44158 41.6459 3.05558C41.1759 1.45658 40.3299 0.798584 39.7659 0.798584C39.2949 0.798584 38.4499 1.45658 37.8859 3.05558C36.7569 6.44158 36.4749 7.75758 35.8169 11.3296L21.8039 21.3926C21.7109 21.4866 21.7109 21.5806 21.7109 21.6736V24.4026C21.7109 24.7776 21.9929 24.9666 22.2739 24.9666L37.1329 22.8046C37.4149 24.1196 37.7909 25.5296 38.1659 27.0356L34.7809 30.3266C34.3119 30.7016 34.6869 31.4556 35.2519 31.2676L39.1079 30.1396C39.2019 30.5146 39.3899 31.4556 39.7659 31.5476C40.2359 31.4556 40.3299 30.5146 40.4249 30.1396L44.2799 31.2676C44.8439 31.4556 45.2199 30.7016 44.8439 30.3266L41.3649 27.0356C41.8349 25.5296 42.1169 24.1196 42.3989 22.8046L57.2569 24.9666C57.6319 24.9666 57.9159 24.7776 57.9159 24.4026V21.6736C57.9159 21.5806 57.8199 21.4866 57.7269 21.3926Z" fill="#3E61FF"/>
<path fill-rule="evenodd" clip-rule="evenodd" d="M78.7904 46.9707L64.8724 36.9077C64.2134 33.4277 63.9324 32.0197 62.8044 28.6347C62.2394 27.1277 61.3924 26.4707 60.8284 26.3767C60.3584 26.4707 59.5124 27.1277 58.9474 28.6347C57.8184 32.0197 57.5374 33.4277 56.8794 36.9077L42.9624 46.9707C42.7734 47.0657 42.7734 47.1597 42.7734 47.3467V50.0747C42.7734 50.3557 43.0554 50.6377 43.3374 50.5447L58.1954 48.3817C58.4774 49.7927 58.8534 51.2017 59.3254 52.7067L55.8444 55.9037C55.3744 56.2807 55.7504 57.0337 56.3144 56.8447L60.1714 55.8107C60.3584 56.1877 60.4514 57.0337 60.8284 57.1277C61.2994 57.0337 61.3924 56.1877 61.5804 55.8107L65.4354 56.8447C66.0014 57.0337 66.3774 56.2807 65.9074 55.9037L62.4284 52.7067C62.8984 51.2017 63.1784 49.7927 63.5544 48.3817L78.3204 50.5447C78.6964 50.6377 78.9774 50.3557 78.9774 50.0747V47.3467C78.9774 47.1597 78.8834 47.0657 78.7904 46.9707Z" fill="#3E61FF"/>
<path fill-rule="evenodd" clip-rule="evenodd" d="M0.739484 46.9707L14.7515 36.9077C15.4095 33.4277 15.6925 32.0197 16.8215 28.6347C17.3845 27.1277 18.2315 26.4707 18.7005 26.3767C19.2655 26.4707 20.1125 27.1277 20.5815 28.6347C21.8045 32.0197 22.0865 33.4277 22.6505 36.9077L36.6635 46.9707C36.7565 47.0657 36.8505 47.1597 36.8505 47.3467V50.0747C36.8505 50.3557 36.5675 50.6377 36.1935 50.5447L21.3335 48.3817C21.0515 49.7927 20.7705 51.2017 20.3005 52.7067L23.7805 55.9037C24.1555 56.2807 23.7805 57.0337 23.2145 56.8447L19.3585 55.8107C19.2655 56.1877 19.1715 57.0337 18.7005 57.1277C18.3255 57.0337 18.1375 56.1877 18.0425 55.8107L14.1875 56.8447C13.6235 57.0337 13.2455 56.2807 13.7175 55.9037L17.1025 52.7067C16.7255 51.2017 16.3505 49.7927 16.0685 48.3817L1.20948 50.5447C0.928484 50.6377 0.646484 50.3557 0.646484 50.0747V47.3467C0.646484 47.1597 0.646484 47.0657 0.739484 46.9707Z" fill="#3E61FF"/>
</svg>
