<svg width="65" height="65" viewBox="0 0 65 65" fill="none" xmlns="http://www.w3.org/2000/svg">
<path fill-rule="evenodd" clip-rule="evenodd" d="M64.0594 9.05766L57.5154 7.74766C57.3244 7.70966 57.1404 7.52566 57.1024 7.33666L55.7924 0.791659C55.6424 0.0316594 55.0734 -0.140341 54.5274 0.407659L45.1044 9.82866C44.8304 10.1037 44.6714 10.6327 44.7474 11.0127L45.6834 15.6947L32.2134 29.1667C31.2544 30.1247 31.2544 31.6777 32.2134 32.6377C33.1724 33.5957 34.7234 33.5957 35.6844 32.6377L49.1534 19.1657L53.8374 20.1027C54.2164 20.1787 54.7474 20.0177 55.0194 19.7457L64.4414 10.3247C64.9904 9.77666 64.8194 9.21066 64.0594 9.05766Z" fill="#3E61FF"/>
<path fill-rule="evenodd" clip-rule="evenodd" d="M38.7741 19.3848L42.4771 15.6818C42.6131 15.5448 42.5901 15.3508 42.4241 15.2538C39.2821 13.4038 35.7491 12.4758 32.2161 12.4758C27.0561 12.4758 21.8971 14.4478 17.9591 18.3808C10.0861 26.2548 10.0871 39.0188 17.9591 46.8928C21.8971 50.8288 27.0551 52.7978 32.2161 52.7968C37.3731 52.7968 42.5331 50.8258 46.4691 46.8928C53.1041 40.2588 54.1421 30.1558 49.6001 22.4298C49.5011 22.2628 49.3091 22.2388 49.1691 22.3758L45.4661 26.0778C45.3291 26.2168 45.2861 26.4678 45.3661 26.6468C46.2161 28.5018 46.6771 30.5318 46.6771 32.6378C46.6771 36.4988 45.1731 40.1338 42.4411 42.8638C39.7091 45.5938 36.0781 47.0998 32.2161 47.0998C28.3531 47.0998 24.7211 45.5938 21.9881 42.8638C16.3501 37.2238 16.3501 28.0498 21.9881 22.4088C24.7211 19.6778 28.3521 18.1738 32.2151 18.1738C34.3191 18.1738 36.3481 18.6338 38.2081 19.4858C38.3831 19.5658 38.6351 19.5228 38.7741 19.3848Z" fill="#3E61FF"/>
<path fill-rule="evenodd" clip-rule="evenodd" d="M33.5835 24.5741C33.8585 24.3021 33.7715 24.0101 33.3895 23.9591C30.7715 23.6061 28.0275 24.4281 26.0165 26.4381C22.5935 29.8631 22.5935 35.4121 26.0165 38.8361C29.4405 42.2581 34.9895 42.2591 38.4135 38.8361C40.4235 36.8251 41.2485 34.0831 40.8955 31.4631C40.8435 31.0801 40.5505 30.9941 40.2785 31.2671L37.2965 34.2471C36.4015 35.1431 35.2145 35.6331 33.9495 35.6331C32.6865 35.6331 31.4985 35.1431 30.6045 34.2471C29.7095 33.3541 29.2165 32.1651 29.2165 30.9001C29.2165 29.6361 29.7095 28.4481 30.6045 27.5561L33.5835 24.5741Z" fill="#3E61FF"/>
<path fill-rule="evenodd" clip-rule="evenodd" d="M59.864 18.127L56.099 21.893C55.964 22.029 55.915 22.282 55.993 22.461C57.352 25.635 58.072 29.081 58.072 32.638C58.072 39.544 55.384 46.039 50.498 50.922C45.615 55.805 39.121 58.495 32.216 58.495C25.308 58.495 18.816 55.807 13.931 50.922C3.84795 40.839 3.84795 24.435 13.931 14.354C18.814 9.47103 25.308 6.77803 32.214 6.78003C35.771 6.77803 39.217 7.50003 42.39 8.86003C42.568 8.93803 42.822 8.89003 42.96 8.75303L46.724 4.98603C46.861 4.85103 46.834 4.66603 46.662 4.57803C42.142 2.24803 37.178 1.08203 32.214 1.08203C24.137 1.08203 16.062 4.16103 9.90195 10.325C-2.42305 22.648 -2.42305 42.627 9.90195 54.948C16.063 61.111 24.137 64.191 32.216 64.191C40.289 64.191 48.366 61.111 54.526 54.949C64.476 45.002 66.39 30.061 60.274 18.191C60.184 18.019 60 17.99 59.864 18.127Z" fill="#3E61FF"/>
</svg>
