<svg width="62" height="61" viewBox="0 0 62 61" fill="none" xmlns="http://www.w3.org/2000/svg">
<path fill-rule="evenodd" clip-rule="evenodd" d="M39.2146 26.6249L29.7766 35.9089C29.4596 36.2259 29.0446 36.3839 28.6306 36.3839C28.2136 36.3839 27.7996 36.2259 27.4836 35.9089L24.2396 32.6659C23.6076 32.0319 23.6076 31.0099 24.2396 30.3749C24.8736 29.7399 25.8986 29.7399 26.5316 30.3749L28.6306 32.4709L36.9226 24.3319C37.5566 23.6979 38.5816 23.6979 39.2146 24.3319C39.8506 24.9659 39.8506 25.9909 39.2146 26.6249ZM31.0566 10.8479C20.4186 10.8479 11.7656 19.5029 11.7656 30.1409C11.7656 40.7779 20.4186 49.4329 31.0566 49.4329C41.6936 49.4329 50.3476 40.7779 50.3476 30.1409C50.3476 19.5029 41.6936 10.8479 31.0566 10.8479Z" fill="#3E61FF"/>
<path fill-rule="evenodd" clip-rule="evenodd" d="M31.0558 53.291C18.2728 53.291 7.90577 42.921 7.90577 30.141C7.90577 17.358 18.2728 6.98899 31.0558 6.98899C43.8418 6.98899 54.2058 17.358 54.2058 30.141C54.2058 42.924 43.8418 53.291 31.0558 53.291ZM60.0128 27.394L58.7928 26.228C57.2158 24.715 56.4208 21.76 57.0348 19.661L57.5088 18.045C58.1208 15.945 56.8838 13.8 54.7568 13.283L53.1258 12.886C50.9998 12.37 48.8348 10.204 48.3148 8.07699L47.9118 6.44299C47.3918 4.31599 45.2508 3.07699 43.1468 3.69099L41.5348 4.16599C39.4318 4.77899 36.4768 3.98799 34.9678 2.40199L33.8028 1.18699C32.2908 -0.395012 29.8188 -0.395012 28.3048 1.18699L27.1428 2.40199C25.6298 3.98399 22.6748 4.77399 20.5758 4.16599L18.9638 3.69099C16.8658 3.07699 14.7198 4.31599 14.2018 6.44299L13.7968 8.07699C13.2808 10.204 11.1148 12.37 8.98977 12.886L7.34977 13.283C5.22377 13.8 3.98777 15.94 4.60277 18.045L5.07677 19.661C5.69077 21.76 4.89977 24.72 3.31877 26.228L2.10177 27.394C0.520766 28.905 0.520766 31.379 2.10177 32.892L3.31877 34.053C4.89977 35.565 5.69077 38.517 5.07677 40.616L4.60277 42.24C3.98777 44.339 5.22377 46.485 7.34977 46.998L8.98577 47.399C11.1128 47.916 13.2768 50.082 13.7968 52.206L14.1948 53.839C14.7148 55.965 16.8568 57.204 18.9598 56.59L20.5728 56.115C22.6718 55.501 25.6298 56.296 27.1388 57.88L28.2998 59.09C29.8138 60.671 32.2858 60.671 33.7978 59.09L34.9608 57.88C36.4728 56.296 39.4248 55.501 41.5278 56.115L43.1408 56.59C45.2428 57.204 47.3888 55.965 47.9058 53.839L48.3068 52.206C48.8268 50.082 50.9918 47.916 53.1178 47.395L54.7498 46.998C56.8758 46.478 58.1148 44.335 57.5008 42.233L57.0258 40.616C56.4118 38.515 57.2068 35.558 58.7898 34.05L60.0008 32.889C61.5908 31.375 61.5908 28.902 60.0128 27.394Z" fill="#3E61FF"/>
</svg>
