<svg width="103" height="89" viewBox="0 0 103 89" fill="none" xmlns="http://www.w3.org/2000/svg">
<path d="M86 10C84.896 10 84 10.896 84 12C84 13.104 84.896 14 86 14C87.104 14 88 13.104 88 12C88 10.8958 87.104 10 86 10Z" fill="white"/>
<path fill-rule="evenodd" clip-rule="evenodd" d="M77.0991 0.000197047C84.3898 0.000197047 91.049 2.91097 95.85 8.19635C100.461 13.2723 103 20.0822 103 27.3719C103 46.0925 84.1261 62.0467 58.4139 83.7812C56.5817 85.3299 54.7148 86.9081 52.8175 88.5186C52.4395 88.8396 51.9697 89 51.5 89C51.0303 89 50.5605 88.8396 50.1825 88.5186C48.2618 86.8882 46.3718 85.2908 44.517 83.7232C18.8932 62.0668 0 46.099 0 27.3719C0 12.5048 10.6408 0 25.9009 0C33.8733 0 41.1479 3.02683 46.9382 8.75359C48.9518 10.7451 50.4567 12.7343 51.5 14.3129C52.5433 12.7341 54.0482 10.7447 56.0618 8.75359C61.8521 3.02703 69.1269 0.000197047 77.0991 0.000197047ZM47.0591 80.6658C48.5182 81.8991 49.9993 83.151 51.5 84.423C53.3325 82.8698 55.1467 81.3399 56.9357 79.8312C80.053 60.3363 98.9766 44.378 98.9768 27.3719C98.9768 14.0141 89.5716 3.94113 77.0993 3.94113C70.174 3.94113 64.0911 6.46037 59.0198 11.4291C55.1561 15.2146 53.3534 19.0775 53.3357 19.1161C53.0104 19.8227 52.2918 20.2785 51.5008 20.2785H51.497C50.7058 20.2769 49.9882 19.8229 49.6645 19.1161C49.6468 19.0775 47.8441 15.2144 43.9804 11.4291C38.9089 6.46056 32.826 3.94113 25.9009 3.94113C13.4286 3.94113 4.02344 14.0141 4.02344 27.3719C4.02344 44.2889 22.3923 59.8156 47.0591 80.6658Z" fill="white"/>
<path d="M93.3219 17.0416C92.7734 16.0905 91.4808 15.7242 90.4351 16.2227C89.3892 16.7214 88.9859 17.8965 89.5344 18.8474C90.946 21.2946 91.7233 24.2172 91.7233 27.0767C91.7233 32.6948 88.7824 38.6575 82.468 45.8418C81.7306 46.6805 81.881 47.904 82.8035 48.5744C83.7319 49.249 85.0763 49.1028 85.8089 48.2693C92.7617 40.3587 96 33.6245 96 27.0767C96 23.5491 95.0739 20.0791 93.3219 17.0416Z" fill="white"/>
<path fill-rule="evenodd" clip-rule="evenodd" d="M59.6132 38.0755H70.9717C72.0919 38.0755 73 38.9624 73 40.0566V51.9434C73 53.0376 72.0919 53.9245 70.9717 53.9245H59.6132V65.0189C59.6132 66.113 58.7051 67 57.5849 67H45.4151C44.2949 67 43.3868 66.113 43.3868 65.0189V53.9245H32.0283C30.9081 53.9245 30 53.0376 30 51.9434V40.0566C30 38.9624 30.9081 38.0755 32.0283 38.0755H43.3868V26.9811C43.3868 25.887 44.2949 25 45.4151 25H57.5849C58.7051 25 59.6132 25.887 59.6132 26.9811V38.0755ZM57.5849 49.9621H68.9434V42.0375H57.5849C56.4647 42.0375 55.5566 41.1506 55.5566 40.0564V28.9621H47.4434V40.0564C47.4434 41.1506 46.5353 42.0375 45.4151 42.0375H34.0566V49.9621H45.4151C46.5353 49.9621 47.4434 50.849 47.4434 51.9432V63.0375H55.5566V51.9432C55.5566 50.849 56.4647 49.9621 57.5849 49.9621Z" fill="white"/>
</svg>
