<svg width="110" height="110" viewBox="0 0 110 110" fill="none" xmlns="http://www.w3.org/2000/svg">
<path d="M50.4145 74.4151C51.1952 73.6329 51.1952 72.3671 50.4145 71.5849C49.6331 70.805 48.3671 70.805 47.5849 71.5849C46.805 72.3671 46.805 73.6329 47.5849 74.4151C48.3671 75.195 49.6331 75.195 50.4145 74.4151Z" fill="white"/>
<path fill-rule="evenodd" clip-rule="evenodd" d="M64.5 47C51.5421 47 41 36.4572 41 23.4996C41 10.5419 51.5421 0 64.5 0C77.4579 0 88 10.5419 88 23.4996C88 36.4572 77.4579 47 64.5 47ZM64.5 42.727C75.1022 42.727 83.7277 34.1016 83.7277 23.4996C83.7277 12.8984 75.1022 4.27303 64.5 4.27303C53.8978 4.27303 45.2723 12.8984 45.2723 23.4996C45.2723 34.1016 53.8978 42.727 64.5 42.727Z" fill="white"/>
<path fill-rule="evenodd" clip-rule="evenodd" d="M24.7473 109.369C25.5801 110.203 26.9358 110.212 27.7795 109.386L38.196 99.1886C39.9656 97.4301 40.5038 94.8265 39.7256 92.5632L41.9662 90.4159C43.1725 89.258 44.7608 88.6199 46.4398 88.6199H75.002C80.0692 88.6199 84.8585 86.6861 88.4893 83.1749C88.4978 83.1667 88.5016 83.1638 88.5051 83.1612L88.5059 83.1606C88.5385 83.1361 88.5654 83.1041 92.0668 78.9429C94.7683 75.7323 99.5382 70.0635 107.975 60.0435C111.033 56.448 110.576 51.0489 106.954 48.0065C103.355 44.9925 97.9639 45.4254 94.8972 48.9592L82.2191 61.908C80.6182 59.9501 78.177 58.7296 75.5393 58.7296H51.5809C48.1717 57.3123 44.5543 56.5949 40.8219 56.5949C30.476 56.5949 21.4422 61.3433 16.5941 70.2461C14.5516 69.8615 12.3975 70.4755 10.8478 72.0155L0.626895 82.2022C-0.207564 83.0339 -0.209243 84.3795 0.623537 85.2137L24.7473 109.369ZM40.8211 60.8644C44.1119 60.8644 47.2936 61.5226 50.2797 62.8207C50.5517 62.9391 50.8447 63 51.141 63H75.5393C77.8689 63 79.8366 64.8879 79.8366 67.2696C79.8366 69.6246 77.9092 71.54 75.5393 71.54H58.0098C56.8236 71.54 55.8615 72.496 55.8615 73.6747C55.8615 74.8543 56.8236 75.8095 58.0098 75.8095H75.5393C80.2782 75.8095 84.1332 71.9788 84.1332 67.2696C84.1332 66.8942 84.1063 66.5221 84.0576 66.1534C88.0531 62.0721 90.9305 59.1336 92.9967 57.0235L93.0054 57.0146C97.274 52.6554 98.0753 51.8371 98.1251 51.7781C99.6563 49.982 102.375 49.7542 104.183 51.2692C105.993 52.79 106.222 55.4895 104.687 57.2956L85.4159 80.1884C82.6019 82.8729 78.9073 84.3503 75.002 84.3503H46.4398C43.641 84.3503 40.9915 85.4139 38.9818 87.3435L37.1559 89.0945L20.324 72.3692C24.2579 65.0355 31.6395 60.8644 40.8211 60.8644ZM16.5488 74.7325C15.6849 74.202 14.5969 74.3288 13.8884 75.0329L5.17864 83.713L26.2894 104.851L35.1696 96.1579C35.9705 95.3621 36.0167 94.0023 35.1579 93.1489C17.0568 75.1865 16.8667 74.9156 16.6068 74.766C16.5896 74.756 16.572 74.7466 16.5488 74.7325Z" fill="white"/>
<path d="M61.425 10.1435V12.6545C58.9296 13.5387 57.137 15.9207 57.137 18.7148C57.137 22.259 60.0219 25.1435 63.5685 25.1435C64.7504 25.1435 65.7121 26.1047 65.7121 27.2861C65.7121 28.4675 64.7504 29.4287 63.5685 29.4287C62.653 29.4287 61.6637 28.8535 60.785 27.8077C60.0227 26.9018 58.6708 26.7854 57.7644 27.5465C56.8581 28.3084 56.7408 29.6598 57.5031 30.5657C58.649 31.928 59.9968 32.8775 61.425 33.3564V35.8574C61.425 37.0413 62.3849 38 63.5685 38C64.7521 38 65.7121 37.0413 65.7121 35.8574V33.3464C68.2074 32.4613 70 30.0793 70 27.2861C70 23.741 67.1151 20.8574 63.5685 20.8574C62.3866 20.8574 61.425 19.8962 61.425 18.7148C61.425 17.5334 62.3866 16.5713 63.5685 16.5713C64.3283 16.5713 65.1299 16.959 65.8871 17.6916C66.7382 18.5147 68.0952 18.492 68.9186 17.6422C69.742 16.7915 69.7194 15.4351 68.8692 14.6121C67.7811 13.5596 66.6921 12.9643 65.7121 12.6394V10.1435C65.7121 8.95953 64.7521 8 63.5685 8C62.3849 8 61.425 8.95953 61.425 10.1435Z" fill="white"/>
</svg>
