<svg width="86" height="112" viewBox="0 0 86 112" fill="none" xmlns="http://www.w3.org/2000/svg">
<path fill-rule="evenodd" clip-rule="evenodd" d="M75.6099 8.58872C68.7282 2.67742 59.3505 0.971166 49.2042 3.78561C42.1766 5.7349 36.3315 10.4459 31.832 17.7883C28.3115 23.5324 25.6063 30.9004 23.7913 39.6874C22.5324 45.7831 21.8779 51.6681 21.545 56.5294C16.1537 31.0244 15.6518 1.9527 15.6468 1.61626C15.6352 0.844947 15.0894 0.185851 14.3355 0.0329447C13.5813 -0.120618 12.8231 0.274008 12.5133 0.980135C12.4282 1.17417 10.4114 5.83202 8.8831 14.6956C7.9636 20.0272 7.1161 27.629 7.22801 37.2022C4.64754 27.0042 3.4017 20.7473 3.37509 20.6117C3.21562 19.8017 2.48068 19.2351 1.65914 19.2926C0.837593 19.3484 0.18555 20.0079 0.136685 20.8322C0.129922 20.9442 -0.508596 32.2186 1.03349 48.8635C2.45603 64.2179 6.07815 87.4544 15.2563 110.957C15.5091 111.604 16.1265 112 16.7803 112C16.9786 112 17.1806 111.963 17.3765 111.887C18.2178 111.556 18.6328 110.604 18.3034 109.761C9.27467 86.6407 5.70403 63.7565 4.2985 48.6304C3.84367 43.736 3.57993 39.3153 3.43399 35.5189C6.4898 47.8595 11.7463 67.0433 19.4504 88.4139C19.7575 89.2661 20.6954 89.7069 21.5453 89.3989C22.3949 89.0909 22.8349 88.1503 22.5276 87.2982C22.2156 86.4331 21.9091 85.5727 21.6052 84.715C21.6347 84.0813 21.9394 78.3603 23.5345 72.4274C25.0121 66.9319 27.9154 60.1469 33.3558 59.0317C38.7394 57.9281 47.9655 63.9436 59.3343 75.9702C62.0433 78.8361 64.598 81.7488 66.8462 84.4206C64.6931 82.755 62.3657 80.9844 59.9929 79.2288C54.5052 75.1683 49.8464 71.9776 46.1464 69.7453C39.5754 65.7808 37.205 65.5448 35.8747 65.7822C33.6053 66.1866 31.1184 68.9337 28.3107 86.1454C27.5993 90.506 27.0293 94.867 26.6257 98.2524C26.0901 96.8725 25.559 95.4861 25.0341 94.095C24.7143 93.2476 23.7699 92.8208 22.9248 93.1411C22.0797 93.4618 21.6539 94.4085 21.9735 95.256C23.9951 100.614 26.1037 105.909 28.2411 110.996C28.5046 111.623 29.1111 112 29.7496 112C29.9614 112 30.1767 111.958 30.3842 111.871C31.2168 111.519 31.6073 110.557 31.2565 109.722C30.5689 108.085 29.8848 106.425 29.2051 104.75C29.3152 103.617 30.1139 95.5983 31.4239 87.3925C33.9936 71.2966 36.1422 69.2421 36.5017 69.0052C36.909 68.9685 38.717 69.0927 44.4551 72.554C48.0661 74.7323 52.6367 77.8638 58.0403 81.8614C67.2504 88.6756 75.7836 95.7272 75.9214 95.8411L75.9225 95.842C76.5577 96.3679 77.4844 96.3381 78.085 95.772C78.6853 95.2059 78.7719 94.2803 78.2872 93.6118C78.2137 93.5105 70.8333 83.368 61.7302 73.7351C49.1924 60.4667 39.4264 54.4388 32.7005 55.8165C29.2153 56.531 26.5727 58.7994 24.5688 61.7709C24.5969 60.9066 24.6358 59.975 24.6875 58.9878C25.8951 55.3895 30.1008 43.9885 37.1334 36.4604C39.8721 35.5042 42.578 35.2111 45.1813 35.5948C46.0751 35.7263 46.9064 35.1063 47.0378 34.2099C47.1691 33.3132 46.5506 32.4798 45.6567 32.3483C44.5188 32.1807 43.3677 32.1213 42.208 32.165C44.4584 30.7385 46.9136 29.7872 49.5733 29.5518C55.402 29.0362 60.2549 30.6521 63.9961 34.3556C71.1535 41.4405 73.1263 54.6919 73.5887 63.7784C72.8058 61.8 71.8782 59.6195 70.8045 57.3515C65.4549 46.0519 59.3125 38.4372 52.548 34.7185C51.7554 34.2832 50.7611 34.5739 50.3268 35.3684C49.8924 36.1629 50.1826 37.1602 50.9749 37.5957C65.7492 45.7177 73.5604 73.6874 73.6374 73.9689C73.8342 74.6866 74.4844 75.1751 75.2139 75.1751C75.2663 75.1751 75.3193 75.1725 75.3725 75.1674C76.1644 75.0906 76.7866 74.4541 76.8465 73.6585C76.8688 73.3636 77.3806 66.3378 76.3828 57.7054C75.0231 45.945 71.6304 37.3048 66.2987 32.0243C61.8415 27.61 56.1173 25.6782 49.2853 26.2832C44.8613 26.6748 40.6109 28.7085 36.652 32.3282C33.5765 35.14 30.666 38.9178 28.0011 43.5567C27.1626 45.0162 26.403 46.4647 25.7213 47.8577C26.0541 45.4086 26.4754 42.8637 27.0075 40.2946C28.7476 31.894 31.3137 24.8915 34.6345 19.4816C36.2399 16.8662 38.0252 14.6247 39.9816 12.7649C46.7016 11.0221 55.6827 13.2569 64.0391 18.7569C72.9786 24.6404 79.6674 33.2723 82.3903 42.4395C82.6122 43.1859 83.3258 43.673 84.1004 43.6057C84.8742 43.5381 85.4939 42.9343 85.5836 42.1608C87.2838 27.4973 83.742 15.5745 75.6099 8.58872ZM19.1068 77.4925C16.1516 68.7375 13.6359 60.5166 11.5406 53.192C9.56219 36.173 10.7408 23.2549 12.0811 15.408C12.3054 14.0953 12.5414 12.8764 12.7805 11.7545C13.5266 25.2477 15.5988 49.6773 21.2298 68.7604C20.2052 71.7654 19.5381 74.8487 19.1068 77.4925ZM45.2175 8.91772C51.661 9.03278 58.9846 11.506 65.8345 16.0142C73.1252 20.8127 79.0263 27.3448 82.7245 34.5577C82.6011 24.3668 79.4152 16.1785 73.481 11.0807C67.4522 5.9018 59.1402 4.43421 50.0763 6.94809C48.3809 7.4184 46.7603 8.07575 45.2175 8.91772Z" fill="white"/>
</svg>
