<svg width="92" height="92" viewBox="0 0 92 92" fill="none" xmlns="http://www.w3.org/2000/svg">
<path d="M90 10C89.4742 10 88.9578 10.2141 88.5859 10.5859C88.2141 10.9578 88 11.4742 88 12C88 12.5258 88.2141 13.0422 88.5859 13.4141C88.9578 13.7859 89.4742 14 90 14C90.5258 14 91.0422 13.7859 91.4141 13.4141C91.7859 13.0422 92 12.5258 92 12C92 11.4742 91.7859 10.9578 91.4141 10.5859C91.0422 10.2141 90.5258 10 90 10Z" fill="white"/>
<path fill-rule="evenodd" clip-rule="evenodd" d="M83.2367 75.8281H83.9141C88.3726 75.8281 92 79.4556 92 83.9141C92 88.3726 88.3726 92 83.9141 92H8.08594C3.62744 92 0 88.3726 0 83.9141C0 79.4556 3.62744 75.8281 8.08594 75.8281H11.3926V69.4373C11.3926 64.0502 15.7753 59.6675 21.1624 59.6675H23.1671L28.2278 47.7463C29.5123 44.7204 32.4659 42.7656 35.7529 42.7656H56.49C56.563 42.7656 56.6353 42.7677 56.7083 42.7698L56.7104 42.7698V36.897L53.2338 27.768C53.1559 27.5638 53.1166 27.3469 53.1166 27.1286V13.2969C53.1166 13.1516 53.1356 13.0112 53.1678 12.8757C51.8047 11.5098 50.9604 9.62521 50.9604 7.54688C50.9604 3.38528 54.3456 0 58.5072 0C60.1644 0 61.6981 0.538361 62.944 1.44803C63.0064 1.44101 63.0696 1.4375 63.1342 1.4375H90.2031C91.1956 1.4375 92 2.24188 92 3.23438C92 4.22687 91.1956 5.03125 90.2031 5.03125H65.621C65.9004 5.81879 66.0534 6.66528 66.0534 7.54688C66.0534 8.42847 65.9004 9.27496 65.621 10.0625H82.956C83.9478 10.0625 84.7528 10.8669 84.7528 11.8594C84.7528 12.8519 83.9478 13.6562 82.956 13.6562H63.8979V27.1286C63.8979 27.3469 63.8578 27.5638 63.7799 27.768L60.3041 36.897V43.7083C61.9346 44.5681 63.2619 45.9726 64.0144 47.7463L69.0758 59.6675H73.4669C78.854 59.6675 83.2367 64.0502 83.2367 69.4373V75.8281ZM60.3041 14.8755C59.7278 15.0172 59.1263 15.0938 58.5072 15.0938C57.8875 15.0938 57.2866 15.0172 56.7104 14.8762V24.4073H60.3041V14.8755ZM59.8458 28.0018L58.5072 31.5169L57.168 28.0018H59.8458ZM62.4604 7.54688C62.4604 5.36676 60.6866 3.59375 58.5072 3.59375C56.3271 3.59375 54.5541 5.36676 54.5541 7.54688C54.5541 9.72699 56.3271 11.5 58.5072 11.5C60.6866 11.5 62.4604 9.72699 62.4604 7.54688ZM60.7063 49.1501L65.1711 59.6675H47.9183V46.3594H56.49C58.3318 46.3594 59.9868 47.455 60.7063 49.1501ZM35.7529 46.3594C33.9111 46.3594 32.2553 47.455 31.5359 49.1501L27.071 59.6675H44.3246V46.3594H35.7529ZM14.9864 69.4373C14.9864 66.0316 17.7568 63.2612 21.1624 63.2612H73.4669C76.8726 63.2612 79.643 66.0316 79.643 69.4373V75.8281H75.9664C75.1585 72.6478 72.2695 70.2859 68.8428 70.2859C65.4168 70.2859 62.5277 72.6478 61.7198 75.8281H35.1472C34.3393 72.6478 31.4495 70.2859 28.0235 70.2859C24.5975 70.2859 21.7078 72.6478 20.8999 75.8281H14.9864V69.4373ZM65.5536 75.8281H72.1326C71.4925 74.6679 70.2578 73.8796 68.8428 73.8796C67.4284 73.8796 66.1938 74.6679 65.5536 75.8281ZM31.3127 75.8281H24.7337C25.3738 74.6679 26.6092 73.8796 28.0235 73.8796C29.4379 73.8796 30.6732 74.6679 31.3127 75.8281ZM8.08594 88.4062H83.9141C86.3911 88.4062 88.4062 86.3911 88.4062 83.9141C88.4062 81.437 86.3911 79.4219 83.9141 79.4219H8.08594C5.60892 79.4219 3.59375 81.437 3.59375 83.9141C3.59375 86.3911 5.60892 88.4062 8.08594 88.4062Z" fill="white"/>
<path d="M12 82C11.4742 82 10.9578 82.2141 10.5859 82.5859C10.2141 82.9578 10 83.4742 10 84C10 84.5258 10.2141 85.0422 10.5859 85.4141C10.9578 85.7859 11.4742 86 12 86C12.5258 86 13.0422 85.7859 13.4141 85.4141C13.7859 85.0422 14 84.5258 14 84C14 83.4742 13.7859 82.9578 13.4141 82.5859C13.0422 82.2141 12.5258 82 12 82Z" fill="white"/>
<path d="M46 82C45.4742 82 44.9578 82.2141 44.5859 82.5859C44.2141 82.9578 44 83.4742 44 84C44 84.5258 44.2141 85.0422 44.5859 85.4141C44.9578 85.7859 45.4742 86 46 86C46.5258 86 47.0422 85.7859 47.4141 85.4141C47.7859 85.0422 48 84.5258 48 84C48 83.4742 47.7859 82.9578 47.4141 82.5859C47.0422 82.2141 46.5258 82 46 82Z" fill="white"/>
<path d="M34 82C33.4742 82 32.9578 82.2141 32.5859 82.5859C32.2141 82.9578 32 83.4742 32 84C32 84.5258 32.2141 85.0422 32.5859 85.4141C32.9578 85.7859 33.4742 86 34 86C34.5258 86 35.0422 85.7859 35.4141 85.4141C35.7859 85.0422 36 84.5258 36 84C36 83.4742 35.7859 82.9578 35.4141 82.5859C35.0422 82.2141 34.5258 82 34 82Z" fill="white"/>
<path d="M23 82C22.4742 82 21.9578 82.2141 21.5859 82.5859C21.2141 82.9578 21 83.4742 21 84C21 84.5258 21.2141 85.0422 21.5859 85.4141C21.9578 85.7859 22.4742 86 23 86C23.5258 86 24.0422 85.7859 24.4141 85.4141C24.7859 85.0422 25 84.5258 25 84C25 83.4742 24.7859 82.9578 24.4141 82.5859C24.0422 82.2141 23.5258 82 23 82Z" fill="white"/>
<path d="M80 82C79.4742 82 78.9578 82.2141 78.5859 82.5859C78.2141 82.9578 78 83.4742 78 84C78 84.5258 78.2141 85.0422 78.5859 85.4141C78.9578 85.7859 79.4742 86 80 86C80.5258 86 81.0422 85.7859 81.4141 85.4141C81.7859 85.0422 82 84.5258 82 84C82 83.4742 81.7859 82.9578 81.4141 82.5859C81.0422 82.2141 80.5258 82 80 82Z" fill="white"/>
<path d="M57 82C56.4742 82 55.9578 82.2141 55.5859 82.5859C55.2141 82.9578 55 83.4742 55 84C55 84.5258 55.2141 85.0422 55.5859 85.4141C55.9578 85.7859 56.4742 86 57 86C57.5258 86 58.0422 85.7859 58.4141 85.4141C58.7859 85.0422 59 84.5258 59 84C59 83.4742 58.7859 82.9578 58.4141 82.5859C58.0422 82.2141 57.5258 82 57 82Z" fill="white"/>
<path d="M69 82C68.4742 82 67.9578 82.2141 67.5859 82.5859C67.2141 82.9578 67 83.4742 67 84C67 84.5258 67.2141 85.0422 67.5859 85.4141C67.9578 85.7859 68.4742 86 69 86C69.5258 86 70.0422 85.7859 70.4141 85.4141C70.7859 85.0422 71 84.5281 71 84C71 83.4719 70.7859 82.9578 70.4141 82.5859C70.0422 82.2141 69.5258 82 69 82Z" fill="white"/>
<path fill-rule="evenodd" clip-rule="evenodd" d="M3.04016 29.6815L14.7625 17.7122C15.0693 18.6932 15.6015 19.6167 16.3626 20.3939C17.1258 21.1732 18.033 21.7173 18.9979 22.0299L0.522463 40.8956C-0.172531 41.6053 -0.172531 42.7568 0.522463 43.4672C0.870308 43.8224 1.32598 44 1.78236 44C2.23803 44 2.69371 43.8224 3.04156 43.4672L22.4694 23.629L30.7544 32.089C31.7923 33.1489 33.1726 33.7328 34.6405 33.7328C35.4927 33.7328 36.315 33.5346 37.058 33.1624L41.9598 38.167C42.3077 38.5222 42.7634 38.6998 43.219 38.6998C43.6747 38.6998 44.1304 38.5222 44.4782 38.167C45.1739 37.4566 45.1739 36.3051 44.4782 35.5954L39.5771 30.59C39.9416 29.8306 40.1357 28.991 40.1357 28.1207C40.1357 26.6218 39.5639 25.2124 38.5259 24.1532L25.6007 10.9543C25.5979 10.9514 25.5951 10.9493 25.5916 10.9465C24.3554 9.69121 22.7164 9 20.9716 9C19.2212 9 17.5752 9.69618 16.3369 10.9607L0.521767 27.1099C-0.173922 27.8203 -0.173922 28.9718 0.521767 29.6822C1.21746 30.3918 2.34447 30.3918 3.04016 29.6815ZM36.5738 28.1207C36.5738 28.6486 36.3727 29.1437 36.0082 29.5167V29.5174H36.0075C35.6423 29.8903 35.1567 30.0956 34.6405 30.0956C34.1243 30.0956 33.6387 29.8903 33.2735 29.5174L24.9885 21.0574L25.6069 20.4258C26.3555 19.6615 26.8988 18.7444 27.2126 17.7441L36.0075 26.7248C36.3727 27.0978 36.5738 27.5936 36.5738 28.1207ZM23.0886 13.533L23.0872 13.5316C22.5216 12.9547 21.7709 12.6372 20.9723 12.6372C20.2195 12.6372 19.5106 12.9228 18.9582 13.4371C18.9553 13.4405 18.9524 13.444 18.9495 13.4475C18.9275 13.4738 18.9056 13.5 18.881 13.5244C17.7206 14.7094 17.7206 16.6374 18.881 17.8223C20.0414 19.0065 21.9295 19.0072 23.0899 17.8223C23.1352 17.7761 23.1818 17.7328 23.2305 17.693C23.7035 17.1375 23.9644 16.4363 23.9644 15.6933C23.9644 14.877 23.6535 14.1105 23.0886 13.533Z" fill="white"/>
</svg>
