<svg width="103" height="110" viewBox="0 0 103 110" fill="none" xmlns="http://www.w3.org/2000/svg">
<path d="M24 27C22.896 27 22 27.896 22 29C22 30.104 22.896 31 24 31C25.104 31 26 30.104 26 29C26 27.896 25.104 27 24 27Z" fill="white"/>
<path d="M43.7999 67.8H37.2V61.2001C37.2 59.9852 36.2148 59 34.9999 59C33.785 59 32.8 59.9852 32.8 61.2001V67.8H26.2001C24.9852 67.8 24 68.7852 24 69.9999C24 71.2146 24.9852 72.2 26.2001 72.2H32.8V78.7999C32.8 80.0148 33.7852 81 34.9999 81C36.2146 81 37.2 80.0148 37.2 78.7999V72.2H43.7999C45.0148 72.2 46 71.2148 46 69.9999C46 68.785 45.015 67.8 43.7999 67.8Z" fill="white"/>
<path fill-rule="evenodd" clip-rule="evenodd" d="M100.702 69.1762C95.9649 60.9507 85.49 58.1356 77.2832 62.8858L68.5781 67.9239V49.2677C68.5781 46.9614 67.8172 44.6726 66.4351 42.8228L55.7199 28.5011V22.4026C58.2141 21.5157 60.006 19.1279 60.006 16.327V6.44488C60.0056 2.89115 57.1216 0 53.5765 0H15.0015C11.4565 0 8.57223 2.89115 8.57223 6.44488V16.3272C8.57223 19.1277 10.3641 21.5159 12.8583 22.4028V28.5014L2.14231 42.8239C0.760823 44.6728 0 46.9614 0 49.2677V90.8743C0 96.7973 4.8069 101.616 10.7152 101.616H45.1563C49.9615 109.69 60.3228 112.393 68.4448 107.691L94.4276 92.653C102.562 87.944 105.464 77.4466 100.702 69.1762ZM12.8583 6.44488C12.8583 5.26023 13.8198 4.29644 15.0013 4.29644H53.5763C54.7581 4.29644 55.7195 5.26023 55.7195 6.44488V16.3272C55.7195 17.5119 54.7581 18.4755 53.5763 18.4755H15.0015C13.8198 18.4755 12.8586 17.5117 12.8586 16.3272V6.44488H12.8583ZM16.7158 30.5063L5.57223 45.4005C4.88663 46.3181 4.46035 47.417 4.33176 48.5525H64.2463C64.1175 47.4173 63.6912 46.3183 63.005 45.3999L52.505 31.3659H32.146C30.9625 31.3659 30.0028 30.4038 30.0028 29.2174C30.0028 28.0311 30.9625 27.069 32.146 27.069H51.4334V22.7723H17.1445V29.2172C17.1445 29.6821 16.994 30.1346 16.7158 30.5063ZM10.7154 97.3192C7.17039 97.3192 4.28633 94.428 4.28633 90.8743V88.7046H43.2223C42.5427 91.49 42.5472 94.4652 43.3254 97.3194H10.7154V97.3192ZM4.28612 84.4292H44.9032C46.4019 81.7256 48.5913 79.4927 51.3001 77.9242L64.2917 70.4042V52.8487H4.28612V84.4292ZM66.302 103.97C60.1518 107.53 52.2928 105.425 48.739 99.2553C45.1683 93.0262 47.3322 85.1835 53.4437 81.6448L65.0761 74.9121L77.9345 97.2375L66.302 103.97ZM81.6464 95.0893L92.2845 88.9321C98.3893 85.3981 100.56 77.525 96.9904 71.3242C93.4366 65.1543 85.5804 63.0452 79.4261 66.6069L68.7879 72.7634L81.6464 95.0893Z" fill="white"/>
</svg>
