<svg width="97" height="97" viewBox="0 0 97 97" fill="none" xmlns="http://www.w3.org/2000/svg">
<path fill-rule="evenodd" clip-rule="evenodd" d="M31 31.5C31 37.2908 26.2908 42 20.5 42C14.7092 42 10 37.2908 10 31.5C10 25.7092 14.7092 21 20.5 21C26.2908 21 31 25.7092 31 31.5ZM27.5 31.5C27.5 27.6395 24.3605 24.5 20.5 24.5C16.6395 24.5 13.5 27.6395 13.5 31.5C13.5 35.3605 16.6395 38.5 20.5 38.5C24.3605 38.5 27.5 35.3605 27.5 31.5Z" fill="white"/>
<path fill-rule="evenodd" clip-rule="evenodd" d="M87 31.5C87 37.2908 82.2908 42 76.5 42C70.7092 42 66 37.2908 66 31.5C66 25.7092 70.7092 21 76.5 21C82.2908 21 87 25.7092 87 31.5ZM83.5 31.5C83.5 27.6395 80.3605 24.5 76.5 24.5C72.6395 24.5 69.5 27.6395 69.5 31.5C69.5 35.3605 72.6395 38.5 76.5 38.5C80.3605 38.5 83.5 35.3605 83.5 31.5Z" fill="white"/>
<path fill-rule="evenodd" clip-rule="evenodd" d="M93.5357 45V67.5333C93.5357 70.4003 91.2043 72.7333 88.3393 72.7333V53.6667C88.3393 48.8879 84.4541 45 79.6786 45H71.0179C70.0617 45 69.2857 45.7765 69.2857 46.7333V53.6667V55.4V57.1333H55.4286C54.4724 57.1333 53.6964 57.9099 53.6964 58.8667V64.0667H43.3036V58.8667C43.3036 57.9099 42.5276 57.1333 41.5714 57.1333H27.7143V55.4V53.6667V46.7333C27.7143 45.7765 26.9383 45 25.9821 45H17.3214C12.5459 45 8.66071 48.8879 8.66071 53.6667V72.7333C5.79575 72.7333 3.46429 70.4003 3.46429 67.5333V45H0V67.5333C0 71.078 2.14266 74.1235 5.19643 75.4651V97H8.66071V76.2H10.3929H12.125H25.9821V95.2667C25.9821 96.2235 26.7581 97 27.7143 97H32.9107H34.6429H36.375V95.2667V69.2667V67.5333H41.5714H55.4286H60.625V69.2667V95.2667V97H62.3571H64.0893H69.2857C70.2419 97 71.0179 96.2235 71.0179 95.2667V76.2H84.875H86.6071H88.3393V97H91.8036V75.4651C94.8573 74.1235 97 71.078 97 67.5333V45H93.5357ZM34.6429 64.0667H31.1786H20.7857V53.6667H17.3214V65.8C17.3214 66.7568 18.0974 67.5333 19.0536 67.5333H31.1786C32.133 67.5333 32.9107 68.3116 32.9107 69.2667V93.5333H29.4464V74.4667C29.4464 73.5099 28.6704 72.7333 27.7143 72.7333H12.125V53.6667C12.125 50.7997 14.4565 48.4667 17.3214 48.4667H24.25V53.6667V55.4V58.8667C24.25 59.8235 25.026 60.6 25.9821 60.6H39.8393V64.0667H34.6429ZM67.5536 74.4667C67.5536 73.5099 68.3296 72.7333 69.2857 72.7333H84.875V53.6667C84.875 50.7997 82.5435 48.4667 79.6786 48.4667H72.75V53.6667V55.4V58.8667C72.75 59.8235 71.974 60.6 71.0179 60.6H57.1607V64.0667H62.3571H65.8214H76.2143V53.6667H79.6786V65.8C79.6786 66.7568 78.9026 67.5333 77.9464 67.5333H65.8214C64.867 67.5333 64.0893 68.3116 64.0893 69.2667V93.5333H67.5536V74.4667Z" fill="white"/>
<path fill-rule="evenodd" clip-rule="evenodd" d="M33.1667 22.2857V17.1429C30.3181 17.1429 28 14.8354 28 12V5.14286C28 2.30743 30.3181 0 33.1667 0H53.8333C56.6819 0 59 2.30743 59 5.14286V12C59 14.8354 56.6819 17.1429 53.8333 17.1429H40.9167L36.2667 23.3143C35.9343 23.7531 35.4211 24 34.8889 24C34.7081 24 34.5238 23.9709 34.3447 23.9126C33.6403 23.6777 33.1667 23.0246 33.1667 22.2857ZM33.1667 3.42857C32.2177 3.42857 31.4444 4.19829 31.4444 5.14286V12C31.4444 12.9446 32.2177 13.7143 33.1667 13.7143H34.8889C35.8396 13.7143 36.6111 14.4823 36.6111 15.4286V17.1429L38.6778 14.4C39.0033 13.968 39.5131 13.7143 40.0556 13.7143H53.8333C54.7823 13.7143 55.5556 12.9446 55.5556 12V5.14286C55.5556 4.19829 54.7823 3.42857 53.8333 3.42857H33.1667Z" fill="white"/>
<rect x="34" y="7" width="18" height="3" fill="white"/>
<rect x="47" y="43" width="10" height="3" fill="white"/>
<path fill-rule="evenodd" clip-rule="evenodd" d="M40 41.4C40 38.4228 42.3555 36 45.2499 36H59.2496C61.5316 36 63.4776 37.5048 64.2003 39.6H66.2495C66.8952 39.6 67.4885 39.9654 67.793 40.5522C68.0975 41.1372 68.0642 41.8464 67.7055 42.399L64.4995 47.3454V48.6C64.4995 51.5772 62.1441 54 59.2496 54H45.2499C42.3555 54 40 51.5772 40 48.6V41.4ZM62.7496 43.2C61.7836 43.2 60.9996 42.3936 60.9996 41.4C60.9996 40.4082 60.2139 39.6 59.2496 39.6H45.2499C44.2857 39.6 43.4999 40.4082 43.4999 41.4V48.6C43.4999 49.5918 44.2857 50.4 45.2499 50.4H59.2496C60.2139 50.4 60.9996 49.5918 60.9996 48.6V46.8C60.9996 46.4454 61.1029 46.0962 61.2936 45.801L62.9788 43.2H62.7496Z" fill="white"/>
<rect x="40" y="28" width="3" height="3" fill="white"/>
<rect x="47" y="28" width="3" height="3" fill="white"/>
<rect x="54" y="28" width="3" height="3" fill="white"/>
</svg>
