<svg width="100" height="100" viewBox="0 0 100 100" fill="none" xmlns="http://www.w3.org/2000/svg">
<path fill-rule="evenodd" clip-rule="evenodd" d="M94.7143 25H95C97.7615 25 100 27.2385 100 30C100 32.7615 97.7613 35 95 35H91.3814C91.9223 36.5305 91.6865 38.2281 90.7494 39.5533C89.8123 40.8785 88.2902 41.6666 86.6672 41.6668H83.3338V46.6424C83.3062 49.0943 83.9447 51.5078 85.1811 53.6256C87.2424 57.0617 88.332 60.993 88.3338 65V83.3334C88.3336 84.9564 87.5455 86.4785 86.2203 87.4156C84.8949 88.3527 83.1975 88.5883 81.667 88.0477V90C81.6668 91.623 80.8787 93.1451 79.5535 94.0822C78.2281 95.0193 76.5307 95.2549 75.0002 94.7143V95C75.0002 97.7615 72.7615 100 70.0002 100C67.2389 100 65.0002 97.7613 65.0002 95V91.3812C63.4697 91.9221 61.7721 91.6863 60.4469 90.7492C59.1217 89.8121 58.3336 88.29 58.3334 86.667V83.3336H53.3578C50.9059 83.3061 48.4924 83.9445 46.3746 85.1809C42.9383 87.2422 39.007 88.3318 35 88.3336H16.6666C15.0436 88.3334 13.5215 87.5453 12.5844 86.2201C11.6473 84.8947 11.4117 83.1973 11.9523 81.6668H10C8.37695 81.6666 6.85488 80.8787 5.91777 79.5533C4.98066 78.2279 4.74512 76.5305 5.28574 75H5C2.23848 75 0 72.7613 0 70C0 67.2387 2.23848 65 5 65.0002H8.61914C8.07832 63.4697 8.31406 61.7721 9.25117 60.4469C10.1883 59.1217 11.7104 58.3336 13.3334 58.3334H16.6666V53.3578C16.6941 50.9059 16.0557 48.4924 14.8193 46.3746C12.758 42.9383 11.6684 39.007 11.6666 35V16.6666C11.6668 15.0436 12.4549 13.5215 13.7801 12.5844C15.1055 11.6473 16.8029 11.4117 18.3334 11.9523V10C18.3336 8.37695 19.1213 6.85488 20.4467 5.91777C21.7721 4.98066 23.4695 4.74512 25 5.28574V5C25 2.23848 27.2385 0 30 0C32.7615 0 35 2.23867 35 5V8.61914C36.5305 8.07832 38.2281 8.31406 39.5533 9.25117C40.8785 10.1883 41.6666 11.7104 41.6668 13.3334V16.6664H46.6424C49.0943 16.6939 51.5078 16.0555 53.6256 14.8191C57.0617 12.7578 60.993 11.6682 65 11.6664H83.3334C84.9564 11.6666 86.4785 12.4545 87.4156 13.7799C88.3527 15.1053 88.5883 16.8027 88.0477 18.3332H90C91.623 18.3334 93.1451 19.1215 94.0822 20.4467C95.0193 21.7721 95.2549 23.4695 94.7143 25ZM15.0442 16.8408V35.13C15.0456 38.5245 15.974 41.8549 17.7302 44.7657C19.2824 47.3952 20.0877 50.3944 20.0603 53.4435V58.4071H36.7797V52.6967C36.7932 50.6943 37.7008 48.8012 39.2567 47.5301C41.5326 45.676 43.0031 43.0216 43.3628 40.1179H40.1238C39.2003 40.1179 38.4518 39.3736 38.4518 38.4553V13.5157C38.4518 12.5974 37.7033 11.8531 36.7799 11.8531C35.8564 11.8531 35.1079 12.5974 35.1079 13.5157V28.4795C35.1079 29.3976 34.3595 30.1421 33.436 30.1421C32.5125 30.1421 31.7641 29.3978 31.7641 28.4795V5.2024C31.7641 4.28412 31.0156 3.53982 30.0921 3.53982C29.1689 3.53982 28.4202 4.28412 28.4202 5.2024V28.4795C28.4202 29.3976 27.6717 30.1421 26.7482 30.1421C25.8248 30.1421 25.0763 29.3978 25.0763 28.4795V10.1903C25.0763 9.27205 24.3274 8.52776 23.404 8.52776C22.4805 8.52776 21.732 9.27205 21.732 10.1903V28.4793C21.732 29.3974 20.9835 30.1419 20.0601 30.1419C19.1366 30.1419 18.3881 29.3976 18.3881 28.4793V16.8408C18.3881 15.9226 17.6396 15.1783 16.7162 15.1783C15.7927 15.1783 15.0442 15.9226 15.0442 16.8408ZM46.4936 39.823H47.3448C48.3821 39.8381 49.3595 40.3128 50.0124 41.1192C52.5676 44.1707 56.2164 46.0999 60.177 46.4936V47.3448C60.1619 48.3821 59.6872 49.3595 58.8808 50.0124C55.8294 52.5676 53.9001 56.2164 53.5064 60.177H52.6552C51.6179 60.1619 50.6405 59.6872 49.9876 58.8808C47.4324 55.8294 43.7836 53.9001 39.823 53.5064V52.6552C39.8381 51.6179 40.3128 50.6405 41.1192 49.9876C44.1708 47.4322 46.1001 43.7835 46.4936 39.823ZM53.4435 79.9397H58.4071V63.2204H52.6967C50.6943 63.2069 48.8012 62.2993 47.5301 60.7433C45.676 58.4675 43.0216 56.9969 40.1179 56.6372V59.8763C40.1179 60.7997 39.3736 61.5482 38.4553 61.5482H13.5157C12.5974 61.5482 11.8531 62.2967 11.8531 63.2202C11.8531 64.1437 12.5974 64.8922 13.5157 64.8922H28.4795C29.3976 64.8922 30.1421 65.6407 30.1421 66.5641C30.1421 67.4876 29.3978 68.2361 28.4795 68.2361H5.2024C4.28412 68.2361 3.53982 68.9846 3.53982 69.9081C3.53982 70.8315 4.28412 71.58 5.2024 71.58H28.4795C29.3976 71.58 30.1421 72.3285 30.1421 73.252C30.1421 74.1755 29.3978 74.924 28.4795 74.924H10.1903C9.27205 74.924 8.52776 75.6725 8.52776 76.5959C8.52776 77.5192 9.27205 78.2679 10.1903 78.2679H28.4793C29.3974 78.2679 30.1419 79.0164 30.1419 79.9399C30.1419 80.8633 29.3976 81.6118 28.4793 81.6118H16.8408C15.9226 81.6118 15.1783 82.3603 15.1783 83.2838C15.1783 84.2073 15.9226 84.9557 16.8408 84.9557H35.13C38.5245 84.9544 41.8549 84.026 44.7657 82.2698C47.3952 80.7175 50.3944 79.912 53.4435 79.9397ZM84.9557 64.87V83.1592C84.9557 84.0774 84.2073 84.8217 83.2838 84.8217C82.3603 84.8217 81.6118 84.0774 81.6118 83.1592V71.5207C81.6118 70.6024 80.8633 69.8581 79.9399 69.8581C79.0164 69.8581 78.2679 70.6024 78.2679 71.5207V89.8097C78.2679 90.728 77.5192 91.4722 76.5959 91.4722C75.6725 91.4722 74.924 90.728 74.924 89.8097V71.5205C74.924 70.6022 74.1755 69.8579 73.252 69.8579C72.3285 69.8579 71.58 70.6022 71.58 71.5205V94.7976C71.58 95.7159 70.8315 96.4602 69.9081 96.4602C68.9846 96.4602 68.2361 95.7159 68.2361 94.7976V71.5205C68.2361 70.6022 67.4876 69.8579 66.5641 69.8579C65.6407 69.8579 64.8922 70.6022 64.8922 71.5205V86.4843C64.8922 87.4026 64.1437 88.1469 63.2202 88.1469C62.2967 88.1469 61.5482 87.4026 61.5482 86.4843V61.5447C61.5482 60.6264 60.7997 59.8821 59.8763 59.8821H56.6372C56.9969 56.9784 58.4675 54.324 60.7433 52.4699C62.2993 51.1988 63.2069 49.3057 63.2204 47.3033V41.5929H79.9397V46.5565C79.912 49.6054 80.7175 52.6048 82.2698 55.2341C84.026 58.1451 84.9544 61.4755 84.9557 64.87ZM71.5205 31.7641H94.7976C95.7159 31.7641 96.4602 31.0157 96.4602 30.092C96.4602 29.1688 95.7159 28.4201 94.7976 28.4201H71.5205C70.6022 28.4201 69.8579 27.6716 69.8579 26.7482C69.8579 25.8247 70.6022 25.0762 71.5205 25.0762H89.8097C90.728 25.0762 91.4722 24.3274 91.4722 23.4039C91.4722 22.4804 90.728 21.732 89.8097 21.732H71.5205C70.6022 21.732 69.8579 20.9835 69.8579 20.06C69.8579 19.1366 70.6022 18.3881 71.5205 18.3881H83.159C84.0772 18.3881 84.8215 17.6396 84.8215 16.7162C84.8215 15.7927 84.0772 15.0442 83.159 15.0442H64.8698C61.4753 15.0456 58.1449 15.974 55.2341 17.7302C52.6048 19.2824 49.6054 20.0877 46.5565 20.0602H41.5929V36.7797H47.3033C49.3057 36.7933 51.1988 37.7008 52.4699 39.2568C54.324 41.5326 56.9784 43.0031 59.8821 43.3628V40.1238C59.8821 39.2003 60.6264 38.4519 61.5447 38.4519H86.4843C87.4026 38.4519 88.1469 37.7034 88.1469 36.7799C88.1469 35.8565 87.4026 35.108 86.4843 35.108H71.5205C70.6022 35.108 69.8579 34.3595 69.8579 33.4361C69.8579 32.5126 70.6022 31.7641 71.5205 31.7641Z" fill="white"/>
</svg>
