<svg width="104" height="85" viewBox="0 0 104 85" fill="none" xmlns="http://www.w3.org/2000/svg">
<path d="M78.341 21.6588C77.4624 20.7804 76.0377 20.7804 75.1589 21.6588L70.659 26.1588C69.7803 27.0374 69.7803 28.4621 70.659 29.3409C71.538 30.2198 72.9625 30.2196 73.8411 29.3409L78.341 24.841C79.2197 23.9623 79.2197 22.5376 78.341 21.6588Z" fill="white"/>
<path d="M30.341 21.6588C29.4624 20.7804 28.0377 20.7804 27.1589 21.6588L22.659 26.1588C21.7803 27.0374 21.7803 28.4621 22.659 29.3409C23.538 30.2198 24.9625 30.2196 25.8411 29.3409L30.341 24.841C31.2197 23.9623 31.2197 22.5376 30.341 21.6588Z" fill="white"/>
<path d="M68.341 12.6588C67.4624 11.7804 66.0377 11.7804 65.1589 12.6588L60.659 17.1588C59.7803 18.0374 59.7803 19.4621 60.659 20.3409C61.538 21.2198 62.9625 21.2196 63.8411 20.3409L68.341 15.841C69.2197 14.9623 69.2197 13.5376 68.341 12.6588Z" fill="white"/>
<path d="M43.341 12.6588C42.4624 11.7804 41.0377 11.7804 40.1589 12.6588L35.659 17.1588C34.7803 18.0374 34.7803 19.4621 35.659 20.3409C36.538 21.2198 37.9625 21.2196 38.8411 20.3409L43.341 15.841C44.2197 14.9623 44.2197 13.5376 43.341 12.6588Z" fill="white"/>
<path d="M53.341 21.6588C52.4624 20.7804 51.0377 20.7804 50.1589 21.6588L45.659 26.1588C44.7803 27.0374 44.7803 28.4621 45.659 29.3409C46.538 30.2198 47.9625 30.2196 48.8411 29.3409L53.341 24.841C54.2197 23.9623 54.2197 22.5376 53.341 21.6588Z" fill="white"/>
<path fill-rule="evenodd" clip-rule="evenodd" d="M97.9062 56.6667C101.266 56.6667 104 59.3903 104 62.7381C104 65.8082 101.738 68.2633 98.9064 68.7272C99.3809 69.9754 99.4151 71.3389 98.9753 72.6337C96.4572 80.0307 89.4975 85 81.6562 85H22.3438C14.5025 85 7.54284 80.0307 5.02531 72.6349C4.58514 71.3389 4.61927 69.9748 5.09397 68.7263C2.20797 68.2495 0 65.7465 0 62.7381C0 59.3834 2.72716 56.6667 6.09375 56.6667H8.1252V49.9689C8.11689 49.9614 8.10838 49.9541 8.09986 49.9468L8.09974 49.9467L8.0997 49.9467C8.08932 49.9378 8.07895 49.9289 8.06894 49.9197C6.69378 48.67 3.87441 47.9139 2.05806 47.9416C2.04892 47.9418 2.03978 47.9418 2.03084 47.9418C0.921375 47.9418 0.0148281 47.0534 0.000203125 45.9447C-0.0144219 44.827 0.882984 43.909 2.00464 43.8944C3.78686 43.8689 6.10817 44.3243 8.125 45.2346V40.019C5.64159 39.0065 4.00847 36.4642 4.36048 33.6562C6.75655 14.4694 23.22 0 42.6562 0H61.3438C80.78 0 97.2435 14.4694 99.6395 33.657C99.9926 36.4733 98.3483 39.0103 95.875 40.0188V45.3238C97.8843 44.3773 100.2 43.9163 101.943 43.8944L101.96 43.8942L101.969 43.8942C103.079 43.8942 103.986 44.7837 104 45.8925C104.014 47.0101 103.116 47.9277 101.994 47.9416C100.199 47.9643 97.4447 48.7299 96.1263 49.9274C96.0736 49.9752 96.0197 50.0208 95.9658 50.0665C95.9355 50.0921 95.9051 50.1178 95.875 50.1439V56.6667H97.9062ZM42.6562 4.04762C25.2659 4.04762 10.5355 16.9917 8.3917 34.1566C8.23875 35.379 9.24016 36.4286 10.4366 36.4286H93.5634C93.5982 36.4286 93.6329 36.4274 93.6676 36.4243L93.6816 36.4231L93.6938 36.4221L93.7079 36.4211C94.8391 36.3456 95.755 35.3272 95.6083 34.1577C93.4645 16.9917 78.7341 4.04762 61.3438 4.04762H42.6562ZM83.939 46.9362C79.4753 42.8807 73.4776 42.8807 69.014 46.9362C66.0993 49.5841 62.4784 49.5841 59.564 46.9362C55.1003 42.8807 49.1026 42.8807 44.639 46.9362C41.7243 49.5841 38.1034 49.5841 35.189 46.9362C30.7253 42.8809 24.7276 42.8805 20.2635 46.9366C17.7933 49.1826 14.834 49.539 12.1875 47.9592V40.4762H91.8125V48.0766C89.2208 49.5133 86.3377 49.1156 83.939 46.9362ZM91.8125 56.6667V52.4658C88.2101 53.6184 84.3089 52.7506 81.2017 49.927C78.2872 47.2792 74.6661 47.2788 71.7517 49.927C67.2882 53.9827 61.2903 53.9829 56.8267 49.927C53.9124 47.279 50.2913 47.279 47.3767 49.927C42.9132 53.9827 36.9153 53.9829 32.4517 49.927C29.5372 47.279 25.9161 47.279 23.0017 49.927C20.7748 51.9514 18.1604 52.973 15.5391 52.973C14.4129 52.9732 13.2858 52.7838 12.1875 52.4051V56.6667H91.8125ZM95.1275 71.335C93.1694 77.0873 87.7557 80.9524 81.6562 80.9524H22.3438C16.2443 80.9524 10.8306 77.0873 8.87311 71.3363C8.45162 70.0957 9.52677 68.8095 10.8591 68.8095H93.1409C94.4781 68.8095 95.5463 70.1017 95.1275 71.335ZM6.09375 64.7619H97.9062C99.0277 64.7619 99.9375 63.8554 99.9375 62.7381C99.9375 61.6222 99.0263 60.7143 97.9062 60.7143H6.09375C4.9723 60.7143 4.0625 61.6208 4.0625 62.7381C4.0625 63.854 4.97372 64.7619 6.09375 64.7619Z" fill="white"/>
</svg>
